<svg xmlns="http://www.w3.org/2000/svg" xmlns:xlink="http://www.w3.org/1999/xlink" viewBox="0 0 26.58 42.59"><defs><style>.cls-1,.cls-11,.cls-12,.cls-16,.cls-19,.cls-28,.cls-29,.cls-30,.cls-6,.cls-7,.cls-8,.cls-9{stroke:#000;stroke-width:0.4px;}.cls-1,.cls-11,.cls-12,.cls-16,.cls-19,.cls-29,.cls-30,.cls-6,.cls-7,.cls-8{stroke-linecap:round;stroke-linejoin:round;}.cls-1,.cls-10,.cls-13,.cls-14,.cls-15,.cls-16,.cls-17,.cls-18,.cls-2,.cls-22,.cls-23,.cls-27,.cls-29,.cls-3,.cls-30,.cls-31,.cls-4,.cls-5,.cls-6,.cls-7,.cls-8{fill-rule:evenodd;}.cls-1{fill:url(#linear-gradient);}.cls-2{fill:url(#linear-gradient-2);}.cls-3{fill:url(#linear-gradient-3);}.cls-4{fill:url(#linear-gradient-4);}.cls-5{fill:url(#linear-gradient-5);}.cls-6{fill:url(#linear-gradient-6);}.cls-7{fill:url(#linear-gradient-7);}.cls-8{fill:url(#linear-gradient-8);}.cls-9{fill:url(#linear-gradient-9);}.cls-10{fill:url(#linear-gradient-10);}.cls-11{fill:url(#radial-gradient);}.cls-12{fill:url(#radial-gradient-2);}.cls-13{fill:#787878;}.cls-14{fill:url(#linear-gradient-11);}.cls-15{fill:url(#linear-gradient-12);}.cls-16{fill:#4ff;}.cls-16,.cls-29{fill-opacity:0;}.cls-17{fill:url(#linear-gradient-13);}.cls-18{fill:url(#linear-gradient-14);}.cls-19,.cls-28{fill:none;}.cls-20{fill:#005288;}.cls-21{fill:#a7a9ac;}.cls-23{fill:#00006d;}.cls-24{fill:#0b3d91;}.cls-25{fill:#fc3d21;}.cls-26,.cls-29{fill:#fff;}.cls-27{fill:url(#linear-gradient-15);}.cls-30{fill:url(#linear-gradient-16);}.cls-31{fill:url(#linear-gradient-17);}</style><linearGradient id="linear-gradient" x1="30.58" y1="-34.85" x2="50.96" y2="-34.85" gradientTransform="matrix(1, 0, 0, -1, -27.48, -21.7)" gradientUnits="userSpaceOnUse"><stop offset="0" stop-color="#d2d2d2"/><stop offset="0.5" stop-color="#fff"/><stop offset="1" stop-color="#d2d2d2"/></linearGradient><linearGradient id="linear-gradient-2" x1="163.17" y1="-35.23" x2="165.15" y2="-33.72" gradientTransform="translate(171.48 -21.7) rotate(180)" gradientUnits="userSpaceOnUse"><stop offset="0" stop-color="#d2d2d2"/><stop offset="1" stop-color="#e6e6e6"/></linearGradient><linearGradient id="linear-gradient-3" x1="162.85" y1="-31.68" x2="167.23" y2="-31.68" gradientTransform="translate(171.48 -21.7) rotate(180)" gradientUnits="userSpaceOnUse"><stop offset="0" stop-color="#e6e6e6"/><stop offset="1" stop-color="#fafafa"/></linearGradient><linearGradient id="linear-gradient-4" x1="45.76" y1="-35.23" x2="47.74" y2="-33.72" gradientTransform="matrix(1, 0, 0, -1, -27.48, -21.7)" xlink:href="#linear-gradient-2"/><linearGradient id="linear-gradient-5" x1="45.44" y1="-31.68" x2="49.81" y2="-31.68" gradientTransform="matrix(1, 0, 0, -1, -27.48, -21.7)" xlink:href="#linear-gradient-3"/><linearGradient id="linear-gradient-6" x1="30.71" y1="-43.67" x2="50.84" y2="-43.67" gradientTransform="matrix(1, 0, 0, -1, -27.48, -21.7)" gradientUnits="userSpaceOnUse"><stop offset="0" stop-color="#505050"/><stop offset="0.51" stop-color="#606060"/><stop offset="1" stop-color="#505050"/></linearGradient><linearGradient id="linear-gradient-7" x1="167.11" y1="-54.45" x2="171.32" y2="-53.83" gradientTransform="translate(171.49 -21.7) rotate(180)" gradientUnits="userSpaceOnUse"><stop offset="0" stop-color="#e6e6e6"/><stop offset="1" stop-color="#fff"/></linearGradient><linearGradient id="linear-gradient-8" x1="49.69" y1="-54.45" x2="53.91" y2="-53.83" gradientTransform="matrix(1, 0, 0, -1, -27.49, -21.7)" xlink:href="#linear-gradient-7"/><linearGradient id="linear-gradient-9" x1="25.25" y1="-941.39" x2="43.92" y2="-941.39" gradientTransform="matrix(1, 0, 0, -0.06, -21.29, -27.93)" gradientUnits="userSpaceOnUse"><stop offset="0" stop-color="#f6f6f6"/><stop offset="0.5" stop-color="#fff"/><stop offset="1" stop-color="#f6f6f6"/></linearGradient><linearGradient id="linear-gradient-10" x1="35.21" y1="-24.69" x2="46.34" y2="-24.69" gradientTransform="matrix(1, 0, 0, -1, -27.48, -21.7)" gradientUnits="userSpaceOnUse"><stop offset="0" stop-color="#f0f0f0"/><stop offset="0.5" stop-color="#fff"/><stop offset="1" stop-color="#f0f0f0"/></linearGradient><radialGradient id="radial-gradient" cx="116.64" cy="55.67" r="0.92" gradientTransform="matrix(0, 1, 1.7, 0, -85.11, -105.45)" gradientUnits="userSpaceOnUse"><stop offset="0" stop-color="#423138"/><stop offset="1" stop-color="#251c1f"/></radialGradient><radialGradient id="radial-gradient-2" cx="233.29" cy="63.53" r="0.92" gradientTransform="translate(250.51 118.99) rotate(180) scale(1 1.7)" xlink:href="#radial-gradient"/><linearGradient id="linear-gradient-11" x1="33.87" y1="-37.22" x2="32.49" y2="-41.46" gradientTransform="matrix(1, 0, 0, -1, -27.51, -21.7)" gradientUnits="userSpaceOnUse"><stop offset="0" stop-color="#505050"/><stop offset="1" stop-color="#787878"/></linearGradient><linearGradient id="linear-gradient-12" x1="31.58" y1="-38.88" x2="33.37" y2="-42.91" gradientTransform="matrix(1, 0, 0, -1, -27.51, -21.7)" gradientUnits="userSpaceOnUse"><stop offset="0" stop-color="#828282"/><stop offset="1" stop-color="#646464"/></linearGradient><linearGradient id="linear-gradient-13" x1="151.29" y1="-37.22" x2="149.9" y2="-41.46" gradientTransform="translate(171.51 -21.7) rotate(180)" xlink:href="#linear-gradient-11"/><linearGradient id="linear-gradient-14" x1="148.99" y1="-38.88" x2="150.79" y2="-42.91" gradientTransform="translate(171.51 -21.7) rotate(180)" xlink:href="#linear-gradient-12"/><linearGradient id="linear-gradient-15" x1="37.37" y1="-55.9" x2="40.82" y2="-55.28" gradientTransform="matrix(1, 0, 0, -1, -27.48, -21.7)" gradientUnits="userSpaceOnUse"><stop offset="0" stop-color="#f0f0f0" stop-opacity="0"/><stop offset="1" stop-color="#e6e6e6"/></linearGradient><linearGradient id="linear-gradient-16" x1="44.36" y1="-39.71" x2="44.67" y2="-45.08" gradientTransform="matrix(1, 0, 0, -1, -27.48, -21.7)" gradientUnits="userSpaceOnUse"><stop offset="0" stop-color="#fafafa"/><stop offset="1" stop-color="#e6e6e6"/></linearGradient><linearGradient id="linear-gradient-17" x1="77.83" y1="-44.89" x2="77.96" y2="-43.24" gradientTransform="matrix(1, 0, 0, -1, -60.79, -21.7)" gradientUnits="userSpaceOnUse"><stop offset="0" stop-color="#787878"/><stop offset="1" stop-opacity="0"/></linearGradient></defs><title>Asset 4</title><g id="Layer_2" data-name="Layer 2"><g id="svg2"><g id="g5202"><g id="g6994"><path id="path6916" class="cls-1" d="M18.85,5.77c.49,1,.36,1,.91,2.34s2,4.33,2.44,5.67a19.37,19.37,0,0,1,1,7.7H3.34a19.37,19.37,0,0,1,1-7.7c.47-1.34,1.89-4.33,2.44-5.67s.42-1.31.91-2.34l.11,0a29.39,29.39,0,0,1,5.45-1,29.39,29.39,0,0,1,5.45,1Z"/><g id="g6973"><path id="path6969" class="cls-2" d="M9.14,5.47a133.36,133.36,0,0,0-1.81,16l-.88-6.72L6,14.23l-1.77.13a1.78,1.78,0,0,1,.13-.58c.47-1.34,1.89-4.33,2.44-5.67s.42-1.31.91-2.34l.11,0Z"/><path id="path6971" class="cls-3" d="M6,14.23l-1.77.13a1.78,1.78,0,0,1,.13-.58c.47-1.34,1.89-4.33,2.44-5.67s.42-1.31.91-2.34l.11,0,.78-.2C7.7,8.45,6.75,11.29,6,14.23Z"/></g><g id="g6967"><path id="path6847" class="cls-4" d="M17.44,5.47a133.36,133.36,0,0,1,1.81,16l.88-6.72.43-.53,1.77.13a1.78,1.78,0,0,0-.13-.58c-.47-1.34-1.89-4.33-2.44-5.67s-.42-1.31-.91-2.34l-.11,0Z"/><path id="path6838" class="cls-5" d="M20.56,14.23l1.77.13a1.78,1.78,0,0,0-.13-.58c-.47-1.34-1.89-4.33-2.44-5.67s-.42-1.31-.91-2.34l-.11,0L18,5.6c.92,2.85,1.87,5.69,2.6,8.63Z"/></g></g><path id="path6621" class="cls-6" d="M3.85,22.59a1.35,1.35,0,0,1-.33-.38,2.57,2.57,0,0,1-.09-.86H23.15a2.57,2.57,0,0,1-.09.86,1.35,1.35,0,0,1-.33.38Z"/><g id="g6583"><path id="path6577" class="cls-7" d="M3.81,40.86S1,40.31.7,40.27s-.4-.16-.44-.41c0-1-.06-6.16-.06-6.16l3.88-9.18.11,16.31Z"/><path id="path6565" class="cls-8" d="M22.77,40.86s2.84-.55,3.11-.59.4-.16.44-.41c0-1,.06-6.16.06-6.16l-3.87-9.18-.12,16.31Z"/></g><rect id="rect5744" class="cls-9" x="3.96" y="22.48" width="18.67" height="18.4"/><path id="path6786" class="cls-10" d="M7.73,5.77A19.84,19.84,0,0,1,9.85,2.05,6.13,6.13,0,0,1,11.91.44,3.21,3.21,0,0,1,13.29.2a3.27,3.27,0,0,1,1.39.24,6.21,6.21,0,0,1,2.05,1.61,19.84,19.84,0,0,1,2.12,3.72l-.11,0a29.39,29.39,0,0,0-5.45-1,29.39,29.39,0,0,0-5.45,1Z"/><g id="g6816"><ellipse id="path6764" class="cls-11" cx="9.36" cy="11.19" rx="1.36" ry="0.72" transform="translate(-2.82 19.22) rotate(-83.48)"/><ellipse id="ellipse6776" class="cls-12" cx="17.22" cy="11.19" rx="0.72" ry="1.36" transform="translate(-1.16 2.03) rotate(-6.52)"/></g><g id="g6698"><g id="g6663"><path id="path6651" class="cls-13" d="M7.28,21.31s-.69-6.38-.81-6.61A1,1,0,0,0,6,14.22a11,11,0,0,0-1.72.09,20.67,20.67,0,0,0-.87,7Z"/><path id="path6629" class="cls-14" d="M6.81,21.27s-.31-3.08-.59-4.6c-.08-.43-.31-1.26-.31-1.26a.51.51,0,0,0-.28-.32l-1.22.05a.63.63,0,0,0-.35.27,19.21,19.21,0,0,0-.59,5.92Z"/><path id="path6633" class="cls-15" d="M6.17,16.55a1.17,1.17,0,0,0-.26-.28.45.45,0,0,0-.36,0c-1.07.65-1.49,2.37-2.08,3.61l0,1.44,3.33,0Z"/><path id="path6631" class="cls-16" d="M6.17,16.55a1.17,1.17,0,0,0-.26-.28.45.45,0,0,0-.36,0C4.48,16.9,4,18.75,3.43,20"/><path id="path6625" class="cls-16" d="M7.28,21.31s-.69-6.38-.81-6.61A1,1,0,0,0,6,14.22a11,11,0,0,0-1.72.09,20.67,20.67,0,0,0-.87,7Z"/><path id="path6627" class="cls-16" d="M6.81,21.27s-.31-3.08-.59-4.6c-.08-.43-.31-1.26-.31-1.26a.51.51,0,0,0-.28-.32l-1.22.05a.87.87,0,0,0-.41.32"/></g><g id="g6677"><path id="path6665" class="cls-13" d="M19.3,21.31s.69-6.38.81-6.61a1,1,0,0,1,.44-.48,11,11,0,0,1,1.72.09,20.67,20.67,0,0,1,.87,7Z"/><path id="path6667" class="cls-17" d="M19.77,21.27s.31-3.08.59-4.6c.08-.43.31-1.26.31-1.26a.51.51,0,0,1,.28-.32l1.22.05a.63.63,0,0,1,.35.27,19.21,19.21,0,0,1,.59,5.92Z"/><path id="path6669" class="cls-18" d="M20.41,16.55a1.17,1.17,0,0,1,.26-.28.45.45,0,0,1,.36,0c1.07.65,1.49,2.37,2.08,3.61l0,1.44-3.33,0Z"/><path id="path6671" class="cls-16" d="M20.41,16.55a1.17,1.17,0,0,1,.26-.28.45.45,0,0,1,.36,0c1.07.65,1.53,2.5,2.12,3.74"/><path id="path6673" class="cls-16" d="M19.3,21.31s.69-6.38.81-6.61a1,1,0,0,1,.44-.48,11,11,0,0,1,1.72.09,20.67,20.67,0,0,1,.87,7Z"/><path id="path6675" class="cls-16" d="M19.77,21.27s.31-3.08.59-4.6c.08-.43.31-1.26.31-1.26a.51.51,0,0,1,.28-.32l1.22.05a.87.87,0,0,1,.41.32"/></g></g><path id="path6731" class="cls-19" d="M7.84,5.8a29.39,29.39,0,0,1,5.45-1,29.39,29.39,0,0,1,5.45,1"/><g id="g6762"><path id="path14421" class="cls-20" d="M11.45,6.78h-.87l0,0v.77h.24V7.28l0,0h.64c.16,0,.23,0,.23-.15V6.93c0-.11-.07-.15-.23-.15m0,.28c0,.05,0,.06-.11.06h-.53l0,0V6.93l0,0h.53c.07,0,.11,0,.11.07Z"/><polyline id="polyline14423" class="cls-20" points="12.12 6.92 12.32 7.22 12.31 7.25 11.86 7.25 11.74 7.4 12.42 7.4 12.47 7.43 12.57 7.57 12.85 7.57 12.24 6.77"/><polyline id="polyline14425" class="cls-20" points="14.84 7.41 14.84 7.2 14.87 7.18 15.33 7.18 15.33 7.04 14.6 7.04 14.6 7.57 15.67 7.57 15.67 7.43 14.87 7.43"/><rect id="rect14427" class="cls-20" x="14.6" y="6.78" width="1.08" height="0.15"/><path id="path14429" class="cls-20" d="M13.39,6.92h.87c0-.11-.08-.14-.25-.14h-.63c-.2,0-.26,0-.26.18v.42c0,.15.06.19.26.19H14c.17,0,.24,0,.25-.15h-.87l0,0V6.93"/><path id="path14431" class="cls-20" d="M10,7.09H9.33l0,0V6.93h.88v0c0-.08-.11-.11-.25-.11H9.36c-.2,0-.26,0-.26.18v.09c0,.15.06.19.26.19H10l0,0v.16H9.08s0,0,0,0,.09.13.26.13H10c.19,0,.26,0,.26-.19V7.27c0-.15-.07-.18-.26-.18"/><path id="path14433" class="cls-20" d="M16.37,6.77H16l0,0,.4.29L16.63,7"/><path id="path14435" class="cls-20" d="M16.68,7.32l.35.25h.36l0,0-.52-.38-.21.16"/><path id="path14437" class="cls-21" d="M16.31,7.57H16l0,0a4.94,4.94,0,0,1,3.33-1.22,4.88,4.88,0,0,0-3,1.26"/></g><path id="path6953" class="cls-19" d="M15.23,13.75a.57.57,0,0,0,.41-.45L15.33,9a.54.54,0,0,0-.5-.46H11.75a.54.54,0,0,0-.5.46l-.31,4.32a.57.57,0,0,0,.41.45h3.88Z"/><path id="rect6956" class="cls-22" d="M14.12,10.68l-.09.09v.73l.09.08h.93l.08-.08v-.73l-.08-.09Zm.08.17H15v.56H14.2Z"/><g id="g14461"><g id="g14445"><path id="path14441" class="cls-23" d="M11.26,19.37c.66-.07,1.48-.1,1.51.49a1.48,1.48,0,0,1,1.8,0,.73.73,0,0,1,.33,0,.88.88,0,0,1-.18-.39c-.39,0-.72-.16-1.08-.24a8.53,8.53,0,0,1-1.1-.15c-.4-.25-.69-.62-1.09-.89a6.46,6.46,0,0,1-.92-.53c.56.49,1.72,1.33.73,1.71Z"/><path id="path14443" class="cls-23" d="M10.82,17.56a18.3,18.3,0,0,0,2.17.92.81.81,0,0,0,.5.22,1.55,1.55,0,0,0,1.1.52c.15.06.2,0,.25.1a1.31,1.31,0,0,1,.15.51.38.38,0,0,1-.15-.22c0-.32-.12-.29-.18-.3s-.2,0,.07.1l-.86-.18L13,18.91l-.14.1.32.1-.45-.06c-.4-.2-.66-.55-1.08-.81a4.32,4.32,0,0,0,.9.25Z"/></g><g id="g14459"><path id="path14447" class="cls-22" d="M12.76,20.61h.15v-.4a.38.38,0,0,0-.51,0v.4h.15v-.24h.09a.11.11,0,0,0,0-.06h-.13V20.2a.22.22,0,0,1,.22,0s0,.31,0,.41Z"/><path id="path14449" class="cls-22" d="M14.63,20.11c-.15,0-.33.09-.33.26,0,.34.64.36.64,0A.28.28,0,0,0,14.63,20.11Zm0,0c.08,0,.17.07.17.22s-.35.3-.35,0S14.54,20.15,14.63,20.15Z"/><path id="path14451" class="cls-22" d="M15.58,20.63h-.15v-.45l.15-.05h0a.54.54,0,0,1,.37.07v.42H15.8v-.4c-.05,0-.07,0-.23,0,0,0,0,.3,0,.44Z"/><path id="path14453" class="cls-22" d="M10.3,20.1v.53h.22c.48,0,.46-.52,0-.53Zm.14,0h.1c.25,0,.2.42,0,.43h-.11Z"/><path id="path14455" class="cls-22" d="M11.52,20.64h-.15v-.52h.35a.36.36,0,0,1,.14,0v.18s-.12,0-.13,0,.13,0,.13,0v.24s-.12,0-.15,0v-.22h-.08a.17.17,0,0,1-.06-.06h.14v-.17a.38.38,0,0,0-.21,0Z"/><path id="path14457" class="cls-22" d="M13.6,20.34h.25v.26a1.61,1.61,0,0,1-.49,0v-.48a1.16,1.16,0,0,1,.49,0v.1h-.13v-.07a.33.33,0,0,0-.22,0v.42a.45.45,0,0,0,.23,0v-.2h-.11s0,0,0,0Z"/></g></g><g id="g7747"><ellipse id="circle7392" class="cls-24" cx="20.79" cy="12.59" rx="0.59" ry="0.91" transform="translate(-3.48 13.89) rotate(-34.27)"/><path id="path7474" class="cls-25" d="M20.89,12.41l-.19.07a2,2,0,0,0-.61.29h0a.94.94,0,0,1,.26-.12l.47-.12.13,0-.06-.07Zm.14.16,0,0c-.06,0-.3.27-.35.32a3.43,3.43,0,0,0-.24.33v0a2.29,2.29,0,0,1,.23-.29c.07-.08.22-.22.27-.27l.13-.12h0Zm.2-.35a1.59,1.59,0,0,1-.32.18v0l.06.07a1,1,0,0,0,.28-.16,2.19,2.19,0,0,1-.22.24l0,0a2,2,0,0,0,.22-.23.76.76,0,0,0,.19-.45A.79.79,0,0,1,21.23,12.22Z"/><path id="path7476" class="cls-26" d="M20.76,12.78l-.08-.08-.08-.1h0l.1.12.06.07v0h0Zm.14.13-.1-.08v0s.06.08.09.09S20.92,12.93,20.9,12.91Zm0-.49c-.25-.29-.5-.45-.57-.37s0,.27.19.49h0c-.16-.21-.23-.41-.18-.47s.3.09.54.37a2.09,2.09,0,0,1,.14.17c.16.21.24.4.19.46s-.08,0-.18,0h0c.09.05.16.06.19,0S21.17,12.7,20.92,12.42Z"/><path id="path7478" class="cls-26" d="M20.18,12.38h.11l.14.21,0-.16s0,0,0,0h.08s0,0,0,0l.06.22,0,0h-.11l-.14-.2,0,.15s0,0,0,0h-.08s0,0,0,0a1.8,1.8,0,0,0-.06-.22S20.19,12.4,20.18,12.38Z"/><path id="path7480" class="cls-26" d="M21.29,12.78h.15a0,0,0,0,1,0,0l-.16-.28h-.06l0,0h0s0,.21,0,.22a.05.05,0,0,1,0,0h.08l0,0v0h.09v0S21.29,12.77,21.29,12.78Zm-.1-.12v-.1l.07.11Zm-.06-.18h0Z"/><path id="path7482" class="cls-26" d="M20.63,12.69v0h.09v0s0,0,0,0h.13l0,0-.15-.28h-.13s0,0,0,0,0,.21,0,.22,0,0,0,0h.08Zm0-.18.07.11h-.07Z"/><path id="path7484" class="cls-26" d="M21.05,12.61l-.06.05,0,0s0,0-.06,0h0l0,0v0s0,0,0,0a.24.24,0,0,0,.1,0,.08.08,0,0,0,.07-.09A.18.18,0,0,0,21.05,12.61Zm-.17.06v0h0Zm.14-.08,0,0-.09-.05s0,0,0,0a.15.15,0,0,1,.08,0l0-.08a0,0,0,0,1,0,0l-.09,0s-.07,0-.06.08a.16.16,0,0,0,.1.11h0l.05,0Z"/></g><path id="path6726" class="cls-19" d="M3.34,21.48a19.37,19.37,0,0,1,1-7.7c.47-1.34,1.89-4.33,2.44-5.67s.42-1.31.91-2.34A19.84,19.84,0,0,1,9.85,2.05,6.13,6.13,0,0,1,11.91.44,3.21,3.21,0,0,1,13.29.2a3.27,3.27,0,0,1,1.39.24,6.21,6.21,0,0,1,2.05,1.61,19.84,19.84,0,0,1,2.12,3.72c.49,1,.36,1,.91,2.34s2,4.33,2.44,5.67a19.37,19.37,0,0,1,1,7.7Z"/><g id="path6587"><polygon class="cls-27" points="13.38 25.04 10.42 36.93 10.46 42.41 10.75 42.59 13.31 40.67 13.38 25.04"/></g><rect id="rect6609" class="cls-28" x="3.96" y="22.48" width="18.67" height="18.4"/><path id="path6585" class="cls-29" d="M13.42,24.91l.09,15.92"/><g id="g8196"><path id="path6611" class="cls-30" d="M15.94,23.16a4.59,4.59,0,0,0,.07.91c0,.13,0,.31.13.38a5,5,0,0,0,1.48,0c.13,0,.23-.14.31-.24a1.33,1.33,0,0,0,.18-.38,2.12,2.12,0,0,0,.06-.44c0-.26,0-.53,0-.8,0-.45.13-.89.13-1.34a7.46,7.46,0,0,0-.06-.95A6.28,6.28,0,0,0,18,18.72a1.84,1.84,0,0,0-.58-.81.89.89,0,0,0-.51-.14.93.93,0,0,0-.51.16.64.64,0,0,0-.19.35,2.08,2.08,0,0,0-.05.66c0,.53.11,1,.13,1.57a5.61,5.61,0,0,1,0,.71,3.8,3.8,0,0,1-.06.58,4.1,4.1,0,0,1-.23.55,6.94,6.94,0,0,0-.06.82Z"/><path id="path8182" class="cls-31" d="M15.89,22.77l.64.57,1,.07.73-.22.11-1.5-2-.11Z"/><path id="path6613" class="cls-19" d="M16,22.91a3.82,3.82,0,0,0,.49.47,8,8,0,0,0,1.22,0,.65.65,0,0,0,.41-.21"/><path id="path8180" class="cls-19" d="M15.94,23.16a4.59,4.59,0,0,0,.07.91c0,.13,0,.31.13.38a5,5,0,0,0,1.48,0c.13,0,.23-.14.31-.24a1.33,1.33,0,0,0,.18-.38,2.12,2.12,0,0,0,.06-.44c0-.26,0-.53,0-.8,0-.45.13-.89.13-1.34a7.46,7.46,0,0,0-.06-.95A6.28,6.28,0,0,0,18,18.72a1.84,1.84,0,0,0-.58-.81.89.89,0,0,0-.51-.14.93.93,0,0,0-.51.16.64.64,0,0,0-.19.35,2.08,2.08,0,0,0-.05.66c0,.53.11,1,.13,1.57a5.61,5.61,0,0,1,0,.71,3.8,3.8,0,0,1-.06.58,4.1,4.1,0,0,1-.23.55,6.94,6.94,0,0,0-.06.82Z"/></g></g></g></g></svg>