<svg xmlns="http://www.w3.org/2000/svg" xmlns:xlink="http://www.w3.org/1999/xlink" viewBox="0 0 26.33 371.75"><defs><style>.cls-1{fill:url(#linear-gradient);}.cls-2{fill:url(#linear-gradient-2);}.cls-3{fill:url(#linear-gradient-3);}.cls-4{fill:#f7f7f7;}.cls-5{fill:url(#linear-gradient-4);}.cls-10,.cls-6,.cls-7{fill:#333;}.cls-14,.cls-6,.cls-7{stroke:#fff;}.cls-19,.cls-23,.cls-33,.cls-34,.cls-6,.cls-7{stroke-linecap:round;}.cls-19,.cls-33,.cls-34,.cls-6,.cls-7{stroke-linejoin:round;}.cls-6,.cls-7{stroke-opacity:0;}.cls-10,.cls-19,.cls-23,.cls-6,.cls-8{stroke-width:0.4px;}.cls-7{stroke-width:0.4px;}.cls-23,.cls-33,.cls-8,.cls-9{fill:none;}.cls-10,.cls-19,.cls-23,.cls-33,.cls-34,.cls-8,.cls-9{stroke:#000;}.cls-9{stroke-width:0.4px;}.cls-11{fill:#005288;}.cls-12{fill:#a7a9ac;}.cls-13{fill:#b22234;}.cls-14{stroke-width:300px;}.cls-15{fill:#3c3b6e;}.cls-16{fill:#fff;}.cls-17{fill:#a80126;}.cls-17,.cls-18,.cls-19,.cls-22,.cls-25,.cls-30,.cls-31,.cls-32,.cls-34,.cls-35{fill-rule:evenodd;}.cls-19,.cls-20{fill:#101010;}.cls-21{fill:url(#linear-gradient-5);}.cls-22{fill:url(#linear-gradient-6);}.cls-24{fill:url(#linear-gradient-7);}.cls-25{fill:url(#linear-gradient-8);}.cls-26{fill:url(#linear-gradient-9);}.cls-27{fill:url(#linear-gradient-10);}.cls-28{fill:url(#linear-gradient-11);}.cls-29{fill:url(#linear-gradient-12);}.cls-30{fill:#1a1a1a;}.cls-31,.cls-34{fill:#474747;}.cls-32{fill:#999;}.cls-33,.cls-34{stroke-width:0.38px;}.cls-35{fill:#4d4d4d;}</style><linearGradient id="linear-gradient" x1="-22.89" y1="-530.92" x2="-4.22" y2="-530.92" gradientTransform="matrix(1, 0, 0, -1, 26.71, -319.2)" gradientUnits="userSpaceOnUse"><stop offset="0" stop-color="#f6f6f6"/><stop offset="0.5" stop-color="#fff"/><stop offset="1" stop-color="#f6f6f6"/></linearGradient><linearGradient id="linear-gradient-2" x1="-22.89" y1="-534.23" x2="-4.22" y2="-534.23" gradientTransform="matrix(1, 0, 0, -2.53, 26.71, -1218.07)" gradientUnits="userSpaceOnUse"><stop offset="0" stop-color="#101010"/><stop offset="0.5" stop-color="#282828"/><stop offset="1" stop-color="#101010"/></linearGradient><linearGradient id="linear-gradient-3" x1="-22.89" y1="-670.31" x2="-4.22" y2="-670.31" gradientTransform="matrix(1, 0, 0, -1, 26.71, -317)" xlink:href="#linear-gradient-2"/><linearGradient id="linear-gradient-4" x1="-22.86" y1="-679.8" x2="-4.28" y2="-679.8" gradientTransform="matrix(1, 0, 0, -1, 26.71, -317)" xlink:href="#linear-gradient-2"/><linearGradient id="linear-gradient-5" x1="-25.43" y1="-650.83" x2="-13.39" y2="-650.83" gradientTransform="matrix(1, 0, 0, -1, 26.71, -317)" gradientUnits="userSpaceOnUse"><stop offset="0" stop-color="#181818"/><stop offset="1" stop-color="#3c3c3c"/></linearGradient><linearGradient id="linear-gradient-6" x1="-23.28" y1="-657.58" x2="-19.66" y2="-676.96" gradientTransform="matrix(1, 0, 0, -1, 26.71, -317)" gradientUnits="userSpaceOnUse"><stop offset="0" stop-color="#080808"/><stop offset="1" stop-color="#141414"/></linearGradient><linearGradient id="linear-gradient-7" x1="128.57" y1="-650.83" x2="140.61" y2="-650.83" gradientTransform="translate(153.62 -317) rotate(180)" xlink:href="#linear-gradient-5"/><linearGradient id="linear-gradient-8" x1="130.72" y1="-657.58" x2="134.34" y2="-676.96" gradientTransform="translate(153.62 -317) rotate(180)" xlink:href="#linear-gradient-6"/><linearGradient id="linear-gradient-9" x1="-393.67" y1="187.2" x2="-379.56" y2="187.2" gradientTransform="matrix(1, 0, 0, -1, 390.52, 218.78)" gradientUnits="userSpaceOnUse"><stop offset="0" stop-color="#e6e6e6"/><stop offset="1" stop-color="#f9f9f9"/></linearGradient><linearGradient id="linear-gradient-10" x1="-393.67" y1="152.47" x2="-379.56" y2="152.47" xlink:href="#linear-gradient-9"/><linearGradient id="linear-gradient-11" x1="-240.54" y1="187.2" x2="-223.06" y2="187.2" gradientTransform="translate(-210.15 218.78) rotate(180)" xlink:href="#linear-gradient-9"/><linearGradient id="linear-gradient-12" x1="-240.54" y1="152.47" x2="-223.06" y2="152.47" gradientTransform="translate(-210.15 218.78) rotate(180)" xlink:href="#linear-gradient-9"/></defs><title>Asset 5</title><g id="Layer_2" data-name="Layer 2"><g id="svg2"><g id="g12972"><rect id="rect7000" class="cls-1" x="3.82" y="68.31" width="18.67" height="292"/><rect id="rect7661" class="cls-2" x="3.82" y="115.96" width="18.67" height="35.7"/><rect id="rect7565" class="cls-3" x="3.82" y="346.26" width="18.67" height="14.11"/><path id="path6976" class="cls-4" d="M4.68,365.16a.79.79,0,0,1-.08-.23v0H8V365a.29.29,0,0,1,0,.19l0,0H4.71l0,0Z"/><path id="path6978" class="cls-4" d="M8.47,365.14a1,1,0,0,1-.08-.22h3.5v0a.93.93,0,0,1-.07.2l0,.06H8.51l0-.06Z"/><path id="path6980" class="cls-4" d="M12.18,365.28a.45.45,0,0,0,0-.08,2.3,2.3,0,0,0,.07-.26v0h.87c.83,0,.88,0,.88,0s0,0,0,.07a.9.9,0,0,0,0,.16l0,.12h-2Z"/><path id="path6982" class="cls-4" d="M14.52,365.14a1,1,0,0,1-.08-.22h3.49a1,1,0,0,1-.08.22l0,.06H14.55l0-.06Z"/><path id="path6984" class="cls-4" d="M18.33,365.17c0-.05,0-.07,0-.17l0-.09h3.4v0a1.14,1.14,0,0,1-.07.22l0,.05H18.35l0,0Z"/><path id="path4668-8" class="cls-5" d="M3.85,360.28l18.57,0v3.27l-.7,1.75-17.17-.05-.69-1.75Z"/><g id="g7034"><g id="g7036"><path id="path7038" class="cls-6" d="M8.13,368c-.19-.47-.45-1-.7-1.52l-.1-.2,0-.07c.07-.14.24-.42.34-.59l0-.06h1l0,.07c.08.14.3.52.35.62l0,0,0,.1a17.16,17.16,0,0,0-.77,1.69l0,.09H8.19L8.13,368Z"/><path id="path7040" class="cls-6" d="M17.94,367.83c-.2-.48-.45-1-.7-1.53l-.1-.19,0-.07c.07-.14.23-.42.33-.59l0-.06h1l0,.07c.08.14.3.52.35.62l0,0-.05.1a17.24,17.24,0,0,0-.78,1.69l0,.09H18l-.06-.16Z"/></g><path id="path7042" class="cls-7" d="M12.06,367.29l.33-.62.18-.33-.21-.39-.22-.39h-.38c-.32,0-.38,0-.38,0s0,0-.16,0-.16,0-.21.1l-.06.09.28.55c.16.29.37.72.47.94a3.14,3.14,0,0,0,.2.4l.16-.28Z"/><path id="path7044" class="cls-7" d="M14.33,367.27l-.33-.62-.19-.33.22-.39.22-.39h.37c.32,0,.38,0,.38,0s0,0,.16,0,.17,0,.22.1l0,.09-.28.55c-.16.29-.36.72-.46.94a3.14,3.14,0,0,1-.2.4,1.56,1.56,0,0,1-.16-.28Z"/><path id="path7046" class="cls-6" d="M10.82,371.53l.09-.42c.17-2.25.35-1.78,1.06-3.15a15.8,15.8,0,0,1,.76-1.52l.13-.24v-.63h.67v.64l.15.25c.15.27.56,1.09.66,1.31l.06.12a21,21,0,0,1,1.12,3.4,1.36,1.36,0,0,1,.05.22,14,14,0,0,1-2.38,0c-1.31,0-2.37,0-2.37,0Z"/></g><path id="path7054" class="cls-8" d="M3.84,116H22.49"/><path id="path7060" class="cls-8" d="M16.69,365.4h-1"/><path id="path7062" class="cls-8" d="M5.79,370.72H10.7"/><path id="path7064" class="cls-8" d="M7.73,365.4h1"/><path id="path7066" class="cls-8" d="M9.19,366.23c-.14-.28-.28-.56-.44-.83"/><path id="path7068" class="cls-8" d="M7.73,365.4c-.15.27-.3.55-.44.83"/><path id="path7070" class="cls-8" d="M11.12,365.4h.76"/><path id="path7072" class="cls-8" d="M12.62,366.33c-.14-.29-.29-.57-.44-.85"/><path id="path7074" class="cls-8" d="M11.12,365.4l-.24.42"/><path id="path7076" class="cls-8" d="M20.54,370.72H15.63"/><path id="path7078" class="cls-8" d="M18.59,365.4h-1"/><path id="path7080" class="cls-8" d="M17.57,365.4c-.15.27-.3.55-.44.83"/><path id="path7082" class="cls-8" d="M19,366.23c-.14-.28-.28-.56-.44-.83"/><path id="path7084" class="cls-8" d="M15.21,365.4h-.76"/><path id="path7086" class="cls-8" d="M11.88,365.4a1,1,0,0,0,.22-.68"/><path id="path7088" class="cls-8" d="M8.4,365.4h3.48"/><path id="path7090" class="cls-8" d="M14.23,364.72a1,1,0,0,0,.22.68"/><path id="path7092" class="cls-8" d="M17.92,365.4a1,1,0,0,0,.22-.68"/><path id="path7094" class="cls-8" d="M12.18,365.48h2"/><path id="path7096" class="cls-8" d="M11.37,365.4l.05.08"/><path id="path7098" class="cls-8" d="M14.9,365.48l.06-.08"/><path id="path7100" class="cls-8" d="M11.42,365.48H14.9"/><path id="path7102" class="cls-8" d="M14.2,365.48c-.16.28-.31.56-.45.85"/><path id="path7104" class="cls-8" d="M14.2,365.48c-.16.28-.31.56-.45.85"/><path id="path7106" class="cls-8" d="M15.47,365.78l-.21-.38"/><path id="path7108" class="cls-9" d="M22.49,68.38v242"/><path id="path7110" class="cls-8" d="M10.91,370.72c-.07.27-.13.55-.18.83h4.91c-.05-.28-.11-.56-.17-.83"/><path id="path7112" class="cls-8" d="M11.83,367.94a16,16,0,0,1,.85-1.71v-.75"/><path id="path7114" class="cls-8" d="M13.7,365.48v.75c.3.54.57,1.08.82,1.65"/><path id="path7116" class="cls-10" d="M8.24,368.54a16.59,16.59,0,0,0-1.39-3.14h-1a17.35,17.35,0,0,0-1.94,5.32H8.8"/><path id="path7118" class="cls-8" d="M18.08,365.1a1.08,1.08,0,0,0,.16.3h3.48a1,1,0,0,0,.22-.68"/><path id="path7120" class="cls-10" d="M17.53,370.72h4.91a17.11,17.11,0,0,0-2-5.32h-1a18,18,0,0,0-1.39,3.14"/><path id="path7122" class="cls-10" d="M9.63,365.4a17.37,17.37,0,0,0-2,5.32H12.6a17.11,17.11,0,0,0-1.95-5.32Z"/><path id="path7138" class="cls-9" d="M3.84,310.38v-242"/><path id="path7144" class="cls-8" d="M22.49,354.9v8.31a3.11,3.11,0,0,1-.49,1.51H4.33a2.91,2.91,0,0,1-.49-1.51V354.9"/><path id="path7171" class="cls-10" d="M16.69,365.4a17.11,17.11,0,0,1,1.95,5.32H13.73a17.11,17.11,0,0,1,1.95-5.32"/><path id="path7173" class="cls-8" d="M14.45,365.4h3.47"/><path id="path7175" class="cls-8" d="M4.39,364.72a1,1,0,0,0,.21.68H8.08a.87.87,0,0,0,.16-.3"/><path id="path7177" class="cls-8" d="M8.19,364.72a1,1,0,0,0,.21.68"/><path id="path7052" class="cls-8" d="M3.84,151.69H22.49"/><g id="g9568"><path id="path9570" class="cls-11" d="M14.57,238.29H10.7l-.14.1v3.45h1.07v-1.3l.1-.09h2.84c.72,0,1-.19,1-.68V239c0-.5-.33-.69-1-.69m0,1.27c0,.23-.15.28-.49.28H11.74l-.11-.11V239l.1-.09h2.35c.34,0,.49,0,.49.28v.38Z"/><polyline id="polyline9572" class="cls-11" points="12.33 246.11 13.25 247.46 13.2 247.59 11.16 247.59 10.64 248.23 13.68 248.23 13.89 248.36 14.36 249.01 15.58 249.01 12.9 245.42"/><g id="g9574"><polyline id="polyline9576" class="cls-11" points="11.76 264.04 11.76 263.09 11.87 262.99 13.92 262.99 13.92 262.38 10.67 262.38 10.67 264.74 15.46 264.74 15.46 264.14 11.87 264.14"/><rect id="rect9578" class="cls-11" x="10.67" y="261.19" width="4.84" height="0.67"/></g><path id="path9580" class="cls-11" d="M11.74,253.79h3.91c-.06-.49-.37-.63-1.15-.63H11.7c-.88,0-1.16.17-1.16.84v1.87c0,.67.28.84,1.16.84h2.8c.79,0,1.09-.15,1.11-.66H11.74l-.11-.11v-2.07"/><path id="path9582" class="cls-11" d="M14.53,231.49H11.69l-.08-.09v-.61l.08-.06h3.83l.05-.13c-.13-.33-.47-.49-1.09-.49H11.82c-.88,0-1.17.17-1.17.84v.39c0,.67.29.84,1.17.84h2.83l.09.08v.63l-.07.1H10.58s-.1,0-.1.07c.08.47.39.6,1.15.6h2.9c.88,0,1.17-.17,1.17-.84v-.49c0-.67-.29-.84-1.17-.84"/><path id="path9584" class="cls-11" d="M11.8,269.42H10.2l-.08.17,1.77,1.29c.33-.2.7-.4,1.09-.59"/><path id="path9586" class="cls-11" d="M13.22,271.85,14.78,273h1.61l.07-.16-2.32-1.69c-.31.22-.62.46-.92.71"/><path id="path9588" class="cls-12" d="M11.56,273H10.12l-.12-.19a20.2,20.2,0,0,1,11.28-5A18,18,0,0,0,11.56,273"/></g><g id="g12454"><g id="g12456"><rect id="rect12458" class="cls-13" x="8.54" y="174.09" width="9.2" height="5.17"/><path id="path12460" class="cls-14" d="M8.54,174.68h9.2m0,.8H8.54m0,.8h9.2m0,.79H8.54m0,.8h9.2m0,.79H8.54"/><rect id="rect12462" class="cls-15" x="8.54" y="174.09" width="3.68" height="2.78"/><g id="g12464"><g id="g12466"><g id="g12468"><g id="g12470"><g id="g12472"><path id="path12474" class="cls-16" d="M8.85,174.21l.09.29-.23-.18H9l-.23.18Z"/><g id="use12476"><path class="cls-16" d="M8.85,174.76l.09.29-.23-.18H9l-.23.18Z"/></g><g id="use12478"><path class="cls-16" d="M8.85,175.32l.09.29-.23-.18H9l-.23.18Z"/></g><g id="use12480"><path class="cls-16" d="M8.85,175.88l.09.29L8.71,176H9l-.23.18Z"/></g></g><g id="use12482"><path class="cls-16" d="M8.85,176.43l.09.29-.23-.18H9l-.23.18Z"/></g></g><g id="use12484"><path class="cls-16" d="M9.16,174.49l.09.28L9,174.6H9.3l-.23.17Z"/><path class="cls-16" d="M9.16,175l.09.29L9,175.15H9.3l-.23.18Z"/><path class="cls-16" d="M9.16,175.6l.09.29L9,175.71H9.3l-.23.18Z"/><path class="cls-16" d="M9.16,176.16l.09.28L9,176.27H9.3l-.23.17Z"/></g></g><g id="use12486"><path class="cls-16" d="M9.46,174.21l.09.29-.23-.18h.29l-.23.18Z"/><path class="cls-16" d="M9.46,174.76l.09.29-.23-.18h.29l-.23.18Z"/><path class="cls-16" d="M9.46,175.32l.09.29-.23-.18h.29l-.23.18Z"/><path class="cls-16" d="M9.46,175.88l.09.29L9.32,176h.29l-.23.18Z"/><path class="cls-16" d="M9.46,176.43l.09.29-.23-.18h.29l-.23.18Z"/><path class="cls-16" d="M9.77,174.49l.09.28-.23-.17h.28l-.23.17Z"/><path class="cls-16" d="M9.77,175l.09.29-.23-.18h.28l-.23.18Z"/><path class="cls-16" d="M9.77,175.6l.09.29-.23-.18h.28l-.23.18Z"/><path class="cls-16" d="M9.77,176.16l.09.28-.23-.17h.28l-.23.17Z"/></g></g><g id="use12488"><path class="cls-16" d="M10.08,174.21l.08.29-.22-.18h.28l-.23.18Z"/><path class="cls-16" d="M10.08,174.76l.08.29-.22-.18h.28l-.23.18Z"/><path class="cls-16" d="M10.08,175.32l.08.29-.22-.18h.28l-.23.18Z"/><path class="cls-16" d="M10.08,175.88l.08.29L9.94,176h.28l-.23.18Z"/><path class="cls-16" d="M10.08,176.43l.08.29-.22-.18h.28l-.23.18Z"/><path class="cls-16" d="M10.38,174.49l.09.28-.23-.17h.29l-.23.17Z"/><path class="cls-16" d="M10.38,175l.09.29-.23-.18h.29l-.23.18Z"/><path class="cls-16" d="M10.38,175.6l.09.29-.23-.18h.29l-.23.18Z"/><path class="cls-16" d="M10.38,176.16l.09.28-.23-.17h.29l-.23.17Z"/><path class="cls-16" d="M10.69,174.21l.09.29-.23-.18h.28l-.23.18Z"/><path class="cls-16" d="M10.69,174.76l.09.29-.23-.18h.28l-.23.18Z"/><path class="cls-16" d="M10.69,175.32l.09.29-.23-.18h.28l-.23.18Z"/><path class="cls-16" d="M10.69,175.88l.09.29-.23-.18h.28l-.23.18Z"/><path class="cls-16" d="M10.69,176.43l.09.29-.23-.18h.28l-.23.18Z"/><path class="cls-16" d="M11,174.49l.08.28-.22-.17h.28l-.23.17Z"/><path class="cls-16" d="M11,175l.08.29-.22-.18h.28l-.23.18Z"/><path class="cls-16" d="M11,175.6l.08.29-.22-.18h.28l-.23.18Z"/><path class="cls-16" d="M11,176.16l.08.28-.22-.17h.28l-.23.17Z"/></g><g id="use12490"><path class="cls-16" d="M11.3,174.21l.09.29-.23-.18h.29l-.23.18Z"/><path class="cls-16" d="M11.3,174.76l.09.29-.23-.18h.29l-.23.18Z"/><path class="cls-16" d="M11.3,175.32l.09.29-.23-.18h.29l-.23.18Z"/><path class="cls-16" d="M11.3,175.88l.09.29-.23-.18h.29l-.23.18Z"/><path class="cls-16" d="M11.3,176.43l.09.29-.23-.18h.29l-.23.18Z"/><path class="cls-16" d="M11.61,174.49l.09.28-.23-.17h.28l-.23.17Z"/><path class="cls-16" d="M11.61,175l.09.29-.23-.18h.28l-.23.18Z"/><path class="cls-16" d="M11.61,175.6l.09.29-.23-.18h.28l-.23.18Z"/><path class="cls-16" d="M11.61,176.16l.09.28-.23-.17h.28l-.23.17Z"/></g><g id="use12492"><path class="cls-16" d="M11.92,174.21l.08.29-.22-.18h.28l-.23.18Z"/><path class="cls-16" d="M11.92,174.76l.08.29-.22-.18h.28l-.23.18Z"/><path class="cls-16" d="M11.92,175.32l.08.29-.22-.18h.28l-.23.18Z"/><path class="cls-16" d="M11.92,175.88l.08.29-.22-.18h.28l-.23.18Z"/><path class="cls-16" d="M11.92,176.43l.08.29-.22-.18h.28l-.23.18Z"/></g></g></g><g id="g12494"><g id="g12496"><path id="path12498" class="cls-17" d="M10.49,166.35c.31-.16.62-.32.94-.45C7.76,164,7.56,162.51,6.8,161A8.73,8.73,0,0,0,10.49,166.35Z"/><path id="path12500" class="cls-17" d="M8.58,163.45a11.53,11.53,0,0,0,3.51,2.26c.88-.47,3.81-.73,3.75-.07a1.57,1.57,0,0,0-1.39,0,3.69,3.69,0,0,1,.81,0,.62.62,0,0,1-.19.14,2.18,2.18,0,0,1,.65.23.38.38,0,0,1,.24,0,.84.84,0,0,0-.35.3c.82,0,1.68,0,1.78.87.25-.76-.21-1.15-1.1-1.32a4.74,4.74,0,0,0-.49-.74C13.35,165,10.91,164.8,8.58,163.45Z"/></g><path id="path12502" class="cls-18" d="M6.66,169.37v-1.48h1a.31.31,0,0,1-.16.13H6.87v.39h.56a.2.2,0,0,1-.13.11H6.87v.53a.66.66,0,0,1-.21.32Z"/><path id="path12504" class="cls-18" d="M9.33,168v1.08h.29v-1a.78.78,0,0,0-1.15,0v1h.26v-.6h.2a.21.21,0,0,0,.1-.08h-.3V168a.46.46,0,0,1,.6,0Z"/><path id="path12506" class="cls-18" d="M12.27,169.16H11.13v-1.25h.29v1.15h1S12.36,169.15,12.27,169.16Z"/><path id="path12508" class="cls-18" d="M14,167.89v.24c-.46.62.32,1.37,1.2.82h.07c-.55.62-2.54.12-1.27-1.05Z"/><path id="path12510" class="cls-18" d="M13.38,167.92v.45c.44-.79,1-1.18,2.91-.66C14.5,167,13.84,167.38,13.38,167.92Z"/><path id="path12512" class="cls-18" d="M16.85,167.79a.71.71,0,0,0-.75.73.75.75,0,0,0,1.49,0A.69.69,0,0,0,16.85,167.79Zm0,.1c.22,0,.45.2.45.63,0,.84-.88.82-.88,0C16.4,168.1,16.62,167.89,16.84,167.89Z"/><path id="path12514" class="cls-18" d="M19,168v1.13h-.22V168l.22-.11v.05a.81.81,0,0,1,.65.24v1h-.22v-1c-.08-.13-.17-.16-.43-.16Z"/><path id="path12516" class="cls-18" d="M13.16,170c-2.3,0-1.7,1.85-.43,1.81a1.14,1.14,0,0,0,1.1-.5c-.25,1.24-1.09,1.24-2.11,1.34a.69.69,0,0,0-.24.24c1.73,0,3.17-.34,3.13-1.68C14.58,170.31,14,170,13.16,170Zm0,.22a.7.7,0,0,1,.76.6h0a.69.69,0,0,1-.76.59.69.69,0,0,1-.76-.59A.7.7,0,0,1,13.13,170.26Z"/></g></g><path id="path9116" class="cls-19" d="M22.48,152l1.28,2.21v21.3L23.23,179V355.41l-1,3.68v-33.5l-.5-1.62v-2.88l.47-1.76V303.41l-.55-2.06v-4.13l.45-2.13V185l-.44-2.44v-30.5Z"/><path id="path7050" class="cls-8" d="M3.84,360.33H22.49"/><path id="path7659" class="cls-8" d="M3.84,346.33H22.49"/><g id="g8452"><rect id="rect6974" class="cls-20" x="3.27" y="360.72" width="0.48" height="0.45"/><path id="path7026" class="cls-21" d="M6.19,306.1H6l-.06,0-.06,0-.06,0-.07,0-.06.05-.06.05-.07.06-.06.07-.07.07-.07.09-.07.09-.07.1-.07.11-.07.12-.08.12-.07.14-.08.14-.07.16-.08.15-.07.17-.08.16-.07.17-.08.17-.07.18-.07.17-.06.17-.07.17-.06.17,0,.17-.06.16-.05.17,0,.16,0,.17,0,.17,0,.17,0,.14v0l0,.07,0,.08-.05.15,0,.14,0,.15,0,.14,0,.14,0,.13,0,.14,0,.14,0,.13,0,.14,0,.14,0,.15,0,.15v.07l0,.08v.08l0,.08V313l0,.09v.08l0,.09v.09l0,.09v0H3V314l-.06,1.8-.24,7.22-.48,14.42-.49,14.43-.24,7.21v.17h0v.07l0,.09,0,.1,0,.09,0,.09,0,.1,0,.09,0,.1,0,.09,0,.09,0,.09,0,.09.06.1.05.09.06.08.07.09.07.09,0,0,0,.05,0,0,0,0,.05,0,0,0,0,0,.05,0,0,0,0,0,.05,0,.06,0,0,0,.06,0,.06,0,.07,0,.06,0h.13v0h0v-.18l0-.26,0-.26,0-.26,0-.26,0-.27,0-.27,0-.27,0-.27,0-.27,0-.28.06-.55.05-.56.06-.56.06-.56.12-1.13.06-.56.06-.56.06-.55,0-.28,0-.27,0-.27,0-.27,0-.27,0-.27,0-.26,0-.27,0-.26,0-.25,0-.26,0-.25,0-.25,0-.24,0-.25,0-.24,0-.23,0-.23,0-.23,0-.22,0-.22,0-.22,0-.14.08-.15.1-.17.14-.16.16-.15.18-.14.2-.11.21-.08.23-.05h.23l.24.06.24.11.41,1,.42,1.17L8,350.49l.43,1.16.42,1.17L9.31,354l.43,1.17.42,1.17.42,1.16.43,1.17.42,1.17.42,1.16.11.28,0,0,0,0,0,0,0,0,0,0,0,0,0,0,0,0,0,0h0l0,0h.4l.06,0,0,0,.05-.07,0-.1.05-.11,0-.13,0-.14,0-.15,0-.16,0-.16,0-.16-.19-1.82-.45-3.82L12,350.84,11.57,347l-.45-3.82-.44-3.81-.45-3.82-.45-3.81L9.33,328l-.45-3.81-.45-3.82L8,316.51l-.29-2.59v-3.07l0-.49,0-.44,0-.4,0-.36,0-.32,0-.29,0-.27,0-.23,0-.21,0-.18,0-.18,0-.15,0-.15,0-.13,0-.12,0-.11,0-.1-.05-.1,0-.08,0-.07,0-.07,0-.06-.05,0-.06-.05,0,0-.06,0,0,0-.06,0-.05,0H6.19Z"/><path id="path8389" class="cls-22" d="M3.12,361.55l.68-6.29.18-2,.6-4.63.1-.64L5,347.5l.42-.38.42-.18.44-.05.29.05.27.2,5.09,14.12.3.27.34.06v-.23L4.88,340.69l-.37-.43L4.1,340l-.42.11-.17.51L1.9,360.53l.39.5.39.36Z"/><path id="path7126" class="cls-8" d="M7.67,311l-1.23-1.31"/><path id="path7128" class="cls-8" d="M6.44,309.65H4"/><path id="path7130" class="cls-8" d="M3.92,340l.17-24.12"/><path id="path7132" class="cls-8" d="M4.09,315.9,6.25,313"/><path id="path7134" class="cls-8" d="M4.09,315.9l-1-2.68"/><path id="path7136" class="cls-23" d="M6.25,313l.19-3.32"/><path id="path7140" class="cls-8" d="M3.23,360.64h.61"/><path id="path7142" class="cls-8" d="M3.15,361.3h.69"/><path id="path7150" class="cls-8" d="M1.91,360.55l.12-1.5.11-1.51.12-1.5.12-1.5L2.5,353l.12-1.5.12-1.5.11-1.51L3,347l.12-1.5.12-1.5.12-1.5.12-1.5,0-.48,0-.12,0-.1,0-.09.05-.07.06-.06,0,0,.07,0,.06,0h.19l.07,0,.06,0,.07,0,.06,0,.06.05.06,0,0,.06.06.05,0,.06,0,.06.05.06,0,.06,0,.07,0,.06.18.44.58,1.57.58,1.57.59,1.57.58,1.57L8,349l.58,1.57.59,1.57.58,1.57.58,1.57.58,1.56.59,1.57L12,360l.58,1.57"/><path id="path8391" class="cls-8" d="M6.19,306.1H6l-.06,0-.06,0-.06,0-.07,0-.06.05-.06.05-.07.06-.06.07-.07.07-.07.09-.07.09-.07.1-.07.11-.07.12-.08.12-.07.14-.08.14-.07.16-.08.15-.07.17-.08.16-.07.17-.08.17-.07.18-.07.17-.06.17-.07.17-.06.17,0,.17-.06.16-.05.17,0,.16,0,.17,0,.17,0,.17,0,.14v0l0,.07,0,.08-.05.15,0,.14,0,.15,0,.14,0,.14,0,.13,0,.14,0,.14,0,.13,0,.14,0,.14,0,.15,0,.15v.07l0,.08v.08l0,.08V313l0,.09v.08l0,.09v.09l0,.09v0H3V314l-.06,1.8-.24,7.22-.48,14.42-.49,14.43-.24,7.21v.17h0v.07l0,.09,0,.1,0,.09,0,.09,0,.1,0,.09,0,.1,0,.09,0,.09,0,.09,0,.09.06.1.05.09.06.08.07.09.07.09,0,0,0,.05,0,0,0,0,.05,0,0,0,0,0,.05,0,0,0,0,0,.05,0,.06,0,0,0,.06,0,.06,0,.07,0,.06,0h.13v0h0v-.18l0-.26,0-.26,0-.26,0-.26,0-.27,0-.27,0-.27,0-.27,0-.27,0-.28.06-.55.05-.56.06-.56.06-.56.12-1.13.06-.56.06-.56.06-.55,0-.28,0-.27,0-.27,0-.27,0-.27,0-.27,0-.26,0-.27,0-.26,0-.25,0-.26,0-.25,0-.25,0-.24,0-.25,0-.24,0-.23,0-.23,0-.23,0-.22,0-.22,0-.22,0-.14.08-.15.1-.17.14-.16.16-.15.18-.14.2-.11.21-.08.23-.05h.23l.24.06.24.11.41,1,.42,1.17L8,350.49l.43,1.16.42,1.17L9.31,354l.43,1.17.42,1.17.42,1.16.43,1.17.42,1.17.42,1.16.11.28,0,0,0,0,0,0,0,0,0,0,0,0,0,0,0,0,0,0h0l0,0h.4l.06,0,0,0,.05-.07,0-.1.05-.11,0-.13,0-.14,0-.15,0-.16,0-.16,0-.16-.19-1.82-.45-3.82L12,350.84,11.57,347l-.45-3.82-.44-3.81-.45-3.82-.45-3.81L9.33,328l-.45-3.81-.45-3.82L8,316.51l-.29-2.59v-3.07l0-.49,0-.44,0-.4,0-.36,0-.32,0-.29,0-.27,0-.23,0-.21,0-.18,0-.18,0-.15,0-.15,0-.13,0-.12,0-.11,0-.1-.05-.1,0-.08,0-.07,0-.07,0-.06-.05,0-.06-.05,0,0-.06,0,0,0-.06,0-.05,0H6.19Z"/></g><g id="g8480"><rect id="rect8454" class="cls-20" x="22.58" y="360.72" width="0.48" height="0.45"/><path id="path8456" class="cls-24" d="M20.14,306.1h.18l.06,0,.06,0,.06,0,.06,0,.06.05.07.05.06.06.07.07.07.07.06.09.07.09.07.1.08.11.07.12.07.12.08.14.07.14.08.16.07.15.08.17.08.16.07.17.07.17.07.18.07.17.07.17.06.17.06.17.06.17.05.16,0,.17.05.16,0,.17,0,.17,0,.17,0,.14v0l0,.07,0,.08.05.15.05.14,0,.15,0,.14,0,.14,0,.13,0,.14,0,.14,0,.13,0,.14,0,.14,0,.15,0,.15v.15l0,.08V313l0,.08v.09l0,.08v.09l0,.09v.14h0v0l0,.45.06,1.8.24,7.22.48,14.42.48,14.43.24,7.21v.17h0v.16l0,.1,0,.09,0,.09,0,.1,0,.09,0,.1,0,.09,0,.09,0,.09-.05.09-.05.1-.05.09-.06.08-.07.09-.07.09,0,0,0,.05,0,0,0,0,0,0-.05,0,0,0-.05,0-.05,0,0,0-.06,0-.05,0-.06,0-.06,0-.06,0-.06,0-.07,0h-.13v0h0v-.05l0-.13,0-.26,0-.26,0-.26,0-.26,0-.27,0-.27,0-.27,0-.27,0-.27,0-.28-.06-.55-.06-.56L22.7,357l-.06-.56-.12-1.13-.06-.56-.06-.56-.06-.55,0-.28,0-.27,0-.27,0-.27,0-.27,0-.27,0-.26,0-.27,0-.26,0-.25,0-.26,0-.25,0-.25,0-.24,0-.25,0-.24,0-.23,0-.23,0-.23,0-.22,0-.22,0-.22-.05-.14-.08-.15-.11-.17-.13-.16-.16-.15-.19-.14-.19-.11-.22-.08-.22-.05H20l-.24.06-.24.11-.4,1-.43,1.17-.42,1.17-.42,1.16-.42,1.17L17,354l-.42,1.17-.42,1.17-.43,1.16-.42,1.17-.42,1.17L14.47,361l-.1.28,0,0,0,0,0,0,0,0,0,0,0,0,0,0,0,0,0,0h0l0,0h-.4l-.05,0,0,0-.05-.07,0-.1-.05-.11,0-.13,0-.14,0-.15,0-.16,0-.16,0-.16.19-1.82.45-3.82.45-3.82.45-3.81.45-3.82.45-3.81.45-3.82.45-3.81L17,328l.44-3.81.45-3.82.45-3.81.3-2.59v-3.07l0-.49,0-.44,0-.4,0-.36,0-.32,0-.29,0-.27,0-.23,0-.21,0-.18.05-.18,0-.15.05-.15.05-.13,0-.12.05-.11.05-.1.05-.1,0-.08,0-.07.06-.07.05-.06.05,0,0-.05.06,0,.05,0,.06,0,.05,0,.06,0h.12Z"/><path id="path8458" class="cls-25" d="M23.21,361.55l-.69-6.29-.17-2-.61-4.63-.09-.64-.33-.53-.42-.38-.42-.18-.44-.05-.3.05-.26.2-5.1,14.12-.29.27-.35.06,0-.23,7.68-20.67.38-.43.41-.26.42.11.17.51,1.61,19.91L24,361l-.39.36Z"/><path id="path8460" class="cls-8" d="M18.66,311l1.23-1.31"/><path id="path8462" class="cls-8" d="M19.89,309.65h2.43"/><path id="path8464" class="cls-8" d="M22.41,340l-.17-24.12"/><path id="path8466" class="cls-8" d="M22.24,315.9,20.07,313"/><path id="path8468" class="cls-8" d="M22.24,315.9l1-2.68"/><path id="path8470" class="cls-23" d="M20.07,313l-.18-3.32"/><path id="path8472" class="cls-8" d="M23.1,360.64h-.61"/><path id="path8474" class="cls-8" d="M23.18,361.3h-.69"/><path id="path8476" class="cls-8" d="M24.42,360.55l-.12-1.5-.12-1.51-.12-1.5-.12-1.5-.11-1.5-.12-1.5-.12-1.5-.12-1.51-.12-1.5-.12-1.5-.11-1.5-.12-1.5-.12-1.5-.05-.48,0-.12,0-.1-.05-.09-.05-.07-.05-.06-.06,0-.06,0-.06,0h-.2l-.06,0-.07,0-.06,0-.06,0-.06.05-.06,0-.06.06-.05.05-.06.06-.05.06-.05.06,0,.06-.05.07,0,.06-.18.44-.58,1.57-.59,1.57-.58,1.57L19,347.42,18.37,349l-.59,1.57-.58,1.57-.58,1.57L16,355.27l-.58,1.56-.58,1.57L14.29,360l-.59,1.57"/><path id="path8478" class="cls-8" d="M20.14,306.1h.18l.06,0,.06,0,.06,0,.06,0,.06.05.07.05.06.06.07.07.07.07.06.09.07.09.07.1.08.11.07.12.07.12.08.14.07.14.08.16.07.15.08.17.08.16.07.17.07.17.07.18.07.17.07.17.06.17.06.17.06.17.05.16,0,.17.05.16,0,.17,0,.17,0,.17,0,.14v0l0,.07,0,.08.05.15.05.14,0,.15,0,.14,0,.14,0,.13,0,.14,0,.14,0,.13,0,.14,0,.14,0,.15,0,.15v.15l0,.08V313l0,.08v.09l0,.08v.09l0,.09v.14h0v0l0,.45.06,1.8.24,7.22.48,14.42.48,14.43.24,7.21v.17h0v.16l0,.1,0,.09,0,.09,0,.1,0,.09,0,.1,0,.09,0,.09,0,.09-.05.09-.05.1-.05.09-.06.08-.07.09-.07.09,0,0,0,.05,0,0,0,0,0,0-.05,0,0,0-.05,0-.05,0,0,0-.06,0-.05,0-.06,0-.06,0-.06,0-.06,0-.07,0h-.13v0h0v-.05l0-.13,0-.26,0-.26,0-.26,0-.26,0-.27,0-.27,0-.27,0-.27,0-.27,0-.28-.06-.55-.06-.56L22.7,357l-.06-.56-.12-1.13-.06-.56-.06-.56-.06-.55,0-.28,0-.27,0-.27,0-.27,0-.27,0-.27,0-.26,0-.27,0-.26,0-.25,0-.26,0-.25,0-.25,0-.24,0-.25,0-.24,0-.23,0-.23,0-.23,0-.22,0-.22,0-.22-.05-.14-.08-.15-.11-.17-.13-.16-.16-.15-.19-.14-.19-.11-.22-.08-.22-.05H20l-.24.06-.24.11-.4,1-.43,1.17-.42,1.17-.42,1.16-.42,1.17L17,354l-.42,1.17-.42,1.17-.43,1.16-.42,1.17-.42,1.17L14.47,361l-.1.28,0,0,0,0,0,0,0,0,0,0,0,0,0,0,0,0,0,0h0l0,0h-.4l-.05,0,0,0-.05-.07,0-.1-.05-.11,0-.13,0-.14,0-.15,0-.16,0-.16,0-.16.19-1.82.45-3.82.45-3.82.45-3.81.45-3.82.45-3.81.45-3.82.45-3.81L17,328l.44-3.81.45-3.82.45-3.81.3-2.59v-3.07l0-.49,0-.44,0-.4,0-.36,0-.32,0-.29,0-.27,0-.23,0-.21,0-.18.05-.18,0-.15.05-.15.05-.13,0-.12.05-.11.05-.1.05-.1,0-.08,0-.07.06-.07.05-.06.05,0,0-.05.06,0,.05,0,.06,0,.05,0,.06,0h.12Z"/></g><g id="g8572"><g id="g7006"><g id="g7008"><path id="path7010" class="cls-26" d="M.39,61C.32,60,.3,51.12.34,41.3.41,21.89.4,22.14,1.46,17.18A28.82,28.82,0,0,1,8.9,2.87C10.45,1.21,11.68.38,12.63.38H13V62.78H.51L.39,61Z"/><path id="path7012" class="cls-27" d="M3.88,69.27c-.09-.12-.75-1.29-1.46-2.6S1,64,.79,63.7l-.35-.57H13v6.36H8.54c-3.38,0-4.53,0-4.66-.22Z"/></g><g id="g7014"><path id="path7016" class="cls-28" d="M26,61c.06-1,.08-9.84.05-19.66C26,21.89,26,22.14,24.91,17.18A28.73,28.73,0,0,0,17.48,2.87Q15.16.38,13.75.38h-.4V62.78H25.87L26,61Z"/><path id="path7018" class="cls-29" d="M22.5,69.27c.09-.12.75-1.29,1.46-2.6s1.44-2.65,1.63-3l.34-.57H13.35v6.36h4.49c3.38,0,4.53,0,4.66-.22Z"/></g></g><path id="path7048" class="cls-8" d="M3.84,69.61H22.49"/><path id="path7056" class="cls-8" d="M.2,62.93H26.13"/><path id="path7058" class="cls-8" d="M3.84,69.61l-.39-.71-.39-.72-.39-.71-.39-.72L1.89,66l-.39-.71-.38-.72L.73,63.9l-.39-.71L.2,60.32V25.09l.05-.53,0-.53.06-.53,0-.53.06-.53.06-.53.06-.53.07-.53.07-.53.08-.53.08-.53L1,18.73l.1-.53.1-.53.11-.53.11-.52.12-.53.13-.52.14-.51L2,14.54,2.1,14l.16-.51L2.43,13l.18-.5L2.8,12l.2-.49L3.2,11l.22-.48.22-.48.24-.47.24-.46.25-.46.27-.46.27-.45.28-.45.29-.44.3-.44L6.08,6l.32-.43.32-.43.34-.43.34-.43.35-.42.35-.42L8.47,3l.37-.41.39-.41.39-.4L10,1.44l.43-.33.44-.3.46-.24.49-.19.51-.11L12.9.2h.57L14,.27l.51.11L15,.57l.46.24.45.29.42.34.41.37.39.39.39.41L17.9,3l.37.42.36.42.34.42.35.42.33.43.32.43.32.44.3.43.3.44.29.45.28.45.27.45.27.45.25.46.24.47.24.47.23.47.21.49.21.48.2.49.19.5L24,13l.17.5.16.51.15.51.15.52.14.52.13.52.12.52.12.53.11.52.1.53.09.53.09.53.08.53.07.53.07.53.07.53.06.53.05.53.05.53.05.53L26,24l.05.53,0,.53,0,3V60.32L26,63.19l-.39.71-.39.71-.39.72-.39.71-.39.71-.39.72-.39.71-.38.72-.39.71"/><path id="path7124" class="cls-8" d="M13.16,69.61V.2"/></g><g id="g5116"><g id="g4962"><path id="path4347" class="cls-30" d="M20.52,146.38l.82.39.22.89-.58.74-1.07.06-.61-.68.15-.84.44-.5Z"/><path id="path4343" class="cls-31" d="M18.76,148.55l-.53-.07-1.3,1.59,0,.93-.16.78.2.84-.18.93.12.77-.14.69.2.68-.18.82.08.55-.06.82.65.2,0-7.92Z"/><path id="path4345" class="cls-32" d="M17.42,158.13l5.87,0v-7.95l-1.72-2.59-.69,1-.91.05-.36-.35-.56-.27-.28.66-1.35,1.53Z"/><path id="path4275" class="cls-33" d="M17.46,150.17V158h5.79l-5.79-7.87,1.3-1.62.39-1"/><path id="path4277" class="cls-33" d="M17.47,152,22,158"/><path id="path4279" class="cls-33" d="M20.8,158l-3.34-4.41"/><path id="path4281" class="cls-33" d="M19.71,158l-2.25-2.74"/><path id="path4283" class="cls-33" d="M18.51,158l-1.05-1.33"/><path id="path4285" class="cls-33" d="M23.25,158v-7.9l-1.14-1.72"/><path id="path4287" class="cls-33" d="M17.48,158l5.75-7.89"/><path id="path4289" class="cls-33" d="M23.25,152l-4.52,6"/><path id="path4291" class="cls-33" d="M19.88,158l3.34-4.41"/><path id="path4293" class="cls-33" d="M21,158l2.23-2.72"/><path id="path4295" class="cls-33" d="M19.71,158l-2.25-2.74"/><path id="path4297" class="cls-33" d="M22.18,158l1.06-1.33"/><path id="path4299" class="cls-33" d="M17.48,156.54l5.21-7.26"/><path id="path4301" class="cls-33" d="M17.45,155l4.12-5.86"/><path id="path4303" class="cls-33" d="M23.25,156.5l-5.13-7.14"/><path id="path4305" class="cls-33" d="M23.25,154.94l-4-5.67"/><path id="path4307" class="cls-33" d="M17.44,153.37l2.94-4.19,1.24-1.51"/><path id="path4309" class="cls-33" d="M23.27,153.37l-2.89-4.22-1.25-1.62"/><path id="path4311" class="cls-33" d="M17.46,151.78l1.8-2.5"/><path id="path4313" class="cls-33" d="M23.23,151.75l-1.66-2.58"/><path id="path4317" class="cls-34" d="M22.14,148.45H21.9l-.32.73.08-.78,0-.74Z"/><path id="path4319" class="cls-34" d="M18.76,148.54l.19,0,.32.72-.11-.88v-.84Z"/><path id="path4321" class="cls-34" d="M20.34,147.62v.71l-.12,0-.24.23.42.56.52-.5-.22-.27-.13,0v-.73Z"/><path id="path4323" class="cls-33" d="M20,148.62l-.74.08"/><path id="path4325" class="cls-33" d="M20.94,148.62l.7.07"/><path id="path4327" class="cls-33" d="M18.8,148.51l-.57,0a1.67,1.67,0,0,1-.23.44,2.1,2.1,0,0,1-.52.28.91.91,0,0,1-.09.43,2.21,2.21,0,0,1-.53.41,3.57,3.57,0,0,1,.12.82,4.16,4.16,0,0,1-.26.82,3,3,0,0,1,.25.85,2.86,2.86,0,0,1-.24.79,4.62,4.62,0,0,1,.19.91,3,3,0,0,1-.16.79,2.88,2.88,0,0,1,.21.8,2.61,2.61,0,0,1-.25.72,2.49,2.49,0,0,1,.19.71,1.87,1.87,0,0,1-.19.61l.72.21"/><path id="path4329" class="cls-33" d="M16.87,150l.54.12"/><path id="path4331" class="cls-33" d="M18.11,149.4,18,151"/><path id="path4333" class="cls-33" d="M19.25,149.34l-.07,1.45"/><path id="path4335" class="cls-33" d="M21.56,149.25l0,1.54"/><path id="path4337" class="cls-33" d="M22.69,149.32v1.57"/><path id="path4923" class="cls-35" d="M18.87,147.61l.48,0,.08-.56.33-.47.59-.17.42-.06-.48-.36h-.74l-.5.4-.18.68Z"/><path id="path4341" class="cls-33" d="M21,146.44a5,5,0,0,0-.65-.42,1.59,1.59,0,0,0-.61-.06,1,1,0,0,0-.51.2,1,1,0,0,0-.26.44,2.2,2.2,0,0,0-.1.57c0,.19,0,.56,0,.56l.46.42"/><path id="path4339" class="cls-33" d="M19.34,147.53a2.43,2.43,0,0,1,.08-.51,1.13,1.13,0,0,1,.43-.53,1.25,1.25,0,0,1,.55-.09,1.4,1.4,0,0,1,.54,0,1,1,0,0,1,.43.31,1.09,1.09,0,0,1,.12.36c0,.18.08.55.08.55"/></g><g id="g5038"><path id="path4964" class="cls-30" d="M5.79,146.38l-.82.39-.22.89.57.74,1.08.06.61-.68-.16-.84-.43-.5Z"/><path id="path4966" class="cls-31" d="M7.55,148.55l.52-.07,1.3,1.59,0,.93.16.78-.2.84.18.93-.12.77.14.69-.2.68.18.82-.08.55.06.82-.65.2,0-7.92Z"/><path id="path4968" class="cls-32" d="M8.88,158.13,3,158.1v-7.95l1.71-2.59.69,1,.91.05.37-.35.55-.27.29.66,1.34,1.53Z"/><path id="path4970" class="cls-33" d="M8.84,150.17V158H3.05l5.79-7.87-1.3-1.62-.38-1"/><path id="path4972" class="cls-33" d="M8.84,152l-4.53,6"/><path id="path4974" class="cls-33" d="M5.5,158l3.34-4.41"/><path id="path4976" class="cls-33" d="M6.6,158l2.24-2.74"/><path id="path4978" class="cls-33" d="M7.79,158l1-1.33"/><path id="path4980" class="cls-33" d="M3.05,158v-7.9L4.2,148.4"/><path id="path4982" class="cls-33" d="M8.83,158l-5.76-7.89"/><path id="path4984" class="cls-33" d="M3.05,152l4.53,6"/><path id="path4986" class="cls-33" d="M6.43,158l-3.34-4.41"/><path id="path4988" class="cls-33" d="M5.29,158l-2.23-2.72"/><path id="path4990" class="cls-33" d="M6.6,158l2.24-2.74"/><path id="path4992" class="cls-33" d="M4.12,158l-1.05-1.33"/><path id="path4994" class="cls-33" d="M8.83,156.54l-5.21-7.26"/><path id="path4996" class="cls-33" d="M8.86,155l-4.12-5.86"/><path id="path4998" class="cls-33" d="M3.06,156.5l5.13-7.14"/><path id="path5000" class="cls-33" d="M3.06,154.94l4-5.67"/><path id="path5002" class="cls-33" d="M8.86,153.37l-2.93-4.19-1.25-1.51"/><path id="path5004" class="cls-33" d="M3,153.37l2.89-4.22,1.25-1.62"/><path id="path5006" class="cls-33" d="M8.84,151.78,7,149.28"/><path id="path5008" class="cls-33" d="M3.08,151.75l1.65-2.58"/><path id="path5010" class="cls-34" d="M4.16,148.45H4.4l.33.73-.09-.78,0-.74Z"/><path id="path5012" class="cls-34" d="M7.55,148.54l-.2,0-.31.72.11-.88v-.84Z"/><path id="path5014" class="cls-34" d="M6,147.62v.71l.13,0,.24.23-.42.56-.53-.5.23-.27.12,0v-.73Z"/><path id="path5016" class="cls-33" d="M6.35,148.62l.74.08"/><path id="path5018" class="cls-33" d="M5.37,148.62l-.7.07"/><path id="path5020" class="cls-33" d="M7.51,148.51l.56,0a1.51,1.51,0,0,0,.24.44,1.93,1.93,0,0,0,.51.28,1,1,0,0,0,.1.43,2,2,0,0,0,.52.41,3.76,3.76,0,0,0-.11.82,3.71,3.71,0,0,0,.25.82,3.13,3.13,0,0,0-.24.85,2.62,2.62,0,0,0,.23.79,4.62,4.62,0,0,0-.19.91,3.51,3.51,0,0,0,.16.79,3,3,0,0,0-.2.8,2.38,2.38,0,0,0,.24.72,2.89,2.89,0,0,0-.19.71,2.17,2.17,0,0,0,.19.61l-.72.21"/><path id="path5022" class="cls-33" d="M9.43,150l-.54.12"/><path id="path5024" class="cls-33" d="M8.2,149.4,8.27,151"/><path id="path5026" class="cls-33" d="M7.05,149.34l.07,1.45"/><path id="path5028" class="cls-33" d="M4.75,149.25v1.54"/><path id="path5030" class="cls-33" d="M3.62,149.32v1.57"/><path id="path5032" class="cls-35" d="M7.44,147.61l-.49,0L6.88,147l-.33-.47-.6-.17-.42-.06L6,146h.73l.5.4.19.68Z"/><path id="path5034" class="cls-33" d="M5.32,146.44A4.35,4.35,0,0,1,6,146a1.59,1.59,0,0,1,.61-.06.89.89,0,0,1,.5.2,1.05,1.05,0,0,1,.27.44,2.72,2.72,0,0,1,.1.57c0,.19,0,.56,0,.56l-.47.42"/><path id="path5036" class="cls-33" d="M7,147.53a1.89,1.89,0,0,0-.08-.51,1.11,1.11,0,0,0-.42-.53,1.28,1.28,0,0,0-.55-.09,1.45,1.45,0,0,0-.55,0,1,1,0,0,0-.42.31.9.9,0,0,0-.12.36,4.79,4.79,0,0,0-.09.55"/></g></g></g></g></g></svg>