<svg xmlns="http://www.w3.org/2000/svg" xmlns:xlink="http://www.w3.org/1999/xlink" viewBox="0 0 66.22 371.74"><defs><style>.cls-1,.cls-48,.cls-49,.cls-50{fill:#242424;}.cls-11,.cls-12,.cls-16,.cls-2,.cls-22,.cls-29,.cls-38,.cls-39,.cls-51{fill:none;}.cls-10,.cls-11,.cls-12,.cls-16,.cls-17,.cls-2,.cls-22,.cls-29,.cls-38,.cls-39,.cls-48,.cls-49,.cls-50,.cls-51,.cls-52,.cls-53,.cls-63{stroke:#000;}.cls-10,.cls-2,.cls-22,.cls-8{stroke-width:0.4px;}.cls-3{fill:url(#radial-gradient);}.cls-4{fill:url(#linear-gradient);}.cls-5{fill:url(#linear-gradient-2);}.cls-6{fill:#f7f7f7;}.cls-7{fill:url(#linear-gradient-3);}.cls-10,.cls-8,.cls-9{fill:#333;}.cls-8,.cls-9{stroke:#fff;stroke-opacity:0;}.cls-16,.cls-17,.cls-22,.cls-48,.cls-49,.cls-50,.cls-51,.cls-52,.cls-53,.cls-63,.cls-8,.cls-9{stroke-linecap:round;}.cls-16,.cls-17,.cls-48,.cls-49,.cls-50,.cls-51,.cls-52,.cls-53,.cls-63,.cls-8,.cls-9{stroke-linejoin:round;}.cls-9{stroke-width:0.4px;}.cls-11{stroke-width:0.32px;}.cls-12{stroke-width:0.32px;}.cls-13{fill:#1a1a1a;}.cls-13,.cls-14,.cls-15,.cls-17,.cls-18,.cls-21,.cls-24,.cls-31,.cls-33,.cls-41,.cls-43,.cls-48,.cls-49,.cls-52,.cls-53,.cls-56,.cls-57,.cls-63{fill-rule:evenodd;}.cls-14,.cls-17{fill:#474747;}.cls-15{fill:#999;}.cls-16,.cls-17{stroke-width:0.38px;}.cls-18{fill:#4d4d4d;}.cls-19{fill:#101010;}.cls-20{fill:url(#linear-gradient-4);}.cls-21{fill:url(#linear-gradient-5);}.cls-23{fill:url(#linear-gradient-6);}.cls-24{fill:url(#linear-gradient-7);}.cls-25{fill:url(#radial-gradient-2);}.cls-26{fill:url(#linear-gradient-8);}.cls-27{fill:url(#linear-gradient-9);}.cls-28{fill:url(#linear-gradient-10);}.cls-29{stroke-width:0.32px;}.cls-30{fill:url(#linear-gradient-11);}.cls-31{fill:url(#linear-gradient-12);}.cls-32{fill:url(#linear-gradient-13);}.cls-33{fill:url(#linear-gradient-14);}.cls-34{fill:url(#linear-gradient-15);}.cls-35{fill:url(#linear-gradient-16);}.cls-36{fill:url(#linear-gradient-17);}.cls-37{fill:url(#linear-gradient-18);}.cls-38{stroke-width:0.4px;}.cls-39{stroke-width:0.4px;}.cls-40{fill:url(#linear-gradient-19);}.cls-41{fill:url(#linear-gradient-20);}.cls-42{fill:url(#linear-gradient-21);}.cls-43{fill:url(#linear-gradient-22);}.cls-44{fill:url(#linear-gradient-23);}.cls-45{fill:url(#linear-gradient-24);}.cls-46{fill:url(#linear-gradient-25);}.cls-47{fill:url(#linear-gradient-26);}.cls-48{stroke-width:0.2px;}.cls-49,.cls-51,.cls-52,.cls-53,.cls-63{stroke-width:0.3px;}.cls-50{stroke-width:0.3px;}.cls-52{fill:url(#linear-gradient-27);}.cls-53{fill:url(#linear-gradient-28);}.cls-54{fill:#005288;}.cls-55{fill:#a7a9ac;}.cls-56{fill:#a80126;}.cls-58,.cls-59{isolation:isolate;}.cls-59{font-size:0.91px;font-family:LiberationSansNarrow, Liberation Sans Narrow;letter-spacing:0.12em;}.cls-60{letter-spacing:0.16em;}.cls-61{letter-spacing:0.1em;}.cls-62{letter-spacing:0.15em;}.cls-63{fill:url(#linear-gradient-29);}</style><radialGradient id="radial-gradient" cx="-281.69" cy="-179.47" r="9.28" gradientTransform="matrix(0, -2.39, -1.05, 0, -134.23, -521.08)" gradientUnits="userSpaceOnUse"><stop offset="0" stop-color="#fff"/><stop offset="1" stop-color="#f9f9f9"/></radialGradient><linearGradient id="linear-gradient" x1="-251.41" y1="-620.32" x2="-232.75" y2="-620.32" gradientTransform="matrix(1, 0, 0, -0.72, 296.4, -189.53)" gradientUnits="userSpaceOnUse"><stop offset="0" stop-color="#f6f6f6"/><stop offset="0.5" stop-color="#fff"/><stop offset="1" stop-color="#f6f6f6"/></linearGradient><linearGradient id="linear-gradient-2" x1="-251.41" y1="-670.32" x2="-232.75" y2="-670.32" gradientTransform="matrix(1, 0, 0, -1, 296.4, -317.01)" gradientUnits="userSpaceOnUse"><stop offset="0" stop-color="#101010"/><stop offset="0.5" stop-color="#282828"/><stop offset="1" stop-color="#101010"/></linearGradient><linearGradient id="linear-gradient-3" x1="-251.38" y1="-679.81" x2="-232.8" y2="-679.81" xlink:href="#linear-gradient-2"/><linearGradient id="linear-gradient-4" x1="-253.96" y1="-650.83" x2="-241.92" y2="-650.83" gradientTransform="matrix(1, 0, 0, -1, 296.4, -317.01)" gradientUnits="userSpaceOnUse"><stop offset="0" stop-color="#181818"/><stop offset="1" stop-color="#3c3c3c"/></linearGradient><linearGradient id="linear-gradient-5" x1="-251.81" y1="-657.59" x2="-248.18" y2="-676.96" gradientTransform="matrix(1, 0, 0, -1, 296.4, -317.01)" gradientUnits="userSpaceOnUse"><stop offset="0" stop-color="#080808"/><stop offset="1" stop-color="#141414"/></linearGradient><linearGradient id="linear-gradient-6" x1="-99.96" y1="-650.83" x2="-87.92" y2="-650.83" gradientTransform="translate(-33.74 -317.01) rotate(180)" xlink:href="#linear-gradient-4"/><linearGradient id="linear-gradient-7" x1="-97.81" y1="-657.59" x2="-94.18" y2="-676.96" gradientTransform="translate(-33.74 -317.01) rotate(180)" xlink:href="#linear-gradient-5"/><radialGradient id="radial-gradient-2" cx="-281.69" cy="-325.65" r="9.28" gradientTransform="matrix(0, -2.39, 1.05, 0, 354.45, -521.08)" xlink:href="#radial-gradient"/><linearGradient id="linear-gradient-8" x1="-97.41" y1="-620.32" x2="-78.75" y2="-620.32" gradientTransform="translate(-76.18 -189.53) rotate(180) scale(1 0.72)" xlink:href="#linear-gradient"/><linearGradient id="linear-gradient-9" x1="-97.41" y1="-670.32" x2="-78.75" y2="-670.32" gradientTransform="translate(-76.18 -317.01) rotate(180)" xlink:href="#linear-gradient-2"/><linearGradient id="linear-gradient-10" x1="-97.38" y1="-679.81" x2="-78.8" y2="-679.81" gradientTransform="translate(-76.18 -317.01) rotate(180)" xlink:href="#linear-gradient-2"/><linearGradient id="linear-gradient-11" x1="-99.96" y1="-650.83" x2="-87.92" y2="-650.83" gradientTransform="translate(-76.18 -317.01) rotate(180)" xlink:href="#linear-gradient-4"/><linearGradient id="linear-gradient-12" x1="-97.81" y1="-657.59" x2="-94.18" y2="-676.96" gradientTransform="translate(-76.18 -317.01) rotate(180)" xlink:href="#linear-gradient-5"/><linearGradient id="linear-gradient-13" x1="-253.96" y1="-650.83" x2="-241.92" y2="-650.83" gradientTransform="matrix(1, 0, 0, -1, 253.96, -317.01)" xlink:href="#linear-gradient-4"/><linearGradient id="linear-gradient-14" x1="-251.81" y1="-657.59" x2="-248.18" y2="-676.96" gradientTransform="matrix(1, 0, 0, -1, 253.96, -317.01)" xlink:href="#linear-gradient-5"/><linearGradient id="linear-gradient-15" x1="-251.41" y1="-530.93" x2="-232.75" y2="-530.93" gradientTransform="matrix(1, 0, 0, -1, 275.2, -319.21)" xlink:href="#linear-gradient"/><linearGradient id="linear-gradient-16" x1="-251.42" y1="-534.23" x2="-232.75" y2="-534.23" gradientTransform="matrix(1, 0, 0, -2.53, 275.2, -1218.09)" xlink:href="#linear-gradient-2"/><linearGradient id="linear-gradient-17" x1="-251.41" y1="-670.32" x2="-232.75" y2="-670.32" gradientTransform="matrix(1, 0, 0, -1, 275.2, -317.01)" xlink:href="#linear-gradient-2"/><linearGradient id="linear-gradient-18" x1="-251.38" y1="-679.81" x2="-232.8" y2="-679.81" gradientTransform="matrix(1, 0, 0, -1, 275.2, -317.01)" xlink:href="#linear-gradient-2"/><linearGradient id="linear-gradient-19" x1="-253.96" y1="-650.83" x2="-241.92" y2="-650.83" gradientTransform="matrix(1, 0, 0, -1, 275.2, -317.01)" xlink:href="#linear-gradient-4"/><linearGradient id="linear-gradient-20" x1="-251.81" y1="-657.59" x2="-248.18" y2="-676.96" gradientTransform="matrix(1, 0, 0, -1, 275.2, -317.01)" xlink:href="#linear-gradient-5"/><linearGradient id="linear-gradient-21" x1="-99.96" y1="-650.83" x2="-87.92" y2="-650.83" gradientTransform="translate(-54.94 -317.01) rotate(180)" xlink:href="#linear-gradient-4"/><linearGradient id="linear-gradient-22" x1="-97.81" y1="-657.59" x2="-94.18" y2="-676.96" gradientTransform="translate(-54.94 -317.01) rotate(180)" xlink:href="#linear-gradient-5"/><linearGradient id="linear-gradient-23" x1="-622.2" y1="187.2" x2="-608.08" y2="187.2" gradientTransform="matrix(1, 0, 0, -1, 638.98, 218.73)" gradientUnits="userSpaceOnUse"><stop offset="0" stop-color="#e6e6e6"/><stop offset="1" stop-color="#f9f9f9"/></linearGradient><linearGradient id="linear-gradient-24" x1="-622.2" y1="152.46" x2="-608.08" y2="152.46" xlink:href="#linear-gradient-23"/><linearGradient id="linear-gradient-25" x1="-469.06" y1="187.2" x2="-451.58" y2="187.2" gradientTransform="translate(-418.74 218.73) rotate(180)" xlink:href="#linear-gradient-23"/><linearGradient id="linear-gradient-26" x1="-469.06" y1="152.46" x2="-451.58" y2="152.46" gradientTransform="translate(-418.74 218.73) rotate(180)" xlink:href="#linear-gradient-23"/><linearGradient id="linear-gradient-27" x1="60.92" y1="-566.42" x2="67.07" y2="-566.42" gradientTransform="matrix(1, 0, 0, -1, -9.37, -317.01)" gradientUnits="userSpaceOnUse"><stop offset="0" stop-color="#101010"/><stop offset="0.44" stop-color="#282828"/><stop offset="1" stop-color="#101010"/></linearGradient><linearGradient id="linear-gradient-28" x1="40.85" y1="-566.63" x2="44.16" y2="-566.63" gradientTransform="matrix(1, 0, 0, -1, -9.37, -317.01)" xlink:href="#linear-gradient-2"/><linearGradient id="linear-gradient-29" x1="19.62" y1="-566.34" x2="22.93" y2="-566.34" gradientTransform="matrix(1, 0, 0, -1, -9.37, -317.01)" xlink:href="#linear-gradient-2"/></defs><title>Asset 6</title><g id="Layer_2" data-name="Layer 2"><g id="svg2"><g id="g13573"><path id="path8888" class="cls-1" d="M23.05,148.77l-1-.14-1.14-.09-.05-.55v-.62l1.24-.05,1.1-.27.51-.23.11.94-.08,1,.19.19Z"/><path id="path8880" class="cls-2" d="M20.83,147.21a3.73,3.73,0,0,0,3-.64"/><path id="path8882" class="cls-2" d="M23.81,149a9.26,9.26,0,0,0-3.1-.33"/></g><g id="g13581"><path id="path8890" class="cls-1" d="M42.54,147.58l0-.77.26.22a3.32,3.32,0,0,0,1.59.42l1.06-.19v.67l.05.6H44.13a6.67,6.67,0,0,0-1,.12c-.26.07-.56.24-.63.19s0-.41,0-1Z"/><path id="path8884" class="cls-2" d="M42.46,146.57a3.51,3.51,0,0,0,2.88.64"/><path id="path8886" class="cls-2" d="M45.39,148.68a8.5,8.5,0,0,0-2.93.32"/></g><g id="g16942"><path id="path8382" class="cls-3" d="M45.08,151.34a16.36,16.36,0,0,1,0-2.25c.59-7.08.94-9.52,2.8-13.34s4-6,5.69-6.53,4.11.82,6.26,4.58a32.2,32.2,0,0,1,2.58,5.8,39.37,39.37,0,0,1,1.05,6.57c.13,1.23.18,5,.18,5.29v.18H45.08Z"/><path id="path13074" class="cls-2" d="M45.08,151.34a16.36,16.36,0,0,1,0-2.25c.59-7.08.94-9.52,2.8-13.34s4-6,5.69-6.53,4.11.82,6.26,4.58a32.2,32.2,0,0,1,2.58,5.8,39.37,39.37,0,0,1,1.05,6.57c.13,1.23.18,5,.18,5.29v.18H45.08Z"/><rect id="rect11024" class="cls-4" x="44.99" y="151.62" width="18.67" height="208.69"/><rect id="rect11028" class="cls-5" x="44.99" y="346.26" width="18.67" height="14.11"/><path id="path11030" class="cls-6" d="M45.85,365.16a1.06,1.06,0,0,1-.08-.23v0h3.39l0,.06c0,.12,0,.15,0,.19l0,.05H45.88l0-.05h0Z"/><path id="path11032" class="cls-6" d="M49.64,365.14a1.06,1.06,0,0,1-.08-.23s.73,0,1.75,0h1.75v0a1.29,1.29,0,0,1-.07.21l0,.06H49.68l0-.07Z"/><path id="path11034" class="cls-6" d="M53.35,365.27l0-.07a2.3,2.3,0,0,0,.07-.26v0h.87c.83,0,.88,0,.88,0s0,0,0,.07a1,1,0,0,0,0,.17l0,.11h-2Z"/><path id="path11036" class="cls-6" d="M55.69,365.14a1.06,1.06,0,0,1-.08-.23s.72,0,1.74,0c1.3,0,1.75,0,1.75,0a1.23,1.23,0,0,1-.08.22l0,.06H55.72l0-.07Z"/><path id="path11038" class="cls-6" d="M59.5,365.17c0-.06,0-.08,0-.17l0-.09h3.4v0a1.29,1.29,0,0,1-.07.21l0,.06H59.52l0,0Z"/><path id="path11040" class="cls-7" d="M45,360.27l18.57,0v3.28l-.7,1.75-17.17-.06L45,363.52Z"/><g id="g11054"><g id="g11046"><path id="path11042" class="cls-8" d="M49.3,368c-.19-.48-.45-1-.7-1.53l-.1-.19,0-.08c.07-.13.24-.42.34-.58l0-.06h1l0,.06.35.62,0,0,0,.1a18.12,18.12,0,0,0-.77,1.68l0,.1h-.07L49.3,368Z"/><path id="path11044" class="cls-8" d="M59.11,367.83c-.2-.48-.45-1-.7-1.53l-.1-.19,0-.08c.07-.13.23-.42.33-.58l0-.06h1l0,.06c.08.14.3.52.35.62l0,0-.05.1a18.21,18.21,0,0,0-.78,1.68l0,.09h-.06l-.06-.15Z"/></g><path id="path11048" class="cls-9" d="M53.23,367.28l.33-.61.18-.34-.22-.38-.21-.39h-.38c-.32,0-.38,0-.38,0s0,0-.16,0-.16,0-.21.1l-.06.09.28.54c.16.3.37.72.47.94a2.91,2.91,0,0,0,.2.41s.08-.13.16-.29Z"/><path id="path11050" class="cls-9" d="M55.5,367.27c-.08-.16-.23-.44-.34-.62l-.18-.34.22-.38.22-.39h.37c.32,0,.38,0,.38,0s0,0,.16,0,.17,0,.22.1l.05.09-.28.54c-.16.3-.36.72-.46.94a2.91,2.91,0,0,1-.2.41,1.93,1.93,0,0,1-.16-.29Z"/><path id="path11052" class="cls-8" d="M52,371.53s.09-.38.1-.42c.17-2.25.35-1.79,1.06-3.15a14.7,14.7,0,0,1,.76-1.52l.13-.24v-.63h.67v.63l.15.26c.15.26.56,1.08.66,1.3l.06.13a20.8,20.8,0,0,1,1.12,3.39,1.17,1.17,0,0,1,0,.23,13.71,13.71,0,0,1-2.37,0c-1.31,0-2.38,0-2.38,0Z"/></g><path id="path11058" class="cls-2" d="M57.86,365.4h-1"/><path id="path11060" class="cls-2" d="M47,370.71h4.91"/><path id="path11062" class="cls-2" d="M48.9,365.4h1"/><path id="path11064" class="cls-2" d="M50.36,366.22c-.14-.28-.29-.55-.44-.82"/><path id="path11066" class="cls-2" d="M48.9,365.4c-.15.27-.3.54-.44.82"/><path id="path11068" class="cls-2" d="M52.28,365.4h.77"/><path id="path11070" class="cls-2" d="M53.79,366.32l-.44-.85"/><path id="path11072" class="cls-2" d="M52.28,365.4c-.07.14-.15.28-.23.42"/><path id="path11074" class="cls-2" d="M61.71,370.71H56.8"/><path id="path11076" class="cls-2" d="M59.76,365.4h-1"/><path id="path11078" class="cls-2" d="M58.74,365.4c-.15.27-.3.54-.44.82"/><path id="path11080" class="cls-2" d="M60.2,366.22c-.14-.28-.28-.55-.44-.82"/><path id="path11082" class="cls-2" d="M56.38,365.4h-.76"/><path id="path11084" class="cls-2" d="M53.05,365.4a1,1,0,0,0,.21-.69"/><path id="path11086" class="cls-2" d="M49.57,365.4h3.48"/><path id="path11088" class="cls-2" d="M55.4,364.71a1,1,0,0,0,.22.69"/><path id="path11090" class="cls-2" d="M59.09,365.4a1.07,1.07,0,0,0,.22-.69"/><path id="path11092" class="cls-2" d="M53.35,365.47h2"/><path id="path11094" class="cls-2" d="M52.54,365.4l.05.07"/><path id="path11096" class="cls-2" d="M56.07,365.47l.06-.07"/><path id="path11098" class="cls-2" d="M52.59,365.47h3.48"/><path id="path11100" class="cls-2" d="M55.37,365.47c-.16.28-.31.57-.45.85"/><path id="path11102" class="cls-2" d="M55.37,365.47c-.16.28-.31.57-.45.85"/><path id="path11104" class="cls-2" d="M56.64,365.77l-.21-.37"/><path id="path11108" class="cls-2" d="M52.08,370.71c-.07.28-.13.55-.18.83h4.91c-.05-.28-.11-.55-.17-.83"/><path id="path11110" class="cls-2" d="M53,367.94a15.12,15.12,0,0,1,.85-1.71v-.76"/><path id="path11112" class="cls-2" d="M54.87,365.47v.76c.3.53.57,1.08.82,1.64"/><path id="path11114" class="cls-10" d="M49.41,368.54A17,17,0,0,0,48,365.4H47a17.29,17.29,0,0,0-1.94,5.31H50"/><path id="path11116" class="cls-2" d="M59.25,365.1a1.08,1.08,0,0,0,.16.3h3.48a1.07,1.07,0,0,0,.22-.69"/><path id="path11118" class="cls-10" d="M58.7,370.71h4.91a17.06,17.06,0,0,0-2-5.31h-1a17.64,17.64,0,0,0-1.39,3.14"/><path id="path11120" class="cls-10" d="M50.8,365.4a17.06,17.06,0,0,0-1.95,5.31h4.92a17.06,17.06,0,0,0-2-5.31Z"/><path id="path11122" class="cls-11" d="M44.94,310.37V151.5"/><path id="path11124" class="cls-2" d="M63.66,354.89v8.31a3.11,3.11,0,0,1-.49,1.51H45.5A2.91,2.91,0,0,1,45,363.2v-8.31"/><path id="path11126" class="cls-10" d="M57.86,365.4a17.06,17.06,0,0,1,2,5.31H54.9a17.06,17.06,0,0,1,2-5.31"/><path id="path11128" class="cls-2" d="M55.62,365.4h3.47"/><path id="path11130" class="cls-2" d="M45.56,364.71a1.07,1.07,0,0,0,.21.69h3.48a1.08,1.08,0,0,0,.16-.3"/><path id="path11132" class="cls-2" d="M49.36,364.71a1,1,0,0,0,.21.69"/><path id="path11158" class="cls-2" d="M45,360.32H63.66"/><path id="path11160" class="cls-2" d="M45,346.32H63.66"/><path id="path11106" class="cls-12" d="M63.59,151.5V310.37"/><path id="path11134" class="cls-2" d="M45,151.69H63.66"/><g id="g11370"><g id="g11292"><path id="path11218" class="cls-13" d="M61.69,146.38l.82.38.22.9-.58.74-1.07,0-.61-.67.15-.84.44-.51Z"/><path id="path11220" class="cls-14" d="M59.93,148.54l-.53-.06-1.3,1.59,0,.93-.16.77.2.84-.18.93.12.78-.14.68.2.69-.18.82.08.55-.06.82.65.2,0-7.92Z"/><path id="path11222" class="cls-15" d="M58.59,158.13l5.87,0v-7.95l-1.72-2.6-.69,1-.91.06-.37-.35-.55-.27-.28.66-1.35,1.53Z"/><path id="path11224" class="cls-16" d="M58.63,150.17V158h5.79l-5.79-7.86,1.3-1.63.39-1"/><path id="path11226" class="cls-16" d="M58.64,152l4.52,6"/><path id="path11228" class="cls-16" d="M62,158l-3.34-4.4"/><path id="path11230" class="cls-16" d="M60.88,158l-2.25-2.74"/><path id="path11232" class="cls-16" d="M59.68,158l-1-1.32"/><path id="path11234" class="cls-16" d="M64.42,158v-7.9l-1.14-1.73"/><path id="path11236" class="cls-16" d="M58.65,158l5.75-7.88"/><path id="path11238" class="cls-16" d="M64.42,152l-4.52,6"/><path id="path11240" class="cls-16" d="M61.05,158l3.34-4.4"/><path id="path11242" class="cls-16" d="M62.18,158l2.23-2.73"/><path id="path11244" class="cls-16" d="M60.88,158l-2.25-2.74"/><path id="path11246" class="cls-16" d="M63.35,158l1.06-1.32"/><path id="path11248" class="cls-16" d="M58.65,156.53l5.21-7.26"/><path id="path11250" class="cls-16" d="M58.62,155l4.12-5.87"/><path id="path11252" class="cls-16" d="M64.42,156.49l-5.13-7.13"/><path id="path11254" class="cls-16" d="M64.42,154.94l-4-5.68"/><path id="path11256" class="cls-16" d="M58.61,153.36l2.94-4.18,1.24-1.52"/><path id="path11258" class="cls-16" d="M64.44,153.36l-2.89-4.22-1.25-1.61"/><path id="path11260" class="cls-16" d="M58.63,151.77l1.8-2.5"/><path id="path11262" class="cls-16" d="M64.4,151.75l-1.66-2.58"/><path id="path11264" class="cls-17" d="M63.31,148.45l-.24,0-.33.74.09-.78,0-.75Z"/><path id="path11266" class="cls-17" d="M59.93,148.54l.19,0,.31.71-.1-.88v-.84Z"/><path id="path11268" class="cls-17" d="M61.51,147.62v.71h-.12l-.24.24.42.56.52-.51-.22-.27-.13,0v-.73Z"/><path id="path11270" class="cls-16" d="M61.12,148.62l-.74.07"/><path id="path11272" class="cls-16" d="M62.1,148.62l.71.07"/><path id="path11274" class="cls-16" d="M60,148.51l-.57,0a1.68,1.68,0,0,1-.23.45,2,2,0,0,1-.52.27.89.89,0,0,1-.09.43A2.21,2.21,0,0,1,58,150a3.21,3.21,0,0,1,.11.82,3.71,3.71,0,0,1-.25.82,2.9,2.9,0,0,1,.24.85,2.72,2.72,0,0,1-.23.8,4.62,4.62,0,0,1,.19.91,2.9,2.9,0,0,1-.16.78,2.63,2.63,0,0,1,.2.81,2.38,2.38,0,0,1-.24.72,2.49,2.49,0,0,1,.19.71,1.87,1.87,0,0,1-.19.61l.72.21"/><path id="path11276" class="cls-16" d="M58,150l.54.13"/><path id="path11278" class="cls-16" d="M59.28,149.4,59.21,151"/><path id="path11280" class="cls-16" d="M60.42,149.33l-.07,1.46"/><path id="path11282" class="cls-16" d="M62.73,149.24l0,1.55"/><path id="path11284" class="cls-16" d="M63.86,149.32v1.56"/><path id="path11286" class="cls-18" d="M60,147.6h.48l.08-.56.33-.47.59-.18.42-.06-.48-.36h-.74l-.5.41L60,147Z"/><path id="path11288" class="cls-16" d="M62.15,146.44a4.72,4.72,0,0,0-.64-.42,1.6,1.6,0,0,0-.61-.07.81.81,0,0,0-.77.64,2.35,2.35,0,0,0-.1.58c0,.18,0,.55,0,.55l.46.42"/><path id="path11290" class="cls-16" d="M60.51,147.52a1.79,1.79,0,0,1,.08-.5,1.21,1.21,0,0,1,.43-.54,1.12,1.12,0,0,1,.55-.08,1.4,1.4,0,0,1,.54,0,1,1,0,0,1,.43.31,1,1,0,0,1,.12.35c0,.18.08.56.08.56"/></g><g id="g11368"><path id="path11294" class="cls-13" d="M47,146.38l-.82.38-.22.9.57.74,1.08,0,.6-.67-.15-.84-.43-.51Z"/><path id="path11296" class="cls-14" d="M48.72,148.54l.52-.06,1.3,1.59,0,.93.16.77-.2.84.18.93-.12.78.14.68-.2.69.18.82-.08.55.06.82-.65.2,0-7.92Z"/><path id="path11298" class="cls-15" d="M50.05,158.13l-5.87,0v-7.95l1.72-2.6.69,1,.91.06.37-.35.55-.27.29.66,1.34,1.53Z"/><path id="path11300" class="cls-16" d="M50,150.17V158H44.22L50,150.17l-1.3-1.63-.38-1"/><path id="path11302" class="cls-16" d="M50,152l-4.53,6"/><path id="path11304" class="cls-16" d="M46.67,158l3.34-4.4"/><path id="path11306" class="cls-16" d="M47.77,158,50,155.25"/><path id="path11308" class="cls-16" d="M49,158l1-1.32"/><path id="path11310" class="cls-16" d="M44.22,158v-7.9l1.15-1.73"/><path id="path11312" class="cls-16" d="M50,158l-5.76-7.88"/><path id="path11314" class="cls-16" d="M44.22,152l4.53,6"/><path id="path11316" class="cls-16" d="M47.59,158l-3.34-4.4"/><path id="path11318" class="cls-16" d="M46.46,158l-2.23-2.73"/><path id="path11320" class="cls-16" d="M47.77,158,50,155.25"/><path id="path11322" class="cls-16" d="M45.29,158l-1-1.32"/><path id="path11324" class="cls-16" d="M50,156.53l-5.21-7.26"/><path id="path11326" class="cls-16" d="M50,155l-4.11-5.87"/><path id="path11328" class="cls-16" d="M44.23,156.49l5.13-7.13"/><path id="path11330" class="cls-16" d="M44.23,154.94l4-5.68"/><path id="path11332" class="cls-16" d="M50,153.36l-2.93-4.18-1.25-1.52"/><path id="path11334" class="cls-16" d="M44.2,153.36l2.89-4.22,1.25-1.61"/><path id="path11336" class="cls-16" d="M50,151.77l-1.8-2.5"/><path id="path11338" class="cls-16" d="M44.24,151.75l1.66-2.58"/><path id="path11340" class="cls-17" d="M45.33,148.45l.24,0,.33.74-.09-.78,0-.75Z"/><path id="path11342" class="cls-17" d="M48.72,148.54l-.2,0-.31.71.11-.88v-.84Z"/><path id="path11344" class="cls-17" d="M47.13,147.62v.71h.13l.24.24-.42.56-.53-.51.23-.27.12,0v-.73Z"/><path id="path11346" class="cls-16" d="M47.52,148.62l.74.07"/><path id="path11348" class="cls-16" d="M46.54,148.62l-.7.07"/><path id="path11350" class="cls-16" d="M48.68,148.51l.56,0a1.52,1.52,0,0,0,.24.45,1.81,1.81,0,0,0,.51.27,1,1,0,0,0,.09.43,2.21,2.21,0,0,0,.53.41,3.76,3.76,0,0,0-.11.82,3.71,3.71,0,0,0,.25.82,3.25,3.25,0,0,0-.24.85,2.72,2.72,0,0,0,.23.8,4.62,4.62,0,0,0-.19.91,3.38,3.38,0,0,0,.16.78,3,3,0,0,0-.2.81,2.38,2.38,0,0,0,.24.72,2.89,2.89,0,0,0-.19.71,2.17,2.17,0,0,0,.19.61l-.72.21"/><path id="path11352" class="cls-16" d="M50.6,150l-.54.13"/><path id="path11354" class="cls-16" d="M49.37,149.4l.07,1.55"/><path id="path11356" class="cls-16" d="M48.22,149.33l.07,1.46"/><path id="path11358" class="cls-16" d="M45.92,149.24v1.55"/><path id="path11360" class="cls-16" d="M44.79,149.32v1.56"/><path id="path11362" class="cls-18" d="M48.61,147.6h-.49l-.07-.56-.33-.47-.6-.18-.42-.06.49-.36h.73l.5.41.19.67Z"/><path id="path11364" class="cls-16" d="M46.49,146.44a4.35,4.35,0,0,1,.65-.42,1.55,1.55,0,0,1,.61-.07,1,1,0,0,1,.5.2,1.05,1.05,0,0,1,.27.44,2.94,2.94,0,0,1,.1.58c0,.18,0,.55,0,.55l-.47.42"/><path id="path11366" class="cls-16" d="M48.13,147.52a1.79,1.79,0,0,0-.08-.5,1.19,1.19,0,0,0-.42-.54,1.14,1.14,0,0,0-.55-.08,1.45,1.45,0,0,0-.55,0,.93.93,0,0,0-.42.31.73.73,0,0,0-.12.35,4.85,4.85,0,0,0-.09.56"/></g></g><g id="g11188"><rect id="rect11162" class="cls-19" x="44.44" y="360.72" width="0.48" height="0.45"/><path id="path11164" class="cls-20" d="M47.36,306.1h-.12l-.06,0-.06,0-.06,0-.06,0-.07,0-.06.05-.06.05-.07.06-.06.07-.07.08-.07.08-.07.09-.07.1-.07.11-.07.12-.08.13-.07.13-.08.15-.07.15-.08.16-.08.16-.07.17-.07.17-.08.17-.07.17-.07.17-.06.17-.07.17-.06.17,0,.17-.06.17,0,.16,0,.17,0,.16,0,.17,0,.17,0,.15v0l0,.08,0,.07,0,.16-.05.14,0,.14,0,.14,0,.14,0,.14,0,.14,0,.13,0,.14,0,.14,0,.14,0,.14,0,.15v.08l0,.07v.08l0,.08V313l0,.08v.09l0,.08v.1l0,.09v0h0V314l-.06,1.81-.24,7.21-.49,14.43-.48,14.42-.24,7.22v.16h0v.09l0,.09,0,.09,0,.1,0,.09,0,.09,0,.1,0,.09,0,.09,0,.1,0,.09,0,.09.06.09.05.09.06.09.06.09.08.09,0,0,0,0,0,0,0,0,0,0,0,0,.05,0,0,0,0,0,.05,0,0,0,.06,0,0,0,.06,0,.06,0,.07,0,.06,0,0,0h.09v0h0v0h0v-.17l0-.26,0-.26,0-.26,0-.27,0-.26,0-.27,0-.27,0-.27,0-.28,0-.27.06-.56,0-.55.06-.56.06-.57.12-1.12.06-.56.06-.56.06-.56,0-.27,0-.28,0-.27,0-.27,0-.27,0-.26,0-.27,0-.26,0-.26,0-.26,0-.25,0-.25,0-.25,0-.25,0-.24,0-.24,0-.23,0-.24,0-.22,0-.23,0-.22,0-.21.05-.14.08-.16.1-.16.14-.16.16-.15.18-.14.2-.11L47,347l.23,0h.23l.24.05.24.11.41,1.06.42,1.16.42,1.17.43,1.17.42,1.16.42,1.17.43,1.16.42,1.17.42,1.17.43,1.16.42,1.17L53,361l.11.28,0,0,0,0,0,0,0,0,0,0,0,0,0,0h0l0,0,0,0h.43l.06,0,0,0,0-.08.05-.09,0-.11,0-.13,0-.14,0-.15,0-.16,0-.16,0-.17-.19-1.82-.45-3.82-.45-3.81L52.74,347l-.45-3.81-.44-3.82-.45-3.81L51,331.76,50.5,328l-.45-3.82-.45-3.81-.45-3.82-.29-2.58v-3.08l0-.48,0-.45,0-.4,0-.36,0-.32,0-.29,0-.26,0-.23-.05-.21,0-.19,0-.17,0-.16,0-.14,0-.13,0-.13,0-.11,0-.1,0-.09-.05-.08,0-.08-.05-.07,0-.05-.06-.06,0,0,0,0-.06,0,0,0-.06,0h-.17Z"/><path id="path11166" class="cls-21" d="M44.29,361.54l.68-6.28.17-2,.61-4.62.1-.64.33-.54.42-.37.42-.19.44-.05.29.05.27.2,5.09,14.13.3.27.34.06v-.24l-7.69-20.67-.37-.42-.41-.27-.42.11-.17.52-1.61,19.91.39.5.39.35Z"/><path id="path11168" class="cls-2" d="M48.84,311l-1.23-1.3"/><path id="path11170" class="cls-2" d="M47.61,309.65H45.18"/><path id="path11172" class="cls-2" d="M45.09,340l.17-24.12"/><path id="path11174" class="cls-2" d="M45.26,315.89,47.42,313"/><path id="path11176" class="cls-2" d="M45.26,315.89l-1-2.67"/><path id="path11178" class="cls-22" d="M47.42,313l.19-3.32"/><path id="path11180" class="cls-2" d="M44.4,360.64H45"/><path id="path11182" class="cls-2" d="M44.32,361.3H45"/><path id="path11184" class="cls-2" d="M43.08,360.54l.12-1.5.11-1.5.12-1.5.12-1.5.12-1.51.12-1.5.12-1.5.11-1.5.12-1.5.12-1.5.12-1.51.12-1.5.12-1.5.05-.48,0-.11,0-.11,0-.08,0-.07.06-.06,0,0,.07,0h.32l.06,0,.07,0,.06,0,.06,0,.06.05,0,0,.06.06,0,.05.05.06,0,.07.05.06,0,.06,0,.07.18.44.58,1.57.58,1.57.58,1.56.59,1.57.58,1.57.58,1.57.59,1.57.58,1.57.58,1.57.58,1.57.59,1.57.58,1.57.58,1.57"/><path id="path11186" class="cls-2" d="M47.36,306.1h-.12l-.06,0-.06,0-.06,0-.06,0-.07,0-.06.05-.06.05-.07.06-.06.07-.07.08-.07.08-.07.09-.07.1-.07.11-.07.12-.08.13-.07.13-.08.15-.07.15-.08.16-.08.16-.07.17-.07.17-.08.17-.07.17-.07.17-.06.17-.07.17-.06.17,0,.17-.06.17,0,.16,0,.17,0,.16,0,.17,0,.17,0,.15v0l0,.08,0,.07,0,.16-.05.14,0,.14,0,.14,0,.14,0,.14,0,.14,0,.13,0,.14,0,.14,0,.14,0,.14,0,.15v.08l0,.07v.08l0,.08V313l0,.08v.09l0,.08v.1l0,.09v0h0V314l-.06,1.81-.24,7.21-.49,14.43-.48,14.42-.24,7.22v.16h0v.09l0,.09,0,.09,0,.1,0,.09,0,.09,0,.1,0,.09,0,.09,0,.1,0,.09,0,.09.06.09.05.09.06.09.06.09.08.09,0,0,0,0,0,0,0,0,0,0,0,0,.05,0,0,0,0,0,.05,0,0,0,.06,0,0,0,.06,0,.06,0,.07,0,.06,0,0,0h.09v0h0v0h0v-.17l0-.26,0-.26,0-.26,0-.27,0-.26,0-.27,0-.27,0-.27,0-.28,0-.27.06-.56,0-.55.06-.56.06-.57.12-1.12.06-.56.06-.56.06-.56,0-.27,0-.28,0-.27,0-.27,0-.27,0-.26,0-.27,0-.26,0-.26,0-.26,0-.25,0-.25,0-.25,0-.25,0-.24,0-.24,0-.23,0-.24,0-.22,0-.23,0-.22,0-.21.05-.14.08-.16.1-.16.14-.16.16-.15.18-.14.2-.11L47,347l.23,0h.23l.24.05.24.11.41,1.06.42,1.16.42,1.17.43,1.17.42,1.16.42,1.17.43,1.16.42,1.17.42,1.17.43,1.16.42,1.17L53,361l.11.28,0,0,0,0,0,0,0,0,0,0,0,0,0,0h0l0,0,0,0h.43l.06,0,0,0,0-.08.05-.09,0-.11,0-.13,0-.14,0-.15,0-.16,0-.16,0-.17-.19-1.82-.45-3.82-.45-3.81L52.74,347l-.45-3.81-.44-3.82-.45-3.81L51,331.76,50.5,328l-.45-3.82-.45-3.81-.45-3.82-.29-2.58v-3.08l0-.48,0-.45,0-.4,0-.36,0-.32,0-.29,0-.26,0-.23-.05-.21,0-.19,0-.17,0-.16,0-.14,0-.13,0-.13,0-.11,0-.1,0-.09-.05-.08,0-.08-.05-.07,0-.05-.06-.06,0,0,0,0-.06,0,0,0-.06,0h-.17Z"/></g><g id="g11216"><rect id="rect11190" class="cls-19" x="63.75" y="360.72" width="0.48" height="0.45"/><path id="path11192" class="cls-23" d="M61.31,306.1h.11l.07,0,.06,0,.06,0,.06,0,.06,0,.06.05.07.05.06.06.07.07.07.08.06.08.07.09.07.1.08.11.07.12.07.13.08.13.07.15.08.15.07.16.08.16.07.17.08.17.07.17.07.17.07.17.07.17.06.17.06.17.06.17.05.17,0,.16,0,.17,0,.16,0,.17,0,.17,0,.15v0l0,.08,0,.07.05.16,0,.14,0,.14,0,.14,0,.14,0,.14,0,.14,0,.13,0,.14,0,.14,0,.14,0,.14,0,.15,0,.08v.07l0,.08V313l0,.09v.08l0,.09v.08l0,.1v.14h0v0l0,.45.06,1.81.24,7.21.48,14.43.48,14.42.24,7.22v.16h0v.18l0,.09,0,.1,0,.09,0,.09,0,.1,0,.09,0,.09,0,.1,0,.09,0,.09,0,.09-.05.09-.06.09-.07.09-.07.09,0,0,0,0,0,0,0,0,0,0,0,0,0,0,0,0,0,0,0,0-.06,0-.05,0-.06,0-.06,0-.06,0-.06,0-.07,0,0,0h-.09v0h0v0h0v0l0-.12,0-.26,0-.26,0-.26,0-.27,0-.26,0-.27,0-.27,0-.27,0-.28,0-.27-.06-.56-.06-.55-.06-.56-.06-.57-.12-1.12-.06-.56-.06-.56-.06-.56,0-.27,0-.28,0-.27,0-.27,0-.27,0-.26,0-.27,0-.26,0-.26,0-.26,0-.25,0-.25,0-.25,0-.25,0-.24,0-.24,0-.23,0-.24,0-.22,0-.23,0-.22,0-.21-.05-.14-.08-.16-.11-.16-.13-.16-.16-.15-.19-.14-.19-.11-.22-.09-.22,0h-.24l-.24.05-.24.11-.4,1.06-.43,1.16-.42,1.17L59,351.65l-.43,1.16L58.18,354l-.42,1.16-.42,1.17-.43,1.17-.42,1.16-.42,1.17L55.64,361l-.1.28,0,0,0,0,0,0,0,0,0,0,0,0,0,0h0l0,0,0,0h-.43l-.05,0,0,0-.05-.08,0-.09,0-.11,0-.13,0-.14,0-.15,0-.16,0-.16,0-.17.19-1.82.45-3.82.45-3.81.45-3.82.45-3.81.45-3.82.45-3.81.45-3.82.45-3.81.44-3.82.45-3.81.45-3.82.29-2.58v-3.08l0-.48,0-.45,0-.4,0-.36,0-.32,0-.29,0-.26,0-.23,0-.21,0-.19.05-.17,0-.16,0-.14.05-.13,0-.13,0-.11.05-.1,0-.09.06-.08,0-.08.06-.07.05-.05,0-.06,0,0,.06,0,.05,0,.06,0,.05,0h.18Z"/><path id="path11194" class="cls-24" d="M64.38,361.54l-.69-6.28-.17-2-.61-4.62-.09-.64-.33-.54-.42-.37-.42-.19-.44-.05-.3.05-.26.2-5.1,14.13-.3.27-.34.06,0-.24,7.68-20.67.38-.42.41-.27.42.11.17.52,1.61,19.91-.39.5-.39.35Z"/><path id="path11196" class="cls-2" d="M59.83,311l1.23-1.3"/><path id="path11198" class="cls-2" d="M61.06,309.65h2.43"/><path id="path11200" class="cls-2" d="M63.58,340l-.18-24.12"/><path id="path11202" class="cls-2" d="M63.4,315.89,61.24,313"/><path id="path11204" class="cls-2" d="M63.4,315.89l1-2.67"/><path id="path11206" class="cls-22" d="M61.24,313l-.18-3.32"/><path id="path11208" class="cls-2" d="M64.27,360.64h-.61"/><path id="path11210" class="cls-2" d="M64.34,361.3h-.68"/><path id="path11212" class="cls-2" d="M65.59,360.54l-.12-1.5-.12-1.5-.12-1.5-.12-1.5L65,353l-.12-1.5-.12-1.5-.12-1.5-.12-1.5-.12-1.5L64.29,344l-.12-1.5-.12-1.5,0-.48,0-.11,0-.11,0-.08-.05-.07,0-.06-.06,0-.06,0h-.32l-.07,0-.06,0-.06,0-.06,0-.06.05-.06,0,0,.06-.06.05,0,.06-.05.07,0,.06,0,.06,0,.07-.18.44-.58,1.57-.59,1.57-.58,1.56-.58,1.57L59.53,349,59,350.55l-.58,1.57-.58,1.57-.59,1.57-.58,1.57L56,358.4,55.46,360l-.59,1.57"/><path id="path11214" class="cls-2" d="M61.31,306.1h.11l.07,0,.06,0,.06,0,.06,0,.06,0,.06.05.07.05.06.06.07.07.07.08.06.08.07.09.07.1.08.11.07.12.07.13.08.13.07.15.08.15.07.16.08.16.07.17.08.17.07.17.07.17.07.17.07.17.06.17.06.17.06.17.05.17,0,.16,0,.17,0,.16,0,.17,0,.17,0,.15v0l0,.08,0,.07.05.16,0,.14,0,.14,0,.14,0,.14,0,.14,0,.14,0,.13,0,.14,0,.14,0,.14,0,.14,0,.15,0,.08v.07l0,.08V313l0,.09v.08l0,.09v.08l0,.1v.14h0v0l0,.45.06,1.81.24,7.21.48,14.43.48,14.42.24,7.22v.16h0v.18l0,.09,0,.1,0,.09,0,.09,0,.1,0,.09,0,.09,0,.1,0,.09,0,.09,0,.09-.05.09-.06.09-.07.09-.07.09,0,0,0,0,0,0,0,0,0,0,0,0,0,0,0,0,0,0,0,0-.06,0-.05,0-.06,0-.06,0-.06,0-.06,0-.07,0,0,0h-.09v0h0v0h0v0l0-.12,0-.26,0-.26,0-.26,0-.27,0-.26,0-.27,0-.27,0-.27,0-.28,0-.27-.06-.56-.06-.55-.06-.56-.06-.57-.12-1.12-.06-.56-.06-.56-.06-.56,0-.27,0-.28,0-.27,0-.27,0-.27,0-.26,0-.27,0-.26,0-.26,0-.26,0-.25,0-.25,0-.25,0-.25,0-.24,0-.24,0-.23,0-.24,0-.22,0-.23,0-.22,0-.21-.05-.14-.08-.16-.11-.16-.13-.16-.16-.15-.19-.14-.19-.11-.22-.09-.22,0h-.24l-.24.05-.24.11-.4,1.06-.43,1.16-.42,1.17L59,351.65l-.43,1.16L58.18,354l-.42,1.16-.42,1.17-.43,1.17-.42,1.16-.42,1.17L55.64,361l-.1.28,0,0,0,0,0,0,0,0,0,0,0,0,0,0h0l0,0,0,0h-.43l-.05,0,0,0-.05-.08,0-.09,0-.11,0-.13,0-.14,0-.15,0-.16,0-.16,0-.17.19-1.82.45-3.82.45-3.81.45-3.82.45-3.81.45-3.82.45-3.81.45-3.82.45-3.81.44-3.82.45-3.81.45-3.82.29-2.58v-3.08l0-.48,0-.45,0-.4,0-.36,0-.32,0-.29,0-.26,0-.23,0-.21,0-.19.05-.17,0-.16,0-.14.05-.13,0-.13,0-.11.05-.1,0-.09.06-.08,0-.08.06-.07.05-.05,0-.06,0,0,.06,0,.05,0,.06,0,.05,0h.18Z"/></g></g><g id="g17107"><path id="path11817" class="cls-25" d="M21.14,151.34a16.36,16.36,0,0,0,0-2.25c-.59-7.08-.94-9.52-2.8-13.34s-4-6-5.69-6.53S8.55,130,6.4,133.8a32.2,32.2,0,0,0-2.58,5.8,38.35,38.35,0,0,0-1,6.57c-.13,1.23-.19,5-.19,5.29v.18H21.14Z"/><path id="path13403" class="cls-2" d="M21.14,151.34a16.36,16.36,0,0,0,0-2.25c-.59-7.08-.94-9.52-2.8-13.34s-4-6-5.69-6.53S8.55,130,6.4,133.8a32.2,32.2,0,0,0-2.58,5.8,38.35,38.35,0,0,0-1,6.57c-.13,1.23-.19,5-.19,5.29v.18H21.14Z"/><rect id="rect11819" class="cls-26" x="2.56" y="151.62" width="18.67" height="208.69"/><rect id="rect11821" class="cls-27" x="2.56" y="346.26" width="18.67" height="14.11"/><path id="path11823" class="cls-6" d="M20.37,365.16a1,1,0,0,0,.07-.23v0H17.05V365c0,.12,0,.15,0,.19l0,.05h3.27l0-.05h0Z"/><path id="path11825" class="cls-6" d="M16.58,365.14a1.83,1.83,0,0,0,.07-.23s-.72,0-1.74,0H13.16v0a.74.74,0,0,0,.07.21l0,.06h3.27l0-.07Z"/><path id="path11827" class="cls-6" d="M12.87,365.27l0-.07a2.3,2.3,0,0,1-.07-.26v0h-.87c-.83,0-.88,0-.89,0a.23.23,0,0,1,0,.07,1,1,0,0,1,0,.17l0,.11h2Z"/><path id="path11829" class="cls-6" d="M10.53,365.14a1.06,1.06,0,0,0,.08-.23s-.73,0-1.74,0c-1.31,0-1.75,0-1.75,0s0,.16.07.22l0,.06H10.5l0-.07Z"/><path id="path11831" class="cls-6" d="M6.72,365.17c0-.06,0-.08,0-.17l0-.09H3.32v0a1.29,1.29,0,0,0,.07.21l0,.06H6.7l0,0Z"/><path id="path11833" class="cls-28" d="M21.2,360.27l-18.57,0v3.28l.7,1.75,17.17-.06.69-1.75Z"/><g id="g11847"><g id="g11839"><path id="path11835" class="cls-8" d="M16.92,368c.19-.48.45-1,.7-1.53l.1-.19,0-.08c-.07-.13-.24-.42-.34-.58l0-.06h-1l0,.06-.35.62,0,0,.05.1a18.12,18.12,0,0,1,.77,1.68l0,.1h.07l.06-.16Z"/><path id="path11837" class="cls-8" d="M7.11,367.83c.2-.48.45-1,.7-1.53l.1-.19,0-.08c-.07-.13-.23-.42-.33-.58l0-.06h-1l0,.06c-.08.14-.3.52-.35.62l0,0,0,.1A18.21,18.21,0,0,1,7,367.89L7,368h.07l.06-.15Z"/></g><path id="path11841" class="cls-9" d="M13,367.28l-.33-.61-.18-.34.21-.38.22-.39h.38c.32,0,.38,0,.38,0s0,0,.16,0,.16,0,.21.1l.06.09-.28.54c-.16.3-.37.72-.47.94a2.91,2.91,0,0,1-.2.41,1.93,1.93,0,0,1-.16-.29Z"/><path id="path11843" class="cls-9" d="M10.72,367.27l.33-.62.19-.34-.22-.38-.22-.39h-.37c-.32,0-.38,0-.38,0s0,0-.16,0-.17,0-.22.1l-.05.09.28.54c.15.3.36.72.46.94a2.91,2.91,0,0,0,.2.41,1.93,1.93,0,0,0,.16-.29Z"/><path id="path11845" class="cls-8" d="M14.23,371.53s-.08-.38-.09-.42c-.17-2.25-.35-1.79-1.06-3.15a14.7,14.7,0,0,0-.76-1.52l-.13-.24v-.63h-.67v.63l-.15.26c-.15.26-.56,1.08-.66,1.3l-.06.13a20.8,20.8,0,0,0-1.12,3.39,1.65,1.65,0,0,0,0,.23,14,14,0,0,0,2.38,0c1.31,0,2.37,0,2.37,0Z"/></g><path id="path11849" class="cls-2" d="M8.36,365.4h1"/><path id="path11851" class="cls-2" d="M19.26,370.71H14.35"/><path id="path11853" class="cls-2" d="M17.32,365.4h-1"/><path id="path11855" class="cls-2" d="M15.86,366.22c.14-.28.28-.55.44-.82"/><path id="path11857" class="cls-2" d="M17.32,365.4c.15.27.3.54.44.82"/><path id="path11859" class="cls-2" d="M13.93,365.4h-.76"/><path id="path11861" class="cls-2" d="M12.43,366.32l.44-.85"/><path id="path11863" class="cls-2" d="M13.93,365.4l.24.42"/><path id="path11865" class="cls-2" d="M4.51,370.71H9.42"/><path id="path11867" class="cls-2" d="M6.46,365.4h1"/><path id="path11869" class="cls-2" d="M7.48,365.4c.15.27.3.54.44.82"/><path id="path11871" class="cls-2" d="M6,366.22c.14-.28.28-.55.44-.82"/><path id="path11873" class="cls-2" d="M9.84,365.4h.76"/><path id="path11875" class="cls-2" d="M13.17,365.4a1.07,1.07,0,0,1-.22-.69"/><path id="path11877" class="cls-2" d="M16.65,365.4H13.17"/><path id="path11879" class="cls-2" d="M10.82,364.71a1.07,1.07,0,0,1-.22.69"/><path id="path11881" class="cls-2" d="M7.13,365.4a1.07,1.07,0,0,1-.22-.69"/><path id="path11883" class="cls-2" d="M12.87,365.47h-2"/><path id="path11885" class="cls-2" d="M13.68,365.4l0,.07"/><path id="path11887" class="cls-2" d="M10.15,365.47l-.06-.07"/><path id="path11889" class="cls-2" d="M13.63,365.47H10.15"/><path id="path11891" class="cls-2" d="M10.85,365.47c.16.28.31.57.45.85"/><path id="path11893" class="cls-2" d="M10.85,365.47c.16.28.31.57.45.85"/><path id="path11895" class="cls-2" d="M9.58,365.77l.21-.37"/><path id="path11897" class="cls-2" d="M14.14,370.71c.07.28.13.55.18.83H9.41c.05-.28.11-.55.17-.83"/><path id="path11899" class="cls-2" d="M13.22,367.94a15.12,15.12,0,0,0-.85-1.71v-.76"/><path id="path11901" class="cls-2" d="M11.35,365.47v.76c-.3.53-.57,1.08-.82,1.64"/><path id="path11903" class="cls-10" d="M16.81,368.54a16.31,16.31,0,0,1,1.39-3.14h1a17.06,17.06,0,0,1,1.95,5.31H16.25"/><path id="path11905" class="cls-2" d="M7,365.1a1.08,1.08,0,0,1-.16.3H3.33a1.07,1.07,0,0,1-.22-.69"/><path id="path11907" class="cls-10" d="M7.52,370.71H2.61a17.06,17.06,0,0,1,1.95-5.31h1A17.64,17.64,0,0,1,7,368.54"/><path id="path11909" class="cls-10" d="M15.42,365.4a17,17,0,0,1,1.94,5.31H12.45a17.06,17.06,0,0,1,2-5.31Z"/><path id="path11911" class="cls-29" d="M21.28,310.37V151.5"/><path id="path11913" class="cls-2" d="M2.56,354.89v8.31a3.11,3.11,0,0,0,.49,1.51H20.72a2.91,2.91,0,0,0,.49-1.51v-8.31"/><path id="path11915" class="cls-10" d="M8.36,365.4a17.06,17.06,0,0,0-1.95,5.31h4.91a17.06,17.06,0,0,0-2-5.31"/><path id="path11917" class="cls-2" d="M10.6,365.4H7.13"/><path id="path11919" class="cls-2" d="M20.66,364.71a1,1,0,0,1-.22.69H17a.87.87,0,0,1-.16-.3"/><path id="path11921" class="cls-2" d="M16.86,364.71a1.07,1.07,0,0,1-.21.69"/><path id="path11923" class="cls-2" d="M21.21,360.32H2.56"/><path id="path11925" class="cls-2" d="M21.21,346.32H2.56"/><g id="g11953"><rect id="rect11927" class="cls-19" x="21.3" y="360.72" width="0.48" height="0.45"/><path id="path11929" class="cls-30" d="M18.86,306.1H19l.06,0,.06,0,.06,0,.06,0,.06,0,.07.05.06.05.07.06.06.07.07.08.07.08.07.09.07.1.07.11.07.12.08.13.07.13.08.15.07.15.08.16.07.16.08.17.07.17.07.17.08.17.07.17.06.17.06.17.06.17.06.17.06.17.05.16,0,.17,0,.16,0,.17,0,.17,0,.15,0,0,0,.08,0,.07.06.16,0,.14,0,.14,0,.14.05.14,0,.14,0,.14,0,.13,0,.14,0,.14,0,.14,0,.14,0,.15v.08l0,.07v.08l0,.08V313l0,.08v.09l0,.08v.1l0,.09v0h0V314l.06,1.81.24,7.21.48,14.43.49,14.42.24,7.22v.16h0v.09l0,.09,0,.09,0,.1,0,.09,0,.09,0,.1,0,.09,0,.09,0,.1,0,.09-.05.09,0,.09-.05.09-.06.09-.07.09-.07.09,0,0,0,0,0,0,0,0-.05,0,0,0-.05,0-.05,0,0,0-.05,0-.05,0-.06,0-.06,0,0,0-.06,0-.07,0-.06,0,0,0h-.09v0h0v0h0v-.17l0-.26,0-.26,0-.26,0-.27,0-.26,0-.27,0-.27,0-.27,0-.28,0-.27-.06-.56-.06-.55-.05-.56-.06-.57-.12-1.12-.06-.56-.06-.56-.07-.56,0-.27,0-.28,0-.27,0-.27,0-.27,0-.26,0-.27,0-.26,0-.26,0-.26,0-.25,0-.25,0-.25,0-.25,0-.24,0-.24,0-.23,0-.24,0-.22,0-.23,0-.22,0-.21-.05-.14-.08-.16-.11-.16-.13-.16-.16-.15-.18-.14-.2-.11L19.2,347l-.23,0h-.23l-.24.05-.25.11-.4,1.06-.42,1.16L17,350.48l-.42,1.17-.42,1.16L15.73,354l-.42,1.16-.42,1.17-.42,1.17L14,358.64l-.42,1.17L13.2,361l-.11.28,0,0,0,0,0,0,0,0,0,0,0,0,0,0h0l0,0,0,0H12.4l-.06,0-.05,0,0-.08-.05-.09,0-.11,0-.13,0-.14,0-.15,0-.16,0-.16,0-.17.19-1.82.45-3.82.45-3.81.45-3.82.44-3.81.45-3.82.45-3.81.45-3.82.45-3.81.45-3.82.45-3.81.45-3.82.29-2.58v-3.08l0-.48,0-.45,0-.4,0-.36,0-.32,0-.29,0-.26,0-.23,0-.21.05-.19,0-.17.05-.16,0-.14,0-.13,0-.13,0-.11.05-.1.05-.09.05-.08.05-.08,0-.07.05-.05.05-.06.06,0,.05,0,.06,0,.05,0,.06,0h.17Z"/><path id="path11931" class="cls-31" d="M21.93,361.54l-.68-6.28-.18-2-.61-4.62-.09-.64-.33-.54-.42-.37-.42-.19-.44-.05-.3.05-.26.2-5.09,14.13-.3.27-.35.06,0-.24,7.69-20.67.37-.42L21,340l.42.11.17.52,1.61,19.91-.39.5-.39.35Z"/><path id="path11933" class="cls-2" d="M17.38,311l1.23-1.3"/><path id="path11935" class="cls-2" d="M18.61,309.65H21"/><path id="path11937" class="cls-2" d="M21.13,340,21,315.89"/><path id="path11939" class="cls-2" d="M21,315.89,18.8,313"/><path id="path11941" class="cls-2" d="M21,315.89l1-2.67"/><path id="path11943" class="cls-22" d="M18.8,313l-.19-3.32"/><path id="path11945" class="cls-2" d="M21.82,360.64h-.61"/><path id="path11947" class="cls-2" d="M21.9,361.3h-.69"/><path id="path11949" class="cls-2" d="M23.14,360.54,23,359l-.11-1.5-.12-1.5-.12-1.5L22.55,353l-.12-1.5-.12-1.5-.12-1.5-.11-1.5-.12-1.5L21.84,344l-.12-1.5L21.6,341l-.05-.48,0-.11,0-.11,0-.08-.05-.07-.06-.06-.06,0-.06,0h-.32l-.06,0-.07,0-.06,0-.06,0-.06.05,0,0-.06.06,0,.05-.05.06-.05.07-.05.06-.05.06,0,.07-.18.44-.58,1.57-.58,1.57-.59,1.56-.58,1.57L17.09,349l-.58,1.57-.59,1.57-.58,1.57-.58,1.57-.59,1.57-.58,1.57L13,360l-.58,1.57"/><path id="path11951" class="cls-2" d="M18.86,306.1H19l.06,0,.06,0,.06,0,.06,0,.06,0,.07.05.06.05.07.06.06.07.07.08.07.08.07.09.07.1.07.11.07.12.08.13.07.13.08.15.07.15.08.16.07.16.08.17.07.17.07.17.08.17.07.17.06.17.06.17.06.17.06.17.06.17.05.16,0,.17,0,.16,0,.17,0,.17,0,.15,0,0,0,.08,0,.07.06.16,0,.14,0,.14,0,.14.05.14,0,.14,0,.14,0,.13,0,.14,0,.14,0,.14,0,.14,0,.15v.08l0,.07v.08l0,.08V313l0,.08v.09l0,.08v.1l0,.09v0h0V314l.06,1.81.24,7.21.48,14.43.49,14.42.24,7.22v.16h0v.09l0,.09,0,.09,0,.1,0,.09,0,.09,0,.1,0,.09,0,.09,0,.1,0,.09-.05.09,0,.09-.05.09-.06.09-.07.09-.07.09,0,0,0,0,0,0,0,0-.05,0,0,0-.05,0-.05,0,0,0-.05,0-.05,0-.06,0-.06,0,0,0-.06,0-.07,0-.06,0,0,0h-.09v0h0v0h0v-.17l0-.26,0-.26,0-.26,0-.27,0-.26,0-.27,0-.27,0-.27,0-.28,0-.27-.06-.56-.06-.55-.05-.56-.06-.57-.12-1.12-.06-.56-.06-.56-.07-.56,0-.27,0-.28,0-.27,0-.27,0-.27,0-.26,0-.27,0-.26,0-.26,0-.26,0-.25,0-.25,0-.25,0-.25,0-.24,0-.24,0-.23,0-.24,0-.22,0-.23,0-.22,0-.21-.05-.14-.08-.16-.11-.16-.13-.16-.16-.15-.18-.14-.2-.11L19.2,347l-.23,0h-.23l-.24.05-.25.11-.4,1.06-.42,1.16L17,350.48l-.42,1.17-.42,1.16L15.73,354l-.42,1.16-.42,1.17-.42,1.17L14,358.64l-.42,1.17L13.2,361l-.11.28,0,0,0,0,0,0,0,0,0,0,0,0,0,0h0l0,0,0,0H12.4l-.06,0-.05,0,0-.08-.05-.09,0-.11,0-.13,0-.14,0-.15,0-.16,0-.16,0-.17.19-1.82.45-3.82.45-3.81.45-3.82.44-3.81.45-3.82.45-3.81.45-3.82.45-3.81.45-3.82.45-3.81.45-3.82.29-2.58v-3.08l0-.48,0-.45,0-.4,0-.36,0-.32,0-.29,0-.26,0-.23,0-.21.05-.19,0-.17.05-.16,0-.14,0-.13,0-.13,0-.11.05-.1.05-.09.05-.08.05-.08,0-.07.05-.05.05-.06.06,0,.05,0,.06,0,.05,0,.06,0h.17Z"/></g><g id="g11981"><rect id="rect11955" class="cls-19" x="1.99" y="360.72" width="0.48" height="0.45"/><path id="path11957" class="cls-32" d="M4.91,306.1H4.79l-.06,0-.06,0-.06,0-.06,0-.06,0-.06.05-.07.05-.06.06-.07.07-.07.08-.06.08-.08.09-.06.1-.08.11-.07.12-.07.13-.08.13-.07.15-.08.15-.08.16-.07.16-.08.17-.07.17-.07.17-.07.17-.07.17-.07.17-.06.17-.06.17-.06.17,0,.17-.05.16,0,.17,0,.16,0,.17,0,.17,0,.15,0,0,0,.08,0,.07-.05.16,0,.14,0,.14,0,.14,0,.14,0,.14,0,.14,0,.13,0,.14,0,.14,0,.14,0,.14,0,.15v.08l0,.07V313l0,.09v.08l0,.09v.08l0,.1v.14h0v0l0,.45-.06,1.81-.24,7.21L.93,337.48.45,351.9l-.24,7.22v.16h0v.18l0,.09,0,.1,0,.09,0,.09,0,.1,0,.09,0,.09,0,.1,0,.09.05.09,0,.09.05.09.06.09.07.09.07.09,0,0,0,0,0,0,0,0,0,0,.05,0,0,0,.05,0,.05,0,.05,0,.05,0,.06,0,.06,0,.06,0,.06,0,.06,0,.07,0,0,0h.09v0h0v0h0v0l0-.12,0-.26,0-.26,0-.26,0-.27L2,360l0-.27,0-.27,0-.27,0-.28,0-.27.06-.56.06-.55.06-.56.06-.57.12-1.12.05-.56.07-.56.06-.56,0-.27,0-.28,0-.27,0-.27,0-.27,0-.26,0-.27,0-.26,0-.26,0-.26,0-.25,0-.25,0-.25,0-.25,0-.24,0-.24,0-.23,0-.24,0-.22,0-.23,0-.22,0-.21,0-.14.08-.16.11-.16.13-.16.16-.15.18-.14.2-.11.22-.09.22,0H5l.24.05.24.11.4,1.06.43,1.16.42,1.17.42,1.17.42,1.16L8,354l.42,1.16.42,1.17.43,1.17.42,1.16.42,1.17.42,1.17.11.28,0,0,0,0,0,0,0,0,0,0,0,0,0,0h0l0,0,0,0h.43l0,0,.05,0,0-.08.05-.09.05-.11,0-.13,0-.14,0-.15,0-.16,0-.16,0-.17-.2-1.82-.44-3.82-.45-3.81L10.3,347l-.45-3.81-.45-3.82L9,335.58l-.45-3.82L8.05,328l-.44-3.82-.45-3.81-.45-3.82-.3-2.58v-3.08l0-.48,0-.45,0-.4,0-.36,0-.32,0-.29,0-.26,0-.23,0-.21,0-.19,0-.17,0-.16-.05-.14,0-.13,0-.13,0-.11,0-.1,0-.09-.05-.08,0-.08,0-.07,0-.05,0-.06-.05,0-.06,0,0,0-.06,0,0,0H4.91Z"/><path id="path11959" class="cls-33" d="M1.84,361.54l.69-6.28.17-2,.61-4.62L3.4,348l.33-.54.42-.37.42-.19.44-.05.3.05.26.2,5.1,14.13.29.27.35.06,0-.24L3.6,340.68l-.37-.42L2.82,340l-.42.11-.17.52L.62,360.53,1,361l.39.35Z"/><path id="path11961" class="cls-2" d="M6.39,311l-1.23-1.3"/><path id="path11963" class="cls-2" d="M5.16,309.65H2.73"/><path id="path11965" class="cls-2" d="M2.64,340l.17-24.12"/><path id="path11967" class="cls-2" d="M2.81,315.89,5,313"/><path id="path11969" class="cls-2" d="M2.81,315.89l-1-2.67"/><path id="path11971" class="cls-22" d="M5,313l.19-3.32"/><path id="path11973" class="cls-2" d="M2,360.64h.61"/><path id="path11975" class="cls-2" d="M1.87,361.3h.69"/><path id="path11977" class="cls-2" d="M.63,360.54.75,359l.12-1.5L1,356l.11-1.5L1.22,353l.12-1.5.12-1.5.12-1.5L1.7,347l.11-1.5L1.93,344l.12-1.5.12-1.5.05-.48,0-.11,0-.11,0-.08.05-.07,0-.06.06,0,.06,0h.32l.07,0,.06,0,.06,0,.06,0,.06.05.06,0,0,.06.06.05.05.06,0,.07,0,.06,0,.06,0,.07.18.44.58,1.57.59,1.57.58,1.56.58,1.57L6.68,349l.59,1.57.58,1.57.58,1.57L9,355.26l.58,1.57.58,1.57.58,1.57.59,1.57"/><path id="path11979" class="cls-2" d="M4.91,306.1H4.79l-.06,0-.06,0-.06,0-.06,0-.06,0-.06.05-.07.05-.06.06-.07.07-.07.08-.06.08-.08.09-.06.1-.08.11-.07.12-.07.13-.08.13-.07.15-.08.15-.08.16-.07.16-.08.17-.07.17-.07.17-.07.17-.07.17-.07.17-.06.17-.06.17-.06.17,0,.17-.05.16,0,.17,0,.16,0,.17,0,.17,0,.15,0,0,0,.08,0,.07-.05.16,0,.14,0,.14,0,.14,0,.14,0,.14,0,.14,0,.13,0,.14,0,.14,0,.14,0,.14,0,.15v.08l0,.07V313l0,.09v.08l0,.09v.08l0,.1v.14h0v0l0,.45-.06,1.81-.24,7.21L.93,337.48.45,351.9l-.24,7.22v.16h0v.18l0,.09,0,.1,0,.09,0,.09,0,.1,0,.09,0,.09,0,.1,0,.09.05.09,0,.09.05.09.06.09.07.09.07.09,0,0,0,0,0,0,0,0,0,0,.05,0,0,0,.05,0,.05,0,.05,0,.05,0,.06,0,.06,0,.06,0,.06,0,.06,0,.07,0,0,0h.09v0h0v0h0v0l0-.12,0-.26,0-.26,0-.26,0-.27L2,360l0-.27,0-.27,0-.27,0-.28,0-.27.06-.56.06-.55.06-.56.06-.57.12-1.12.05-.56.07-.56.06-.56,0-.27,0-.28,0-.27,0-.27,0-.27,0-.26,0-.27,0-.26,0-.26,0-.26,0-.25,0-.25,0-.25,0-.25,0-.24,0-.24,0-.23,0-.24,0-.22,0-.23,0-.22,0-.21,0-.14.08-.16.11-.16.13-.16.16-.15.18-.14.2-.11.22-.09.22,0H5l.24.05.24.11.4,1.06.43,1.16.42,1.17.42,1.17.42,1.16L8,354l.42,1.16.42,1.17.43,1.17.42,1.16.42,1.17.42,1.17.11.28,0,0,0,0,0,0,0,0,0,0,0,0,0,0h0l0,0,0,0h.43l0,0,.05,0,0-.08.05-.09.05-.11,0-.13,0-.14,0-.15,0-.16,0-.16,0-.17-.2-1.82-.44-3.82-.45-3.81L10.3,347l-.45-3.81-.45-3.82L9,335.58l-.45-3.82L8.05,328l-.44-3.82-.45-3.81-.45-3.82-.3-2.58v-3.08l0-.48,0-.45,0-.4,0-.36,0-.32,0-.29,0-.26,0-.23,0-.21,0-.19,0-.17,0-.16-.05-.14,0-.13,0-.13,0-.11,0-.1,0-.09-.05-.08,0-.08,0-.07,0-.05,0-.06-.05,0-.06,0,0,0-.06,0,0,0H4.91Z"/></g><path id="path11983" class="cls-12" d="M2.63,151.5V310.37"/><path id="path11985" class="cls-2" d="M21.21,151.69H2.56"/><g id="g12139"><g id="g12061"><path id="path11987" class="cls-13" d="M4.53,146.38l-.82.38-.22.9.58.74,1.07,0,.61-.67-.15-.84-.44-.51Z"/><path id="path11989" class="cls-14" d="M6.29,148.54l.53-.06,1.29,1.59,0,.93.17.77-.21.84.19.93-.12.78.14.68-.21.69.19.82-.08.55.06.82-.65.2,0-7.92Z"/><path id="path11991" class="cls-15" d="M7.63,158.13l-5.87,0v-7.95l1.72-2.6.69,1,.9.06.37-.35L6,148l.28.66,1.35,1.53Z"/><path id="path11993" class="cls-16" d="M7.59,150.17V158H1.8l5.79-7.86-1.3-1.63-.39-1"/><path id="path11995" class="cls-16" d="M7.58,152l-4.53,6"/><path id="path11997" class="cls-16" d="M4.25,158l3.34-4.4"/><path id="path11999" class="cls-16" d="M5.34,158l2.25-2.74"/><path id="path12001" class="cls-16" d="M6.54,158l1-1.32"/><path id="path12003" class="cls-16" d="M1.8,158v-7.9l1.14-1.73"/><path id="path12005" class="cls-16" d="M7.57,158l-5.75-7.88"/><path id="path12007" class="cls-16" d="M1.79,152l4.53,6"/><path id="path12009" class="cls-16" d="M5.17,158l-3.34-4.4"/><path id="path12011" class="cls-16" d="M4,158l-2.23-2.73"/><path id="path12013" class="cls-16" d="M5.34,158l2.25-2.74"/><path id="path12015" class="cls-16" d="M2.86,158l-1-1.32"/><path id="path12017" class="cls-16" d="M7.57,156.53l-5.21-7.26"/><path id="path12019" class="cls-16" d="M7.6,155l-4.12-5.87"/><path id="path12021" class="cls-16" d="M1.8,156.49l5.13-7.13"/><path id="path12023" class="cls-16" d="M1.8,154.94l4-5.68"/><path id="path12025" class="cls-16" d="M7.61,153.36l-2.94-4.18-1.24-1.52"/><path id="path12027" class="cls-16" d="M1.78,153.36l2.89-4.22,1.25-1.61"/><path id="path12029" class="cls-16" d="M7.59,151.77l-1.8-2.5"/><path id="path12031" class="cls-16" d="M1.82,151.75l1.66-2.58"/><path id="path12033" class="cls-17" d="M2.91,148.45l.24,0,.32.74-.08-.78,0-.75Z"/><path id="path12035" class="cls-17" d="M6.29,148.54l-.19,0-.32.71.11-.88v-.84Z"/><path id="path12037" class="cls-17" d="M4.7,147.62v.71h.13l.24.24-.42.56-.52-.51.22-.27.13,0v-.73Z"/><path id="path12039" class="cls-16" d="M5.09,148.62l.75.07"/><path id="path12041" class="cls-16" d="M4.11,148.62l-.7.07"/><path id="path12043" class="cls-16" d="M6.25,148.51l.57,0a1.68,1.68,0,0,0,.23.45,2,2,0,0,0,.52.27.89.89,0,0,0,.09.43,2.21,2.21,0,0,0,.53.41,3.57,3.57,0,0,0-.12.82,4.16,4.16,0,0,0,.26.82,3.16,3.16,0,0,0-.25.85,3,3,0,0,0,.24.8,5.23,5.23,0,0,0-.2.91,3.21,3.21,0,0,0,.17.78,2.87,2.87,0,0,0-.21.81,2.31,2.31,0,0,0,.25.72,2.77,2.77,0,0,0-.2.71,2.08,2.08,0,0,0,.2.61l-.72.21"/><path id="path12045" class="cls-16" d="M8.18,150l-.54.13"/><path id="path12047" class="cls-16" d="M6.94,149.4,7,151"/><path id="path12049" class="cls-16" d="M5.8,149.33l.07,1.46"/><path id="path12051" class="cls-16" d="M3.49,149.24l0,1.55"/><path id="path12053" class="cls-16" d="M2.36,149.32v1.56"/><path id="path12055" class="cls-18" d="M6.18,147.6H5.7L5.62,147l-.33-.47-.59-.18-.42-.06.48-.36H5.5l.5.41.18.67Z"/><path id="path12057" class="cls-16" d="M4.06,146.44a4.35,4.35,0,0,1,.65-.42,1.6,1.6,0,0,1,.61-.07,1,1,0,0,1,.51.2,1,1,0,0,1,.26.44,2.35,2.35,0,0,1,.1.58c0,.18,0,.55,0,.55l-.46.42"/><path id="path12059" class="cls-16" d="M5.71,147.52a1.93,1.93,0,0,0-.09-.5,1.12,1.12,0,0,0-.42-.54,1.12,1.12,0,0,0-.55-.08,1.4,1.4,0,0,0-.54,0,1,1,0,0,0-.43.31,1,1,0,0,0-.12.35c0,.18-.08.56-.08.56"/></g><g id="g12137"><path id="path12063" class="cls-13" d="M19.26,146.38l.82.38.22.9-.57.74-1.08,0-.61-.67.16-.84.43-.51Z"/><path id="path12065" class="cls-14" d="M17.5,148.54l-.53-.06-1.29,1.59,0,.93-.16.77.2.84-.18.93.12.78-.14.68.2.69-.18.82.08.55-.06.82.64.2,0-7.92Z"/><path id="path12067" class="cls-15" d="M16.17,158.13l5.86,0v-7.95l-1.71-2.6-.69,1-.91.06-.37-.35L17.8,148l-.29.66-1.34,1.53Z"/><path id="path12069" class="cls-16" d="M16.21,150.17V158H22l-5.78-7.86,1.3-1.63.38-1"/><path id="path12071" class="cls-16" d="M16.21,152l4.53,6"/><path id="path12073" class="cls-16" d="M19.55,158l-3.34-4.4"/><path id="path12075" class="cls-16" d="M18.45,158l-2.24-2.74"/><path id="path12077" class="cls-16" d="M17.26,158l-1.05-1.32"/><path id="path12079" class="cls-16" d="M22,158v-7.9l-1.14-1.73"/><path id="path12081" class="cls-16" d="M16.22,158,22,150.15"/><path id="path12083" class="cls-16" d="M22,152l-4.53,6"/><path id="path12085" class="cls-16" d="M18.62,158l3.34-4.4"/><path id="path12087" class="cls-16" d="M19.75,158,22,155.26"/><path id="path12089" class="cls-16" d="M18.45,158l-2.24-2.74"/><path id="path12091" class="cls-16" d="M20.93,158,22,156.71"/><path id="path12093" class="cls-16" d="M16.22,156.53l5.21-7.26"/><path id="path12095" class="cls-16" d="M16.19,155l4.12-5.87"/><path id="path12097" class="cls-16" d="M22,156.49l-5.13-7.13"/><path id="path12099" class="cls-16" d="M22,154.94l-4-5.68"/><path id="path12101" class="cls-16" d="M16.18,153.36l2.94-4.18,1.25-1.52"/><path id="path12103" class="cls-16" d="M22,153.36l-2.89-4.22-1.25-1.61"/><path id="path12105" class="cls-16" d="M16.21,151.77l1.8-2.5"/><path id="path12107" class="cls-16" d="M22,151.75l-1.66-2.58"/><path id="path12109" class="cls-17" d="M20.89,148.45l-.24,0-.33.74.09-.78,0-.75Z"/><path id="path12111" class="cls-17" d="M17.5,148.54l.2,0,.31.71-.11-.88v-.84Z"/><path id="path12113" class="cls-17" d="M19.09,147.62v.71H19l-.24.24.42.56.53-.51-.23-.27-.13,0v-.73Z"/><path id="path12115" class="cls-16" d="M18.7,148.62l-.75.07"/><path id="path12117" class="cls-16" d="M19.68,148.62l.7.07"/><path id="path12119" class="cls-16" d="M17.54,148.51l-.57,0a1.42,1.42,0,0,1-.23.45,2,2,0,0,1-.51.27,1,1,0,0,1-.1.43,2,2,0,0,1-.52.41,3.76,3.76,0,0,1,.11.82,3.71,3.71,0,0,1-.25.82,3.25,3.25,0,0,1,.24.85,2.72,2.72,0,0,1-.23.8,4.62,4.62,0,0,1,.19.91,3.38,3.38,0,0,1-.16.78,3,3,0,0,1,.2.81,2.38,2.38,0,0,1-.24.72,2.89,2.89,0,0,1,.19.71,2.17,2.17,0,0,1-.19.61l.71.21"/><path id="path12121" class="cls-16" d="M15.62,150l.53.13"/><path id="path12123" class="cls-16" d="M16.85,149.4,16.78,151"/><path id="path12125" class="cls-16" d="M18,149.33l-.07,1.46"/><path id="path12127" class="cls-16" d="M20.3,149.24v1.55"/><path id="path12129" class="cls-16" d="M21.43,149.32v1.56"/><path id="path12131" class="cls-18" d="M17.61,147.6h.48l.08-.56.33-.47.59-.18.43-.06L19,146H18.3l-.5.41-.19.67Z"/><path id="path12133" class="cls-16" d="M19.73,146.44a4.35,4.35,0,0,0-.65-.42,1.6,1.6,0,0,0-.61-.07,1,1,0,0,0-.5.2,1.05,1.05,0,0,0-.27.44,2.94,2.94,0,0,0-.1.58c0,.18,0,.55,0,.55l.47.42"/><path id="path12135" class="cls-16" d="M18.09,147.52a1.79,1.79,0,0,1,.08-.5,1.19,1.19,0,0,1,.42-.54,1.14,1.14,0,0,1,.55-.08,1.45,1.45,0,0,1,.55,0,.93.93,0,0,1,.42.31.86.86,0,0,1,.12.35,4.17,4.17,0,0,1,.08.56"/></g></g></g><g id="g4174"><rect id="rect9630" class="cls-34" x="23.79" y="68.3" width="18.67" height="292"/><rect id="rect9632" class="cls-35" x="23.79" y="115.95" width="18.67" height="35.7"/><rect id="rect9634" class="cls-36" x="23.79" y="346.26" width="18.67" height="14.11"/><path id="path9636" class="cls-6" d="M24.66,365.16a.7.7,0,0,1-.08-.23v0H28V365c0,.12,0,.15,0,.19l0,.05H24.68l0-.05h0Z"/><path id="path9638" class="cls-6" d="M28.44,365.14a1.83,1.83,0,0,1-.07-.23s.72,0,1.74,0h1.75v0a.74.74,0,0,1-.07.21l0,.06H28.48l0-.07Z"/><path id="path9640" class="cls-6" d="M32.16,365.27l0-.07a2.3,2.3,0,0,0,.07-.26v0h.87c.83,0,.88,0,.89,0a.23.23,0,0,0,0,.07,1,1,0,0,0,0,.17l0,.11h-2Z"/><path id="path9642" class="cls-6" d="M34.49,365.14a1.06,1.06,0,0,1-.08-.23s.73,0,1.75,0c1.3,0,1.74,0,1.74,0a1.06,1.06,0,0,1-.07.22l0,.06H34.52l0-.07Z"/><path id="path9644" class="cls-6" d="M38.3,365.17c0-.06,0-.08,0-.17l0-.09h3.4v0l-.08.21,0,.06H38.32l0,0Z"/><path id="path9646" class="cls-37" d="M23.82,360.27l18.57,0v3.28l-.7,1.75-17.17-.06-.69-1.75Z"/><g id="g9660"><g id="g9652"><path id="path9648" class="cls-8" d="M28.1,368c-.19-.48-.45-1-.7-1.53l-.1-.19,0-.08c.08-.13.24-.42.34-.58l0-.06h1l0,.06c.09.14.3.53.35.62l0,0-.05.1c-.27.53-.55,1.13-.77,1.68l0,.1h-.07L28.1,368Z"/><path id="path9650" class="cls-8" d="M37.91,367.83c-.19-.48-.45-1-.7-1.53l-.1-.19,0-.08.33-.58,0-.06h1l0,.06c.08.14.3.52.35.62l0,0,0,.1c-.28.53-.55,1.13-.78,1.68l0,.09H38l-.06-.15Z"/></g><path id="path9654" class="cls-9" d="M32,367.28l.33-.61.19-.34-.22-.38-.22-.39h-.38c-.32,0-.37,0-.37,0s0,0-.17,0-.16,0-.21.1l-.06.09.29.54c.15.3.36.72.46.94a2.91,2.91,0,0,0,.2.41,1.93,1.93,0,0,0,.16-.29Z"/><path id="path9656" class="cls-9" d="M34.3,367.27l-.33-.62-.19-.34.22-.38.22-.39h.37c.33,0,.38,0,.38,0s0,0,.16,0,.17,0,.22.1l0,.09-.28.54c-.15.3-.36.72-.46.94a2.91,2.91,0,0,1-.2.41,1.93,1.93,0,0,1-.16-.29Z"/><path id="path9658" class="cls-8" d="M30.79,371.53s.08-.38.09-.42c.17-2.25.35-1.79,1.06-3.15a14.7,14.7,0,0,1,.76-1.52l.13-.24v-.63h.68v.63l.14.26c.15.26.57,1.08.66,1.3l.06.13a20.8,20.8,0,0,1,1.12,3.39,1.65,1.65,0,0,1,0,.23,14,14,0,0,1-2.38,0c-1.3,0-2.37,0-2.37,0Z"/></g><path id="path9662" class="cls-2" d="M23.81,116H42.46"/><path id="path9664" class="cls-2" d="M36.67,365.4h-1"/><path id="path9666" class="cls-2" d="M25.76,370.71h4.91"/><path id="path9668" class="cls-2" d="M27.7,365.4h1"/><path id="path9670" class="cls-2" d="M29.16,366.22c-.14-.28-.28-.55-.44-.82"/><path id="path9672" class="cls-2" d="M27.7,365.4c-.15.27-.3.54-.44.82"/><path id="path9674" class="cls-2" d="M31.09,365.4h.76"/><path id="path9676" class="cls-2" d="M32.59,366.32c-.14-.28-.28-.57-.44-.85"/><path id="path9678" class="cls-2" d="M31.09,365.4l-.24.42"/><path id="path9680" class="cls-2" d="M40.51,370.71H35.6"/><path id="path9682" class="cls-2" d="M38.56,365.4h-1"/><path id="path9684" class="cls-2" d="M37.55,365.4a9.27,9.27,0,0,0-.44.82"/><path id="path9686" class="cls-2" d="M39,366.22c-.14-.28-.28-.55-.44-.82"/><path id="path9688" class="cls-2" d="M35.18,365.4h-.76"/><path id="path9690" class="cls-2" d="M31.85,365.4a1.07,1.07,0,0,0,.22-.69"/><path id="path9692" class="cls-2" d="M28.37,365.4h3.48"/><path id="path9694" class="cls-2" d="M34.2,364.71a1.07,1.07,0,0,0,.22.69"/><path id="path9696" class="cls-2" d="M37.89,365.4a1,1,0,0,0,.22-.69"/><path id="path9698" class="cls-2" d="M32.15,365.47h2"/><path id="path9700" class="cls-2" d="M31.34,365.4l.06.07"/><path id="path9702" class="cls-2" d="M34.87,365.47l.06-.07"/><path id="path9704" class="cls-2" d="M31.4,365.47h3.47"/><path id="path9706" class="cls-2" d="M34.17,365.47c-.16.28-.31.57-.45.85"/><path id="path9708" class="cls-2" d="M34.17,365.47c-.16.28-.31.57-.45.85"/><path id="path9710" class="cls-2" d="M35.44,365.77l-.21-.37"/><path id="path9712" class="cls-38" d="M42.46,68.37v242"/><path id="path9714" class="cls-2" d="M30.88,370.71c-.07.28-.12.55-.18.83h4.91c0-.28-.11-.55-.17-.83"/><path id="path9716" class="cls-2" d="M31.8,367.94a17,17,0,0,1,.85-1.71v-.76"/><path id="path9718" class="cls-2" d="M33.67,365.47v.76a16.72,16.72,0,0,1,.82,1.64"/><path id="path9720" class="cls-10" d="M28.21,368.54a16.31,16.31,0,0,0-1.39-3.14h-1a17.06,17.06,0,0,0-1.95,5.31h4.91"/><path id="path9722" class="cls-2" d="M38.05,365.1a1.43,1.43,0,0,0,.16.3h3.48a1.07,1.07,0,0,0,.22-.69"/><path id="path9724" class="cls-10" d="M37.5,370.71h4.91a17.06,17.06,0,0,0-1.95-5.31h-1a17.64,17.64,0,0,0-1.39,3.14"/><path id="path9726" class="cls-10" d="M29.6,365.4a17,17,0,0,0-1.94,5.31h4.91a17.06,17.06,0,0,0-1.95-5.31Z"/><path id="path9728" class="cls-39" d="M23.81,310.37v-242"/><path id="path9730" class="cls-2" d="M42.46,354.89v8.31a3.11,3.11,0,0,1-.49,1.51H24.3a3,3,0,0,1-.49-1.51v-8.31"/><path id="path9732" class="cls-10" d="M36.67,365.4a17.29,17.29,0,0,1,1.94,5.31H33.7a17.06,17.06,0,0,1,1.95-5.31"/><path id="path9734" class="cls-2" d="M34.42,365.4h3.47"/><path id="path9736" class="cls-2" d="M24.36,364.71a1.07,1.07,0,0,0,.22.69h3.47a.87.87,0,0,0,.16-.3"/><path id="path9738" class="cls-2" d="M28.16,364.71a1.07,1.07,0,0,0,.21.69"/><path id="path9740" class="cls-2" d="M23.81,151.69H42.46"/><path id="path9830" class="cls-2" d="M23.81,360.32H42.46"/><path id="path9832" class="cls-2" d="M23.81,346.32H42.46"/><g id="g9860"><rect id="rect9834" class="cls-19" x="23.24" y="360.72" width="0.48" height="0.45"/><path id="path9836" class="cls-40" d="M26.16,306.1H26l-.06,0-.06,0-.06,0-.06,0-.06,0-.07.05-.06.05-.07.06-.06.07-.07.08-.07.08-.07.09-.07.1-.07.11-.07.12-.07.13-.08.13-.07.15-.08.15-.08.16-.07.16-.08.17-.07.17-.07.17-.07.17-.07.17-.07.17-.06.17-.06.17-.06.17-.06.17-.05.16,0,.17,0,.16,0,.17,0,.17,0,.15,0,0,0,.08,0,.07-.06.16,0,.14,0,.14,0,.14,0,.14,0,.14,0,.14,0,.13,0,.14,0,.14,0,.14,0,.14,0,.15v.08l0,.07v.08l0,.08V313l0,.08v.09l0,.08v.24h0V314l-.06,1.81-.24,7.21-.48,14.43-.49,14.42-.24,7.22v.16h0v.09l0,.09,0,.09,0,.1,0,.09,0,.09,0,.1,0,.09,0,.09,0,.1,0,.09.05.09.05.09,0,.09.06.09.07.09.07.09,0,0,0,0,0,0,.05,0,0,0,0,0,.05,0,.05,0,0,0,.05,0,.05,0,.06,0,.06,0,.05,0,.07,0,.06,0,.06,0,0,0h.09v0h0v0h0v-.17l0-.26,0-.26,0-.26,0-.27,0-.26,0-.27,0-.27,0-.27,0-.28,0-.27.06-.56.06-.55.05-.56.06-.57.12-1.12.06-.56.07-.56.06-.56,0-.27,0-.28,0-.27,0-.27,0-.27,0-.26,0-.27,0-.26,0-.26,0-.26,0-.25,0-.25,0-.25,0-.25,0-.24,0-.24,0-.23,0-.24,0-.22,0-.23,0-.22,0-.21.05-.14.08-.16.11-.16.13-.16.16-.15.18-.14.2-.11.22-.09.22,0h.23l.24.05.25.11.4,1.06.42,1.16.43,1.17.42,1.17.42,1.16.43,1.17.42,1.16.42,1.17.42,1.17.43,1.16.42,1.17.42,1.17.11.28,0,0,0,0,0,0,0,0,0,0,0,0,0,0h0l0,0,0,0h.44l0,0,0,0,.05-.08,0-.09.05-.11,0-.13,0-.14,0-.15,0-.16,0-.16,0-.17-.19-1.82-.45-3.82L32,350.84,31.55,347l-.45-3.81-.45-3.82-.45-3.81-.45-3.82L29.3,328l-.45-3.82-.45-3.81L28,316.5l-.3-2.58v-3.08l0-.48,0-.45,0-.4,0-.36,0-.32,0-.29,0-.26,0-.23,0-.21-.05-.19,0-.17-.05-.16,0-.14-.05-.13,0-.13-.05-.11-.05-.1-.05-.09-.05-.08,0-.08-.05-.07-.05-.05-.05-.06-.06,0-.05,0-.06,0-.05,0-.06,0h-.17Z"/><path id="path9838" class="cls-41" d="M23.09,361.54l.68-6.28.18-2,.61-4.62.09-.64.33-.54.42-.37.42-.19.44-.05.3.05.26.2,5.1,14.13.29.27.35.06,0-.24-7.69-20.67-.37-.42-.41-.27-.42.11-.17.52-1.61,19.91.39.5.39.35Z"/><path id="path9840" class="cls-2" d="M27.64,311l-1.23-1.3"/><path id="path9842" class="cls-2" d="M26.41,309.65H24"/><path id="path9844" class="cls-2" d="M23.89,340l.17-24.12"/><path id="path9846" class="cls-2" d="M24.06,315.89,26.22,313"/><path id="path9848" class="cls-2" d="M24.06,315.89l-1-2.67"/><path id="path9850" class="cls-22" d="M26.22,313l.19-3.32"/><path id="path9852" class="cls-2" d="M23.2,360.64h.61"/><path id="path9854" class="cls-2" d="M23.12,361.3h.69"/><path id="path9856" class="cls-2" d="M21.88,360.54,22,359l.12-1.5.11-1.5.12-1.5.12-1.51.12-1.5.12-1.5.12-1.5.11-1.5.12-1.5.12-1.51.12-1.5.12-1.5,0-.48,0-.11,0-.11,0-.08.05-.07.06-.06.06,0,.06,0h.32l.07,0,.06,0,.06,0,.06,0,.06.05.06,0,.05.06.05.05.06.06,0,.07.05.06.05.06,0,.07.18.44.58,1.57.58,1.57.59,1.56.58,1.57.58,1.57.58,1.57.59,1.57.58,1.57.58,1.57.59,1.57.58,1.57L32,360l.58,1.57"/><path id="path9858" class="cls-2" d="M26.16,306.1H26l-.06,0-.06,0-.06,0-.06,0-.06,0-.07.05-.06.05-.07.06-.06.07-.07.08-.07.08-.07.09-.07.1-.07.11-.07.12-.07.13-.08.13-.07.15-.08.15-.08.16-.07.16-.08.17-.07.17-.07.17-.07.17-.07.17-.07.17-.06.17-.06.17-.06.17-.06.17-.05.16,0,.17,0,.16,0,.17,0,.17,0,.15,0,0,0,.08,0,.07-.06.16,0,.14,0,.14,0,.14,0,.14,0,.14,0,.14,0,.13,0,.14,0,.14,0,.14,0,.14,0,.15v.08l0,.07v.08l0,.08V313l0,.08v.09l0,.08v.24h0V314l-.06,1.81-.24,7.21-.48,14.43-.49,14.42-.24,7.22v.16h0v.09l0,.09,0,.09,0,.1,0,.09,0,.09,0,.1,0,.09,0,.09,0,.1,0,.09.05.09.05.09,0,.09.06.09.07.09.07.09,0,0,0,0,0,0,.05,0,0,0,0,0,.05,0,.05,0,0,0,.05,0,.05,0,.06,0,.06,0,.05,0,.07,0,.06,0,.06,0,0,0h.09v0h0v0h0v-.17l0-.26,0-.26,0-.26,0-.27,0-.26,0-.27,0-.27,0-.27,0-.28,0-.27.06-.56.06-.55.05-.56.06-.57.12-1.12.06-.56.07-.56.06-.56,0-.27,0-.28,0-.27,0-.27,0-.27,0-.26,0-.27,0-.26,0-.26,0-.26,0-.25,0-.25,0-.25,0-.25,0-.24,0-.24,0-.23,0-.24,0-.22,0-.23,0-.22,0-.21.05-.14.08-.16.11-.16.13-.16.16-.15.18-.14.2-.11.22-.09.22,0h.23l.24.05.25.11.4,1.06.42,1.16.43,1.17.42,1.17.42,1.16.43,1.17.42,1.16.42,1.17.42,1.17.43,1.16.42,1.17.42,1.17.11.28,0,0,0,0,0,0,0,0,0,0,0,0,0,0h0l0,0,0,0h.44l0,0,0,0,.05-.08,0-.09.05-.11,0-.13,0-.14,0-.15,0-.16,0-.16,0-.17-.19-1.82-.45-3.82L32,350.84,31.55,347l-.45-3.81-.45-3.82-.45-3.81-.45-3.82L29.3,328l-.45-3.82-.45-3.81L28,316.5l-.3-2.58v-3.08l0-.48,0-.45,0-.4,0-.36,0-.32,0-.29,0-.26,0-.23,0-.21-.05-.19,0-.17-.05-.16,0-.14-.05-.13,0-.13-.05-.11-.05-.1-.05-.09-.05-.08,0-.08-.05-.07-.05-.05-.05-.06-.06,0-.05,0-.06,0-.05,0-.06,0h-.17Z"/></g><g id="g9888"><rect id="rect9862" class="cls-19" x="42.55" y="360.72" width="0.48" height="0.45"/><path id="path9864" class="cls-42" d="M40.11,306.1h.12l.06,0,.06,0,.06,0,.06,0,.06,0,.07.05.06.05.06.06.07.07.07.08.07.08.07.09.06.1.08.11.07.12.07.13.08.13.07.15.08.15.08.16.07.16.08.17.07.17.07.17.07.17.07.17.07.17.06.17.06.17.06.17,0,.17.06.16,0,.17,0,.16,0,.17,0,.17,0,.15,0,0,0,.08,0,.07.06.16,0,.14.05.14,0,.14,0,.14,0,.14,0,.14,0,.13,0,.14,0,.14,0,.14,0,.14,0,.15v.08l0,.07v.08l0,.08v.17l0,.09v.08l0,.1v.14h0V314l.06,1.81.24,7.21.48,14.43.48,14.42.24,7.22v.16h0v.18l0,.09,0,.1,0,.09,0,.09,0,.1,0,.09,0,.09,0,.1,0,.09-.05.09,0,.09-.05.09-.06.09-.07.09-.07.09,0,0,0,0-.05,0,0,0,0,0,0,0,0,0-.05,0,0,0-.05,0,0,0-.06,0-.06,0-.06,0-.06,0-.06,0-.07,0,0,0h-.09v0h0v0h0v0l0-.12,0-.26,0-.26,0-.26,0-.27,0-.26,0-.27,0-.27,0-.27,0-.28,0-.27-.06-.56-.06-.55-.06-.56-.05-.57-.13-1.12-.05-.56-.07-.56-.06-.56,0-.27,0-.28,0-.27,0-.27,0-.27,0-.26,0-.27,0-.26,0-.26,0-.26,0-.25,0-.25,0-.25,0-.25,0-.24,0-.24,0-.23,0-.24,0-.22,0-.23,0-.22,0-.21,0-.14-.08-.16-.11-.16-.13-.16-.16-.15-.18-.14-.2-.11-.22-.09-.22,0H40l-.25.05-.24.11-.4,1.06-.43,1.16-.42,1.17-.42,1.17-.42,1.16L37,354l-.42,1.16-.42,1.17-.42,1.17-.43,1.16-.42,1.17L34.45,361l-.11.28,0,0,0,0,0,0,0,0,0,0,0,0,0,0h0l0,0,0,0h-.44l0,0-.05,0,0-.08-.05-.09,0-.11,0-.13,0-.14,0-.15,0-.16,0-.16,0-.17.2-1.82.45-3.82.44-3.81.45-3.82.45-3.81.45-3.82.45-3.81.45-3.82L37,328l.45-3.82.44-3.81.45-3.82.3-2.58v-3.08l0-.48,0-.45,0-.4,0-.36,0-.32,0-.29,0-.26,0-.23,0-.21,0-.19,0-.17.05-.16,0-.14,0-.13,0-.13.05-.11,0-.1,0-.09.05-.08,0-.08.05-.07,0-.05,0-.06.06,0,.05,0,0,0,.06,0,.06,0h.17Z"/><path id="path9866" class="cls-43" d="M43.18,361.54l-.69-6.28-.17-2-.61-4.62-.09-.64-.33-.54-.42-.37-.42-.19-.44-.05-.3.05-.26.2-5.1,14.13-.29.27-.35.06,0-.24,7.69-20.67.37-.42.41-.27.42.11.17.52,1.61,19.91L44,361l-.39.35Z"/><path id="path9868" class="cls-2" d="M38.63,311l1.23-1.3"/><path id="path9870" class="cls-2" d="M39.86,309.65h2.43"/><path id="path9872" class="cls-2" d="M42.38,340l-.17-24.12"/><path id="path9874" class="cls-2" d="M42.21,315.89,40.05,313"/><path id="path9876" class="cls-2" d="M42.21,315.89l1-2.67"/><path id="path9878" class="cls-22" d="M40.05,313l-.19-3.32"/><path id="path9880" class="cls-2" d="M43.07,360.64h-.61"/><path id="path9882" class="cls-2" d="M43.15,361.3h-.69"/><path id="path9884" class="cls-2" d="M44.39,360.54l-.12-1.5-.12-1.5L44,356l-.11-1.5L43.8,353l-.12-1.5-.12-1.5-.12-1.5-.12-1.5-.11-1.5L43.09,344l-.12-1.5-.12-1.5-.05-.48,0-.11,0-.11,0-.08,0-.07-.05-.06-.06,0-.06,0h-.32l-.07,0-.06,0-.06,0-.06,0-.06.05-.06,0-.05.06,0,.05-.06.06,0,.07,0,.06-.05.06,0,.07-.18.44-.58,1.57-.58,1.57-.59,1.56-.58,1.57L38.34,349l-.59,1.57-.58,1.57-.58,1.57L36,355.26l-.59,1.57-.58,1.57L34.26,360l-.59,1.57"/><path id="path9886" class="cls-2" d="M40.11,306.1h.12l.06,0,.06,0,.06,0,.06,0,.06,0,.07.05.06.05.06.06.07.07.07.08.07.08.07.09.06.1.08.11.07.12.07.13.08.13.07.15.08.15.08.16.07.16.08.17.07.17.07.17.07.17.07.17.07.17.06.17.06.17.06.17,0,.17.06.16,0,.17,0,.16,0,.17,0,.17,0,.15,0,0,0,.08,0,.07.06.16,0,.14.05.14,0,.14,0,.14,0,.14,0,.14,0,.13,0,.14,0,.14,0,.14,0,.14,0,.15v.08l0,.07v.08l0,.08v.17l0,.09v.08l0,.1v.14h0V314l.06,1.81.24,7.21.48,14.43.48,14.42.24,7.22v.16h0v.18l0,.09,0,.1,0,.09,0,.09,0,.1,0,.09,0,.09,0,.1,0,.09-.05.09,0,.09-.05.09-.06.09-.07.09-.07.09,0,0,0,0-.05,0,0,0,0,0,0,0,0,0-.05,0,0,0-.05,0,0,0-.06,0-.06,0-.06,0-.06,0-.06,0-.07,0,0,0h-.09v0h0v0h0v0l0-.12,0-.26,0-.26,0-.26,0-.27,0-.26,0-.27,0-.27,0-.27,0-.28,0-.27-.06-.56-.06-.55-.06-.56-.05-.57-.13-1.12-.05-.56-.07-.56-.06-.56,0-.27,0-.28,0-.27,0-.27,0-.27,0-.26,0-.27,0-.26,0-.26,0-.26,0-.25,0-.25,0-.25,0-.25,0-.24,0-.24,0-.23,0-.24,0-.22,0-.23,0-.22,0-.21,0-.14-.08-.16-.11-.16-.13-.16-.16-.15-.18-.14-.2-.11-.22-.09-.22,0H40l-.25.05-.24.11-.4,1.06-.43,1.16-.42,1.17-.42,1.17-.42,1.16L37,354l-.42,1.16-.42,1.17-.42,1.17-.43,1.16-.42,1.17L34.45,361l-.11.28,0,0,0,0,0,0,0,0,0,0,0,0,0,0h0l0,0,0,0h-.44l0,0-.05,0,0-.08-.05-.09,0-.11,0-.13,0-.14,0-.15,0-.16,0-.16,0-.17.2-1.82.45-3.82.44-3.81.45-3.82.45-3.81.45-3.82.45-3.81.45-3.82L37,328l.45-3.82.44-3.81.45-3.82.3-2.58v-3.08l0-.48,0-.45,0-.4,0-.36,0-.32,0-.29,0-.26,0-.23,0-.21,0-.19,0-.17.05-.16,0-.14,0-.13,0-.13.05-.11,0-.1,0-.09.05-.08,0-.08.05-.07,0-.05,0-.06.06,0,.05,0,0,0,.06,0,.06,0h.17Z"/></g><g id="g10042"><g id="g9964"><path id="path9890" class="cls-13" d="M40.49,146.38l.82.38.22.9-.58.74-1.07,0-.61-.67.15-.84.44-.51Z"/><path id="path9892" class="cls-14" d="M38.73,148.54l-.53-.06-1.29,1.59,0,.93-.17.77.21.84-.19.93.13.78-.15.68.21.69-.19.82.09.55-.07.82.65.2,0-7.92Z"/><path id="path9894" class="cls-15" d="M37.39,158.13l5.87,0v-7.95l-1.72-2.6-.69,1-.9.06-.37-.35L39,148l-.28.66-1.35,1.53Z"/><path id="path9896" class="cls-16" d="M37.43,150.17V158h5.79l-5.79-7.86,1.31-1.63.38-1"/><path id="path9898" class="cls-16" d="M37.44,152,42,158"/><path id="path9900" class="cls-16" d="M40.77,158l-3.34-4.4"/><path id="path9902" class="cls-16" d="M39.68,158l-2.25-2.74"/><path id="path9904" class="cls-16" d="M38.49,158l-1.06-1.32"/><path id="path9906" class="cls-16" d="M43.22,158v-7.9l-1.14-1.73"/><path id="path9908" class="cls-16" d="M37.45,158l5.75-7.88"/><path id="path9910" class="cls-16" d="M43.23,152l-4.53,6"/><path id="path9912" class="cls-16" d="M39.85,158l3.34-4.4"/><path id="path9914" class="cls-16" d="M41,158l2.23-2.73"/><path id="path9916" class="cls-16" d="M39.68,158l-2.25-2.74"/><path id="path9918" class="cls-16" d="M42.16,158l1.05-1.32"/><path id="path9920" class="cls-16" d="M37.45,156.53l5.21-7.26"/><path id="path9922" class="cls-16" d="M37.42,155l4.12-5.87"/><path id="path9924" class="cls-16" d="M43.22,156.49l-5.13-7.13"/><path id="path9926" class="cls-16" d="M43.22,154.94l-4-5.68"/><path id="path9928" class="cls-16" d="M37.41,153.36l2.94-4.18,1.24-1.52"/><path id="path9930" class="cls-16" d="M43.24,153.36l-2.88-4.22-1.26-1.61"/><path id="path9932" class="cls-16" d="M37.43,151.77l1.8-2.5"/><path id="path9934" class="cls-16" d="M43.2,151.75l-1.66-2.58"/><path id="path9936" class="cls-17" d="M42.11,148.45l-.23,0-.33.74.09-.78,0-.75Z"/><path id="path9938" class="cls-17" d="M38.73,148.54l.19,0,.32.71-.11-.88v-.84Z"/><path id="path9940" class="cls-17" d="M40.32,147.62v.71h-.13l-.24.24.42.56.52-.51-.22-.27-.13,0v-.73Z"/><path id="path9942" class="cls-16" d="M39.93,148.62l-.75.07"/><path id="path9944" class="cls-16" d="M40.91,148.62l.7.07"/><path id="path9946" class="cls-16" d="M38.77,148.51l-.57,0a1.42,1.42,0,0,1-.23.45,2,2,0,0,1-.52.27.89.89,0,0,1-.09.43,2.21,2.21,0,0,1-.52.41,3.76,3.76,0,0,1,.11.82,4.16,4.16,0,0,1-.26.82,3.16,3.16,0,0,1,.25.85,2.63,2.63,0,0,1-.24.8,4.42,4.42,0,0,1,.2.91,3.21,3.21,0,0,1-.17.78,2.87,2.87,0,0,1,.21.81,2.31,2.31,0,0,1-.25.72,2.77,2.77,0,0,1,.2.71,2.08,2.08,0,0,1-.2.61l.72.21"/><path id="path9948" class="cls-16" d="M36.85,150l.53.13"/><path id="path9950" class="cls-16" d="M38.08,149.4,38,151"/><path id="path9952" class="cls-16" d="M39.23,149.33l-.08,1.46"/><path id="path9954" class="cls-16" d="M41.53,149.24v1.55"/><path id="path9956" class="cls-16" d="M42.66,149.32v1.56"/><path id="path9958" class="cls-18" d="M38.84,147.6h.48l.08-.56.33-.47.59-.18.42-.06-.48-.36h-.74l-.5.41-.18.67Z"/><path id="path9960" class="cls-16" d="M41,146.44a4.35,4.35,0,0,0-.65-.42,1.6,1.6,0,0,0-.61-.07.81.81,0,0,0-.77.64,2.35,2.35,0,0,0-.1.58c0,.18,0,.55,0,.55l.46.42"/><path id="path9962" class="cls-16" d="M39.32,147.52a1.79,1.79,0,0,1,.08-.5,1.19,1.19,0,0,1,.42-.54,1.12,1.12,0,0,1,.55-.08,1.4,1.4,0,0,1,.54,0,.9.9,0,0,1,.43.31,1,1,0,0,1,.12.35c0,.18.08.56.08.56"/></g><g id="g10040"><path id="path9966" class="cls-13" d="M25.76,146.38l-.82.38-.22.9.57.74,1.08,0,.61-.67-.16-.84-.43-.51Z"/><path id="path9968" class="cls-14" d="M27.52,148.54l.53-.06,1.29,1.59,0,.93.16.77-.2.84.18.93-.12.78.14.68-.2.69.18.82-.08.55.06.82-.64.2,0-7.92Z"/><path id="path9970" class="cls-15" d="M28.86,158.13l-5.87,0v-7.95l1.71-2.6.7,1,.9.06.37-.35.55-.27.29.66,1.35,1.53Z"/><path id="path9972" class="cls-16" d="M28.82,150.17V158H23l5.78-7.86-1.3-1.63-.38-1"/><path id="path9974" class="cls-16" d="M28.81,152l-4.53,6"/><path id="path9976" class="cls-16" d="M25.48,158l3.34-4.4"/><path id="path9978" class="cls-16" d="M26.57,158l2.25-2.74"/><path id="path9980" class="cls-16" d="M27.76,158l1.06-1.32"/><path id="path9982" class="cls-16" d="M23,158v-7.9l1.14-1.73"/><path id="path9984" class="cls-16" d="M28.8,158,23,150.15"/><path id="path9986" class="cls-16" d="M23,152l4.53,6"/><path id="path9988" class="cls-16" d="M26.4,158l-3.34-4.4"/><path id="path9990" class="cls-16" d="M25.27,158,23,155.26"/><path id="path9992" class="cls-16" d="M26.57,158l2.25-2.74"/><path id="path9994" class="cls-16" d="M24.09,158,23,156.71"/><path id="path9996" class="cls-16" d="M28.8,156.53l-5.21-7.26"/><path id="path9998" class="cls-16" d="M28.83,155l-4.12-5.87"/><path id="path10000" class="cls-16" d="M23,156.49l5.13-7.13"/><path id="path10002" class="cls-16" d="M23,154.94l4-5.68"/><path id="path10004" class="cls-16" d="M28.84,153.36l-2.94-4.18-1.25-1.52"/><path id="path10006" class="cls-16" d="M23,153.36l2.88-4.22,1.25-1.61"/><path id="path10008" class="cls-16" d="M28.82,151.77,27,149.27"/><path id="path10010" class="cls-16" d="M23.05,151.75l1.66-2.58"/><path id="path10012" class="cls-17" d="M24.13,148.45l.24,0,.33.74-.09-.78,0-.75Z"/><path id="path10014" class="cls-17" d="M27.52,148.54l-.19,0-.32.71.11-.88v-.84Z"/><path id="path10016" class="cls-17" d="M25.93,147.62v.71h.13l.24.24-.42.56-.52-.51.22-.27.13,0v-.73Z"/><path id="path10018" class="cls-16" d="M26.32,148.62l.75.07"/><path id="path10020" class="cls-16" d="M25.34,148.62l-.7.07"/><path id="path10022" class="cls-16" d="M27.48,148.51l.57,0a1.42,1.42,0,0,0,.23.45,2,2,0,0,0,.52.27.89.89,0,0,0,.09.43,2,2,0,0,0,.52.41,3.76,3.76,0,0,0-.11.82,3.71,3.71,0,0,0,.25.82,3.25,3.25,0,0,0-.24.85,2.72,2.72,0,0,0,.23.8,4.62,4.62,0,0,0-.19.91,3.38,3.38,0,0,0,.16.78,3,3,0,0,0-.2.81,2.38,2.38,0,0,0,.24.72,2.89,2.89,0,0,0-.19.71,2.17,2.17,0,0,0,.19.61l-.71.21"/><path id="path10024" class="cls-16" d="M29.4,150l-.53.13"/><path id="path10026" class="cls-16" d="M28.17,149.4l.07,1.55"/><path id="path10028" class="cls-16" d="M27,149.33l.07,1.46"/><path id="path10030" class="cls-16" d="M24.72,149.24v1.55"/><path id="path10032" class="cls-16" d="M23.59,149.32v1.56"/><path id="path10034" class="cls-18" d="M27.41,147.6h-.48l-.08-.56-.33-.47-.59-.18-.43-.06L26,146h.73l.5.41.19.67Z"/><path id="path10036" class="cls-16" d="M25.29,146.44a4.35,4.35,0,0,1,.65-.42,1.6,1.6,0,0,1,.61-.07.84.84,0,0,1,.77.64,2.35,2.35,0,0,1,.1.58c0,.18,0,.55,0,.55l-.47.42"/><path id="path10038" class="cls-16" d="M26.93,147.52a1.79,1.79,0,0,0-.08-.5,1.19,1.19,0,0,0-.42-.54,1.14,1.14,0,0,0-.55-.08,1.46,1.46,0,0,0-.55,0,.93.93,0,0,0-.42.31.86.86,0,0,0-.12.35,4.17,4.17,0,0,0-.08.56"/></g></g></g><g id="g8398"><g id="g8390"><path id="path8386" class="cls-44" d="M20.32,60.93c-.06-1-.08-9.85-.05-19.67.08-19.41.07-19.16,1.13-24.12A28.73,28.73,0,0,1,28.83,2.83Q31.16.34,32.56.34H33V62.74H20.44l-.12-1.81Z"/><path id="path8388" class="cls-45" d="M23.81,69.23c-.09-.12-.75-1.29-1.46-2.6s-1.44-2.65-1.63-3l-.34-.58H33v6.36H28.47c-3.38,0-4.53,0-4.66-.22Z"/></g><g id="g8396"><path id="path8392" class="cls-46" d="M45.92,60.93c.07-1,.09-9.85,0-19.67-.07-19.41-.06-19.16-1.12-24.12A28.82,28.82,0,0,0,37.41,2.83Q35.09.34,33.68.34h-.39V62.74H45.8l.12-1.81Z"/><path id="path8394" class="cls-47" d="M42.43,69.23c.09-.12.75-1.29,1.46-2.6s1.44-2.65,1.63-3l.35-.58H33.29v6.36h4.48c3.38,0,4.53,0,4.66-.22Z"/></g></g><path id="path8444" class="cls-2" d="M23.81,69.61H42.46"/><path id="path8461" class="cls-2" d="M20.17,62.93H46.1"/><path id="path8463" class="cls-2" d="M23.81,69.61l-.39-.71L23,68.18l-.39-.71-.39-.72L21.87,66l-.39-.71-.39-.72-.39-.71-.39-.71-.14-2.87V28.08l0-3,0-.53.05-.53.05-.53.05-.53.06-.53.06-.53.06-.53.07-.53.07-.53.08-.53.08-.53.09-.53.1-.53.1-.53.11-.53.11-.52.13-.53.13-.52.13-.51.15-.52.15-.51.16-.51L22.4,13l.18-.5.19-.49.2-.49.2-.49.22-.48.22-.48.24-.47.24-.46.26-.46.26-.46.27-.45.28-.45.29-.44.3-.44.3-.44.32-.43.32-.43L27,4.72l.34-.43.35-.42.36-.42L28.44,3l.38-.41.38-.41.39-.4L30,1.44l.43-.33.44-.3.47-.24.48-.19.51-.11L32.87.2h.57L34,.27l.51.11L35,.57l.46.24.45.29.42.34.41.37.4.39.38.41.37.42.37.42.36.42.35.42.34.42.33.43.32.43.32.44.31.43.29.44.29.45.28.45.28.45.26.45.25.46.25.47.23.47.23.47.21.49.21.48.2.49.19.5.18.5.17.5.16.51.16.51.14.52.14.52.13.52.12.52.12.53.11.52.1.53.09.53.09.53.08.53.08.53.07.53.06.53.06.53.05.53,0,.53.05.53L46,24l0,.53,0,.53,0,3V60.32L46,63.19l-.39.71-.39.71-.39.72L44.4,66l-.39.71-.38.72-.39.71-.39.72-.39.71"/><path id="path8678" class="cls-2" d="M33.13,69.61V.2"/><path id="path8972" class="cls-48" d="M34.66,142.05a.3.3,0,0,0-.28.32.29.29,0,0,0,.31.28h8.42a.29.29,0,0,0,.31-.28.3.3,0,0,0-.29-.32H34.66Z"/><path id="path8974" class="cls-49" d="M44.84,143.21l-1.74-1.13v1.13Z"/><path id="path8976" class="cls-48" d="M23.08,142.05a.31.31,0,0,0-.28.32.3.3,0,0,0,.32.28h8.42a.3.3,0,0,0,.31-.28.31.31,0,0,0-.29-.32H23.08Z"/><path id="path8978" class="cls-49" d="M21.38,143.21l1.75-1.13v1.13Z"/><rect id="rect8980" class="cls-50" x="11.85" y="143.21" width="42.62" height="0.94"/><path id="path8984" class="cls-49" d="M10.94,151.73s-.52-.35-.53-.75c0-1,0-4.95,0-4.95s.32-3.23,1.5-3.23,1.5,3.23,1.5,3.23,0,3.88,0,4.95c0,.37-.5.75-.5.75Z"/><path id="path8992" class="cls-51" d="M35.72,144.13l-1.11-2h-3l-1.1,2"/><path id="path8994" class="cls-49" d="M31,143.2l.58-1.08h3l.58,1.06Z"/><path id="path8982" class="cls-52" d="M54.16,356a9.49,9.49,0,0,1-.29-1.43,23.7,23.7,0,0,1-.19-3.73,8.09,8.09,0,0,0-.24-2.09s0-15.28,0-26.15c0-.53-1.69-1.35-1.7-1.89,0-1,0-2.41,0-3.43,0-.5,1.7-1.19,1.7-1.69,0-3.47,0-7.07,0-10.78,0-.65-1.7-1.66-1.7-2.31,0-1.09,0-2.21,0-3.32,0-.38,1.7-1.87,1.7-2.25s0-5.15,0-5.15-.1-24.3-.1-26.16c0-1,.1-2.09.1-3.12,0-8.06,0-35.87,0-43.22,0-.6.3-1.2.3-1.8.07-9.21,0-37.59,0-44.88,0-.78-.83-1.63-.83-2.38V146s.32-3.23,1.5-3.23,1.5,3.23,1.5,3.23v8.81c0,.91,1.68.52,1.68,1.55V162c0,1-1.68.3-1.68,1.43v6.83c0,.75-.62,1.52-.62,2.3,0,7.27,0,35.72,0,44.92,0,.62-.4,1.24-.4,1.86,0,7.35.08,43.22.08,43.22l.44.78a3.65,3.65,0,0,1,.13,1.75c0,.2-.45.59-.45.59l0,4.24s2.15.44,2.26.84a33.14,33.14,0,0,1-.05,5.1,2.29,2.29,0,0,1-1.29.23.74.74,0,0,0-.35.06s0,16.59,0,17-.53.58-.53,1.62v52.43l.25,1.51a5.66,5.66,0,0,0-.4,2.12,27,27,0,0,1-.19,3.83,8.9,8.9,0,0,1-.24,1.33c-.15,0-.13,0-.38,0Z"/><path id="path8878" class="cls-53" d="M32.39,143.34a8,8,0,0,0-.75,2.69s0,4,0,4.95c0,.4,1,1.05,1,1.05s0,3.78.11,4.1a4.42,4.42,0,0,0,.58,1v16l-.4,1V354.48L33,355.9l.23,0,.11-1.37V179.34l.4-.88.1-5.39v-16s.11-.72.18-.95,0-4,0-4.13.57-.67.56-1c0-1.07,0-4.95,0-4.95a7.9,7.9,0,0,0-.74-2.69Z"/><g id="g4009"><g id="g9762"><path id="path9742" class="cls-54" d="M34.54,238.28H30.67l-.14.11v3.44H31.6v-1.29l.1-.09h2.84c.72,0,1.06-.19,1.06-.69V239c0-.5-.34-.69-1.06-.69m0,1.27c0,.24-.15.29-.49.29H31.72l-.12-.12V239l.1-.1h2.35c.34,0,.49.05.49.29v.37Z"/><polyline id="polyline9744" class="cls-54" points="32.3 246.11 33.22 247.46 33.17 247.59 31.14 247.59 30.61 248.23 33.65 248.23 33.86 248.36 34.33 249.01 35.55 249.01 32.87 245.41"/><g id="g9750"><polyline id="polyline9746" class="cls-54" points="31.73 264.04 31.73 263.08 31.84 262.99 33.89 262.99 33.89 262.38 30.64 262.38 30.64 264.74 35.44 264.74 35.44 264.13 31.85 264.13"/><rect id="rect9748" class="cls-54" x="30.64" y="261.19" width="4.84" height="0.67"/></g><path id="path9752" class="cls-54" d="M31.71,253.79h3.91c-.06-.5-.37-.64-1.15-.64h-2.8c-.88,0-1.16.18-1.16.84v1.87c0,.67.28.84,1.16.84h2.8c.79,0,1.09-.14,1.11-.66H31.71l-.11-.11v-2.07"/><path id="path9754" class="cls-54" d="M34.5,231.49H31.66l-.08-.09v-.61l.08-.07h3.83l0-.12c-.13-.34-.47-.5-1.09-.5H31.79c-.88,0-1.16.18-1.16.84v.4c0,.66.28.84,1.16.84h2.83l.09.07v.64l-.07.1H30.55s-.1.05-.09.08c.07.46.39.59,1.15.59H34.5c.88,0,1.17-.17,1.17-.83v-.49c0-.67-.29-.84-1.17-.84"/><path id="path9756" class="cls-54" d="M31.77,269.42H30.18l-.09.16,1.77,1.29c.33-.19.7-.39,1.09-.58"/><path id="path9758" class="cls-54" d="M33.2,271.85,34.75,273h1.61l.07-.15-2.32-1.7c-.31.23-.61.47-.91.72"/><path id="path9760" class="cls-55" d="M31.53,273H30.09l-.12-.19a20.12,20.12,0,0,1,11.28-5A18.05,18.05,0,0,0,31.53,273"/></g><g id="g8970"><g id="g8956"><path id="path8952" class="cls-56" d="M29.78,166.35a11.84,11.84,0,0,1,1.17-.46c-4.57-1.93-4.83-3.38-5.77-4.91A8.87,8.87,0,0,0,29.78,166.35Z"/><path id="path8954" class="cls-56" d="M27.4,163.45a14.85,14.85,0,0,0,4.37,2.25c1.1-.47,4.75-.73,4.67-.06a2.32,2.32,0,0,0-1.72,0,5.67,5.67,0,0,1,1,0,1,1,0,0,1-.24.14,3.2,3.2,0,0,1,.81.23c.15,0,.25,0,.29,0a.94.94,0,0,0-.43.3c1,0,2.1,0,2.21.87.32-.76-.25-1.16-1.37-1.33a4,4,0,0,0-.61-.73C33.34,165,30.3,164.79,27.4,163.45Z"/></g><g id="g8964"><path id="path8958" class="cls-57" d="M28.91,171.28v-3.75H33a1.13,1.13,0,0,1-.41.35H30v1H32.2a1,1,0,0,1-.41.35H30v1.25A1.9,1.9,0,0,1,28.91,171.28Z"/><path id="path8960" class="cls-57" d="M35.6,169.17H34.48v1.63H33.4v-3.24h1.08v1.27H36A.89.89,0,0,1,35.6,169.17Z"/><path id="path8962" class="cls-57" d="M37.35,171.28v-3.69h-.94v2.83a1.8,1.8,0,0,0,.94.86Z"/></g><g id="text8968" class="cls-58"><text class="cls-59" transform="translate(28.84 172.56)">F<tspan class="cls-60" x="0.56" y="0">ALCON HE</tspan><tspan class="cls-61" x="5.55" y="0">A</tspan><tspan class="cls-60" x="6.14" y="0">V</tspan><tspan class="cls-62" x="6.78" y="0">Y</tspan></text></g></g></g><path id="path4176" class="cls-63" d="M10.41,146s0,4,0,4.95c0,.4.88,1.07.88,1.07s0,3.74.07,4.06.33,1,.33,1V354.48l.11,1.42.23,0,.11-1.37v-63l.38-1.11V283L12.14,282V266.53l.38-1v-7.25l-.38-.84V202.15l.38-1v-7.37l-.38-.82V157.1s.25-.83.33-1.06,0-3.84,0-3.93.94-.76.93-1.13c0-1.07,0-4.95,0-4.95-.22-1.48-.61-3.26-1.53-3.26s-1.28,2-1.47,3.26Z"/></g></g></svg>