<svg xmlns="http://www.w3.org/2000/svg" viewBox="0 0 178.53 281.56"><defs><style>.cls-1{fill:#f4f6fb;stroke:#231f20;stroke-miterlimit:10;}</style></defs><title>Asset 2</title><g id="Layer_2" data-name="Layer 2"><g id="Layer_1-2" data-name="Layer 1"><path class="cls-1" d="M.5,140.78a16.93,16.93,0,0,1,5-12.27l123-123a17,17,0,0,1,24,0L173.05,26a17,17,0,0,1,0,24L82.3,140.78l90.75,90.75a17,17,0,0,1,0,24.05l-20.5,20.5a17,17,0,0,1-24,0l-123-123a16.93,16.93,0,0,1-5-12.27c0-.19,0-.38,0-.57"/></g></g></svg>